<svg height="1024" width="3072" xmlns="http://www.w3.org/2000/svg">
<svg xmlns="http://www.w3.org/2000/svg">
<svg height="90%" width="100%" xmlns="http://www.w3.org/2000/svg">
<svg height="5%" width="100%" xmlns="http://www.w3.org/2000/svg">
<text dominant-baseline="middle" fill="#707070" font-family="sans-serif" font-size="30px" font-weight="bold" text-anchor="middle" x="50%" y="50%">
EDM 240: Supporting signatures (per party) over date signed (as time in days)
</text>
</svg>
<svg height="87.5%" width="100%" xmlns="http://www.w3.org/2000/svg" y="5%">
<g transform="scale(1 -1)" transform-origin="center">
<svg preserveAspectRatio="none" viewBox="-8 -8 950 180" xmlns="http://www.w3.org/2000/svg">
<g>
<path d="M0,0 L0,1 L1,1 L2,1 L3,1 L4,1 L5,1 L6,1 L7,1 L8,1 L9,1 L10,1 L11,1 L12,1 L13,1 L14,1 L15,1 L16,1 L17,1 L18,1 L19,1 L20,1 L21,1 L22,1 L23,1 L24,1 L25,1 L26,1 L27,1 L28,1 L29,1 L30,1 L31,1 L32,1 L33,1 L34,1 L35,1 L36,1 L37,1 L38,1 L39,1 L40,1 L41,1 L42,1 L43,1 L44,1 L45,1 L46,1 L47,1 L48,1 L49,1 L50,1 L51,1 L52,1 L53,1 L54,1 L55,1 L56,1 L57,1 L58,1 L59,1 L60,1 L61,1 L62,1 L63,1 L64,1 L65,1 L66,1 L67,1 L68,1 L69,1 L70,1 L71,1 L72,1 L73,1 L74,1 L75,1 L76,1 L77,1 L78,1 L79,1 L80,1 L81,1 L82,1 L83,1 L84,1 L85,1 L86,1 L87,1 L88,1 L89,1 L90,3 L91,3 L92,3 L93,3 L94,3 L95,3 L96,18 L97,19 L98,20 L99,20 L100,27 L101,27 L102,27 L103,27 L104,27 L105,27 L106,27 L107,27 L108,27 L109,27 L110,27 L111,27 L112,28 L113,30 L114,33 L115,36 L116,40 L117,42 L118,45 L119,48 L120,50 L121,50 L122,50 L123,50 L124,50 L125,50 L126,50 L127,50 L128,50 L129,50 L130,50 L131,50 L132,50 L133,50 L134,50 L135,50 L136,52 L137,55 L138,59 L139,62 L140,63 L141,66 L142,69 L143,74 L144,75 L145,75 L146,75 L147,75 L148,75 L149,75 L150,75 L151,75 L152,75 L153,75 L154,75 L155,75 L156,75 L157,75 L158,75 L159,75 L160,76 L161,81 L162,82 L163,85 L164,86 L165,86 L166,88 L167,88 L168,88 L169,88 L170,88 L171,88 L172,88 L173,88 L174,88 L175,88 L176,88 L177,88 L178,88 L179,88 L180,88 L181,88 L182,88 L183,88 L184,88 L185,88 L186,89 L187,91 L188,91 L189,91 L190,92 L191,92 L192,92 L193,92 L194,92 L195,92 L196,92 L197,92 L198,92 L199,92 L200,92 L201,92 L202,92 L203,92 L204,92 L205,92 L206,92 L207,92 L208,92 L209,92 L210,92 L211,92 L212,92 L213,92 L214,92 L215,92 L216,92 L217,92 L218,92 L219,92 L220,92 L221,92 L222,92 L223,92 L224,92 L225,92 L226,92 L227,92 L228,92 L229,92 L230,92 L231,92 L232,92 L233,92 L234,92 L235,92 L236,92 L237,92 L238,92 L239,92 L240,92 L241,92 L242,92 L243,92 L244,92 L245,92 L246,92 L247,92 L248,92 L249,92 L250,92 L251,92 L252,92 L253,92 L254,92 L255,93 L256,93 L257,93 L258,94 L259,94 L260,94 L261,94 L262,98 L263,99 L264,101 L265,102 L266,102 L267,102 L268,102 L269,102 L270,102 L271,102 L272,102 L273,102 L274,102 L275,102 L276,102 L277,102 L278,102 L279,102 L280,102 L281,102 L282,103 L283,104 L284,104 L285,105 L286,106 L287,109 L288,110 L289,111 L290,111 L291,111 L292,111 L293,111 L294,111 L295,111 L296,111 L297,111 L298,111 L299,111 L300,111 L301,111 L302,111 L303,111 L304,112 L305,114 L306,118 L307,120 L308,120 L309,120 L310,120 L311,122 L312,125 L313,127 L314,127 L315,127 L316,127 L317,127 L318,127 L319,127 L320,127 L321,127 L322,127 L323,127 L324,127 L325,127 L326,127 L327,127 L328,127 L329,128 L330,128 L331,129 L332,130 L333,130 L334,131 L335,131 L336,131 L337,131 L338,131 L339,131 L340,131 L341,131 L342,131 L343,131 L344,131 L345,131 L346,131 L347,131 L348,131 L349,131 L350,131 L351,131 L352,131 L353,131 L354,131 L355,131 L356,131 L357,132 L358,132 L359,132 L360,132 L361,132 L362,132 L363,132 L364,132 L365,132 L366,132 L367,132 L368,132 L369,132 L370,132 L371,132 L372,132 L373,132 L374,132 L375,132 L376,132 L377,132 L378,132 L379,132 L380,132 L381,132 L382,132 L383,132 L384,132 L385,132 L386,132 L387,132 L388,132 L389,132 L390,132 L391,132 L392,132 L393,132 L394,132 L395,132 L396,132 L397,132 L398,132 L399,132 L400,132 L401,132 L402,132 L403,132 L404,132 L405,132 L406,132 L407,132 L408,132 L409,132 L410,132 L411,132 L412,132 L413,132 L414,132 L415,132 L416,132 L417,132 L418,132 L419,132 L420,132 L421,132 L422,132 L423,133 L424,133 L425,133 L426,133 L427,133 L428,133 L429,133 L430,137 L431,137 L432,137 L433,137 L434,137 L435,137 L436,137 L437,137 L438,137 L439,137 L440,137 L441,137 L442,137 L443,137 L444,137 L445,137 L446,137 L447,137 L448,137 L449,139 L450,139 L451,139 L452,139 L453,139 L454,139 L455,139 L456,139 L457,139 L458,139 L459,139 L460,139 L461,139 L462,139 L463,139 L464,139 L465,139 L466,139 L467,139 L468,139 L469,139 L470,139 L471,139 L472,139 L473,139 L474,140 L475,141 L476,141 L477,141 L478,141 L479,141 L480,141 L481,142 L482,142 L483,142 L484,142 L485,142 L486,142 L487,142 L488,142 L489,142 L490,142 L491,142 L492,142 L493,142 L494,142 L495,142 L496,142 L497,143 L498,145 L499,145 L500,145 L501,145 L502,145 L503,146 L504,146 L505,146 L506,146 L507,146 L508,146 L509,146 L510,146 L511,146 L512,146 L513,146 L514,146 L515,146 L516,146 L517,146 L518,146 L519,146 L520,146 L521,146 L522,146 L523,146 L524,146 L525,146 L526,146 L527,146 L528,146 L529,146 L530,146 L531,146 L532,146 L533,146 L534,146 L535,146 L536,146 L537,146 L538,146 L539,146 L540,146 L541,146 L542,146 L543,146 L544,146 L545,146 L546,146 L547,146 L548,146 L549,146 L550,146 L551,146 L552,146 L553,146 L554,146 L555,146 L556,146 L557,146 L558,146 L559,146 L560,146 L561,146 L562,146 L563,146 L564,146 L565,146 L566,146 L567,146 L568,146 L569,146 L570,146 L571,146 L572,146 L573,146 L574,146 L575,146 L576,146 L577,146 L578,146 L579,146 L580,146 L581,146 L582,146 L583,146 L584,146 L585,146 L586,146 L587,146 L588,146 L589,146 L590,146 L591,146 L592,146 L593,146 L594,147 L595,147 L596,147 L597,147 L598,148 L599,148 L600,148 L601,148 L602,148 L603,148 L604,148 L605,148 L606,148 L607,148 L608,148 L609,148 L610,148 L611,148 L612,148 L613,148 L614,148 L615,148 L616,148 L617,148 L618,149 L619,149 L620,149 L621,149 L622,149 L623,150 L624,150 L625,150 L626,150 L627,150 L628,150 L629,150 L630,150 L631,150 L632,150 L633,150 L634,150 L635,150 L636,150 L637,150 L638,150 L639,150 L640,150 L641,150 L642,150 L643,151 L644,151 L645,151 L646,151 L647,152 L648,153 L649,154 L650,155 L651,155 L652,155 L653,155 L654,155 L655,155 L656,155 L657,155 L658,155 L659,155 L660,155 L661,155 L662,155 L663,155 L664,155 L665,156 L666,156 L667,156 L668,156 L669,156 L670,156 L671,156 L672,156 L673,156 L674,156 L675,156 L676,156 L677,156 L678,156 L679,156 L680,156 L681,156 L682,156 L683,156 L684,156 L685,156 L686,156 L687,156 L688,156 L689,156 L690,156 L691,156 L692,156 L693,156 L694,156 L695,156 L696,156 L697,156 L698,156 L699,156 L700,156 L701,156 L702,156 L703,156 L704,156 L705,156 L706,156 L707,156 L708,156 L709,156 L710,156 L711,156 L712,156 L713,156 L714,156 L715,156 L716,156 L717,156 L718,156 L719,156 L720,156 L721,156 L722,156 L723,156 L724,156 L725,156 L726,156 L727,156 L728,156 L729,156 L730,156 L731,156 L732,156 L733,156 L734,156 L735,156 L736,156 L737,156 L738,156 L739,156 L740,156 L741,156 L742,156 L743,156 L744,156 L745,156 L746,156 L747,156 L748,156 L749,156 L750,156 L751,156 L752,156 L753,156 L754,156 L755,156 L756,156 L757,156 L758,156 L759,156 L760,156 L761,156 L762,156 L763,156 L764,156 L765,156 L766,158 L767,158 L768,158 L769,158 L770,158 L771,158 L772,158 L773,158 L774,158 L775,158 L776,158 L777,158 L778,158 L779,158 L780,158 L781,158 L782,158 L783,158 L784,158 L785,158 L786,158 L787,158 L788,159 L789,159 L790,159 L791,159 L792,159 L793,159 L794,159 L795,159 L796,159 L797,159 L798,159 L799,159 L800,159 L801,159 L802,159 L803,159 L804,159 L805,159 L806,159 L807,159 L808,159 L809,159 L810,159 L811,159 L812,159 L813,159 L814,159 L815,159 L816,159 L817,159 L818,159 L819,159 L820,159 L821,159 L822,159 L823,159 L824,159 L825,159 L826,159 L827,159 L828,159 L829,159 L830,159 L831,159 L832,159 L833,159 L834,159 L835,161 L836,161 L837,161 L838,161 L839,161 L840,161 L841,161 L842,161 L843,161 L844,161 L845,161 L846,161 L847,161 L848,161 L849,161 L850,161 L851,161 L852,161 L853,161 L854,161 L855,161 L856,161 L857,161 L858,161 L859,161 L860,161 L861,161 L862,161 L863,161 L864,161 L865,161 L866,161 L867,161 L868,161 L869,161 L870,161 L871,161 L872,161 L873,161 L874,161 L875,161 L876,161 L877,161 L878,161 L879,161 L880,161 L881,161 L882,161 L883,161 L884,161 L885,161 L886,161 L887,161 L888,161 L889,161 L890,161 L891,161 L892,161 L893,161 L894,161 L895,161 L896,161 L897,161 L898,161 L899,161 L900,161 L901,161 L902,161 L903,161 L904,161 L905,161 L906,161 L907,161 L908,161 L909,161 L910,161 L911,161 L912,161 L913,161 L914,161 L915,161 L916,161 L917,161 L918,161 L919,161 L920,161 L921,161 L922,161 L923,161 L924,161 L925,161 L926,161 L927,161 L928,161 L929,161 L930,161 L931,161 L932,161 L933,161 L934,164 l0,-164 L0,0" fill="#4ea268" stroke="#4ea268"/>
<path d="M0,0 L0,1 L1,1 L2,1 L3,1 L4,1 L5,1 L6,1 L7,1 L8,1 L9,1 L10,1 L11,1 L12,1 L13,1 L14,1 L15,1 L16,1 L17,1 L18,1 L19,1 L20,1 L21,1 L22,1 L23,1 L24,1 L25,1 L26,1 L27,1 L28,1 L29,1 L30,1 L31,1 L32,1 L33,1 L34,1 L35,1 L36,1 L37,1 L38,1 L39,1 L40,1 L41,1 L42,1 L43,1 L44,1 L45,1 L46,1 L47,1 L48,1 L49,1 L50,1 L51,1 L52,1 L53,1 L54,1 L55,1 L56,1 L57,1 L58,1 L59,1 L60,1 L61,1 L62,1 L63,1 L64,1 L65,1 L66,1 L67,1 L68,1 L69,1 L70,1 L71,1 L72,1 L73,1 L74,1 L75,1 L76,1 L77,1 L78,1 L79,1 L80,1 L81,1 L82,1 L83,1 L84,1 L85,1 L86,1 L87,1 L88,1 L89,1 L90,3 L91,3 L92,3 L93,3 L94,3 L95,3 L96,18 L97,19 L98,20 L99,20 L100,27 L101,27 L102,27 L103,27 L104,27 L105,27 L106,27 L107,27 L108,27 L109,27 L110,27 L111,27 L112,28 L113,30 L114,33 L115,36 L116,40 L117,42 L118,45 L119,48 L120,50 L121,50 L122,50 L123,50 L124,50 L125,50 L126,50 L127,50 L128,50 L129,50 L130,50 L131,50 L132,50 L133,50 L134,50 L135,50 L136,51 L137,54 L138,58 L139,61 L140,62 L141,65 L142,68 L143,73 L144,74 L145,74 L146,74 L147,74 L148,74 L149,74 L150,74 L151,74 L152,74 L153,74 L154,74 L155,74 L156,74 L157,74 L158,74 L159,74 L160,75 L161,80 L162,81 L163,84 L164,85 L165,85 L166,87 L167,87 L168,87 L169,87 L170,87 L171,87 L172,87 L173,87 L174,87 L175,87 L176,87 L177,87 L178,87 L179,87 L180,87 L181,87 L182,87 L183,87 L184,87 L185,87 L186,88 L187,90 L188,90 L189,90 L190,91 L191,91 L192,91 L193,91 L194,91 L195,91 L196,91 L197,91 L198,91 L199,91 L200,91 L201,91 L202,91 L203,91 L204,91 L205,91 L206,91 L207,91 L208,91 L209,91 L210,91 L211,91 L212,91 L213,91 L214,91 L215,91 L216,91 L217,91 L218,91 L219,91 L220,91 L221,91 L222,91 L223,91 L224,91 L225,91 L226,91 L227,91 L228,91 L229,91 L230,91 L231,91 L232,91 L233,91 L234,91 L235,91 L236,91 L237,91 L238,91 L239,91 L240,91 L241,91 L242,91 L243,91 L244,91 L245,91 L246,91 L247,91 L248,91 L249,91 L250,91 L251,91 L252,91 L253,91 L254,91 L255,92 L256,92 L257,92 L258,93 L259,93 L260,93 L261,93 L262,97 L263,98 L264,100 L265,101 L266,101 L267,101 L268,101 L269,101 L270,101 L271,101 L272,101 L273,101 L274,101 L275,101 L276,101 L277,101 L278,101 L279,101 L280,101 L281,101 L282,102 L283,103 L284,103 L285,104 L286,105 L287,108 L288,109 L289,110 L290,110 L291,110 L292,110 L293,110 L294,110 L295,110 L296,110 L297,110 L298,110 L299,110 L300,110 L301,110 L302,110 L303,110 L304,111 L305,113 L306,117 L307,119 L308,119 L309,119 L310,119 L311,121 L312,124 L313,126 L314,126 L315,126 L316,126 L317,126 L318,126 L319,126 L320,126 L321,126 L322,126 L323,126 L324,126 L325,126 L326,126 L327,126 L328,126 L329,127 L330,127 L331,128 L332,129 L333,129 L334,130 L335,130 L336,130 L337,130 L338,130 L339,130 L340,130 L341,130 L342,130 L343,130 L344,130 L345,130 L346,130 L347,130 L348,130 L349,130 L350,130 L351,130 L352,130 L353,130 L354,130 L355,130 L356,130 L357,131 L358,131 L359,131 L360,131 L361,131 L362,131 L363,131 L364,131 L365,131 L366,131 L367,131 L368,131 L369,131 L370,131 L371,131 L372,131 L373,131 L374,131 L375,131 L376,131 L377,131 L378,131 L379,131 L380,131 L381,131 L382,131 L383,131 L384,131 L385,131 L386,131 L387,131 L388,131 L389,131 L390,131 L391,131 L392,131 L393,131 L394,131 L395,131 L396,131 L397,131 L398,131 L399,131 L400,131 L401,131 L402,131 L403,131 L404,131 L405,131 L406,131 L407,131 L408,131 L409,131 L410,131 L411,131 L412,131 L413,131 L414,131 L415,131 L416,131 L417,131 L418,131 L419,131 L420,131 L421,131 L422,131 L423,132 L424,132 L425,132 L426,132 L427,132 L428,132 L429,132 L430,136 L431,136 L432,136 L433,136 L434,136 L435,136 L436,136 L437,136 L438,136 L439,136 L440,136 L441,136 L442,136 L443,136 L444,136 L445,136 L446,136 L447,136 L448,136 L449,138 L450,138 L451,138 L452,138 L453,138 L454,138 L455,138 L456,138 L457,138 L458,138 L459,138 L460,138 L461,138 L462,138 L463,138 L464,138 L465,138 L466,138 L467,138 L468,138 L469,138 L470,138 L471,138 L472,138 L473,138 L474,139 L475,140 L476,140 L477,140 L478,140 L479,140 L480,140 L481,141 L482,141 L483,141 L484,141 L485,141 L486,141 L487,141 L488,141 L489,141 L490,141 L491,141 L492,141 L493,141 L494,141 L495,141 L496,141 L497,142 L498,144 L499,144 L500,144 L501,144 L502,144 L503,145 L504,145 L505,145 L506,145 L507,145 L508,145 L509,145 L510,145 L511,145 L512,145 L513,145 L514,145 L515,145 L516,145 L517,145 L518,145 L519,145 L520,145 L521,145 L522,145 L523,145 L524,145 L525,145 L526,145 L527,145 L528,145 L529,145 L530,145 L531,145 L532,145 L533,145 L534,145 L535,145 L536,145 L537,145 L538,145 L539,145 L540,145 L541,145 L542,145 L543,145 L544,145 L545,145 L546,145 L547,145 L548,145 L549,145 L550,145 L551,145 L552,145 L553,145 L554,145 L555,145 L556,145 L557,145 L558,145 L559,145 L560,145 L561,145 L562,145 L563,145 L564,145 L565,145 L566,145 L567,145 L568,145 L569,145 L570,145 L571,145 L572,145 L573,145 L574,145 L575,145 L576,145 L577,145 L578,145 L579,145 L580,145 L581,145 L582,145 L583,145 L584,145 L585,145 L586,145 L587,145 L588,145 L589,145 L590,145 L591,145 L592,145 L593,145 L594,146 L595,146 L596,146 L597,146 L598,147 L599,147 L600,147 L601,147 L602,147 L603,147 L604,147 L605,147 L606,147 L607,147 L608,147 L609,147 L610,147 L611,147 L612,147 L613,147 L614,147 L615,147 L616,147 L617,147 L618,148 L619,148 L620,148 L621,148 L622,148 L623,149 L624,149 L625,149 L626,149 L627,149 L628,149 L629,149 L630,149 L631,149 L632,149 L633,149 L634,149 L635,149 L636,149 L637,149 L638,149 L639,149 L640,149 L641,149 L642,149 L643,150 L644,150 L645,150 L646,150 L647,151 L648,152 L649,153 L650,154 L651,154 L652,154 L653,154 L654,154 L655,154 L656,154 L657,154 L658,154 L659,154 L660,154 L661,154 L662,154 L663,154 L664,154 L665,155 L666,155 L667,155 L668,155 L669,155 L670,155 L671,155 L672,155 L673,155 L674,155 L675,155 L676,155 L677,155 L678,155 L679,155 L680,155 L681,155 L682,155 L683,155 L684,155 L685,155 L686,155 L687,155 L688,155 L689,155 L690,155 L691,155 L692,155 L693,155 L694,155 L695,155 L696,155 L697,155 L698,155 L699,155 L700,155 L701,155 L702,155 L703,155 L704,155 L705,155 L706,155 L707,155 L708,155 L709,155 L710,155 L711,155 L712,155 L713,155 L714,155 L715,155 L716,155 L717,155 L718,155 L719,155 L720,155 L721,155 L722,155 L723,155 L724,155 L725,155 L726,155 L727,155 L728,155 L729,155 L730,155 L731,155 L732,155 L733,155 L734,155 L735,155 L736,155 L737,155 L738,155 L739,155 L740,155 L741,155 L742,155 L743,155 L744,155 L745,155 L746,155 L747,155 L748,155 L749,155 L750,155 L751,155 L752,155 L753,155 L754,155 L755,155 L756,155 L757,155 L758,155 L759,155 L760,155 L761,155 L762,155 L763,155 L764,155 L765,155 L766,157 L767,157 L768,157 L769,157 L770,157 L771,157 L772,157 L773,157 L774,157 L775,157 L776,157 L777,157 L778,157 L779,157 L780,157 L781,157 L782,157 L783,157 L784,157 L785,157 L786,157 L787,157 L788,158 L789,158 L790,158 L791,158 L792,158 L793,158 L794,158 L795,158 L796,158 L797,158 L798,158 L799,158 L800,158 L801,158 L802,158 L803,158 L804,158 L805,158 L806,158 L807,158 L808,158 L809,158 L810,158 L811,158 L812,158 L813,158 L814,158 L815,158 L816,158 L817,158 L818,158 L819,158 L820,158 L821,158 L822,158 L823,158 L824,158 L825,158 L826,158 L827,158 L828,158 L829,158 L830,158 L831,158 L832,158 L833,158 L834,158 L835,160 L836,160 L837,160 L838,160 L839,160 L840,160 L841,160 L842,160 L843,160 L844,160 L845,160 L846,160 L847,160 L848,160 L849,160 L850,160 L851,160 L852,160 L853,160 L854,160 L855,160 L856,160 L857,160 L858,160 L859,160 L860,160 L861,160 L862,160 L863,160 L864,160 L865,160 L866,160 L867,160 L868,160 L869,160 L870,160 L871,160 L872,160 L873,160 L874,160 L875,160 L876,160 L877,160 L878,160 L879,160 L880,160 L881,160 L882,160 L883,160 L884,160 L885,160 L886,160 L887,160 L888,160 L889,160 L890,160 L891,160 L892,160 L893,160 L894,160 L895,160 L896,160 L897,160 L898,160 L899,160 L900,160 L901,160 L902,160 L903,160 L904,160 L905,160 L906,160 L907,160 L908,160 L909,160 L910,160 L911,160 L912,160 L913,160 L914,160 L915,160 L916,160 L917,160 L918,160 L919,160 L920,160 L921,160 L922,160 L923,160 L924,160 L925,160 L926,160 L927,160 L928,160 L929,160 L930,160 L931,160 L932,160 L933,160 L934,163 l0,-163 L0,0" fill="#ff3131" stroke="#ff3131"/>
<path d="M0,0 L0,1 L1,1 L2,1 L3,1 L4,1 L5,1 L6,1 L7,1 L8,1 L9,1 L10,1 L11,1 L12,1 L13,1 L14,1 L15,1 L16,1 L17,1 L18,1 L19,1 L20,1 L21,1 L22,1 L23,1 L24,1 L25,1 L26,1 L27,1 L28,1 L29,1 L30,1 L31,1 L32,1 L33,1 L34,1 L35,1 L36,1 L37,1 L38,1 L39,1 L40,1 L41,1 L42,1 L43,1 L44,1 L45,1 L46,1 L47,1 L48,1 L49,1 L50,1 L51,1 L52,1 L53,1 L54,1 L55,1 L56,1 L57,1 L58,1 L59,1 L60,1 L61,1 L62,1 L63,1 L64,1 L65,1 L66,1 L67,1 L68,1 L69,1 L70,1 L71,1 L72,1 L73,1 L74,1 L75,1 L76,1 L77,1 L78,1 L79,1 L80,1 L81,1 L82,1 L83,1 L84,1 L85,1 L86,1 L87,1 L88,1 L89,1 L90,3 L91,3 L92,3 L93,3 L94,3 L95,3 L96,18 L97,19 L98,20 L99,20 L100,27 L101,27 L102,27 L103,27 L104,27 L105,27 L106,27 L107,27 L108,27 L109,27 L110,27 L111,27 L112,28 L113,30 L114,33 L115,36 L116,40 L117,41 L118,44 L119,47 L120,49 L121,49 L122,49 L123,49 L124,49 L125,49 L126,49 L127,49 L128,49 L129,49 L130,49 L131,49 L132,49 L133,49 L134,49 L135,49 L136,50 L137,53 L138,57 L139,60 L140,61 L141,64 L142,67 L143,72 L144,73 L145,73 L146,73 L147,73 L148,73 L149,73 L150,73 L151,73 L152,73 L153,73 L154,73 L155,73 L156,73 L157,73 L158,73 L159,73 L160,74 L161,79 L162,80 L163,83 L164,84 L165,84 L166,86 L167,86 L168,86 L169,86 L170,86 L171,86 L172,86 L173,86 L174,86 L175,86 L176,86 L177,86 L178,86 L179,86 L180,86 L181,86 L182,86 L183,86 L184,86 L185,86 L186,87 L187,89 L188,89 L189,89 L190,90 L191,90 L192,90 L193,90 L194,90 L195,90 L196,90 L197,90 L198,90 L199,90 L200,90 L201,90 L202,90 L203,90 L204,90 L205,90 L206,90 L207,90 L208,90 L209,90 L210,90 L211,90 L212,90 L213,90 L214,90 L215,90 L216,90 L217,90 L218,90 L219,90 L220,90 L221,90 L222,90 L223,90 L224,90 L225,90 L226,90 L227,90 L228,90 L229,90 L230,90 L231,90 L232,90 L233,90 L234,90 L235,90 L236,90 L237,90 L238,90 L239,90 L240,90 L241,90 L242,90 L243,90 L244,90 L245,90 L246,90 L247,90 L248,90 L249,90 L250,90 L251,90 L252,90 L253,90 L254,90 L255,91 L256,91 L257,91 L258,92 L259,92 L260,92 L261,92 L262,95 L263,96 L264,98 L265,99 L266,99 L267,99 L268,99 L269,99 L270,99 L271,99 L272,99 L273,99 L274,99 L275,99 L276,99 L277,99 L278,99 L279,99 L280,99 L281,99 L282,100 L283,101 L284,101 L285,102 L286,103 L287,106 L288,107 L289,108 L290,108 L291,108 L292,108 L293,108 L294,108 L295,108 L296,108 L297,108 L298,108 L299,108 L300,108 L301,108 L302,108 L303,108 L304,109 L305,111 L306,115 L307,117 L308,117 L309,117 L310,117 L311,119 L312,122 L313,124 L314,124 L315,124 L316,124 L317,124 L318,124 L319,124 L320,124 L321,124 L322,124 L323,124 L324,124 L325,124 L326,124 L327,124 L328,124 L329,125 L330,125 L331,126 L332,127 L333,127 L334,128 L335,128 L336,128 L337,128 L338,128 L339,128 L340,128 L341,128 L342,128 L343,128 L344,128 L345,128 L346,128 L347,128 L348,128 L349,128 L350,128 L351,128 L352,128 L353,128 L354,128 L355,128 L356,128 L357,129 L358,129 L359,129 L360,129 L361,129 L362,129 L363,129 L364,129 L365,129 L366,129 L367,129 L368,129 L369,129 L370,129 L371,129 L372,129 L373,129 L374,129 L375,129 L376,129 L377,129 L378,129 L379,129 L380,129 L381,129 L382,129 L383,129 L384,129 L385,129 L386,129 L387,129 L388,129 L389,129 L390,129 L391,129 L392,129 L393,129 L394,129 L395,129 L396,129 L397,129 L398,129 L399,129 L400,129 L401,129 L402,129 L403,129 L404,129 L405,129 L406,129 L407,129 L408,129 L409,129 L410,129 L411,129 L412,129 L413,129 L414,129 L415,129 L416,129 L417,129 L418,129 L419,129 L420,129 L421,129 L422,129 L423,130 L424,130 L425,130 L426,130 L427,130 L428,130 L429,130 L430,134 L431,134 L432,134 L433,134 L434,134 L435,134 L436,134 L437,134 L438,134 L439,134 L440,134 L441,134 L442,134 L443,134 L444,134 L445,134 L446,134 L447,134 L448,134 L449,136 L450,136 L451,136 L452,136 L453,136 L454,136 L455,136 L456,136 L457,136 L458,136 L459,136 L460,136 L461,136 L462,136 L463,136 L464,136 L465,136 L466,136 L467,136 L468,136 L469,136 L470,136 L471,136 L472,136 L473,136 L474,137 L475,138 L476,138 L477,138 L478,138 L479,138 L480,138 L481,139 L482,139 L483,139 L484,139 L485,139 L486,139 L487,139 L488,139 L489,139 L490,139 L491,139 L492,139 L493,139 L494,139 L495,139 L496,139 L497,140 L498,142 L499,142 L500,142 L501,142 L502,142 L503,143 L504,143 L505,143 L506,143 L507,143 L508,143 L509,143 L510,143 L511,143 L512,143 L513,143 L514,143 L515,143 L516,143 L517,143 L518,143 L519,143 L520,143 L521,143 L522,143 L523,143 L524,143 L525,143 L526,143 L527,143 L528,143 L529,143 L530,143 L531,143 L532,143 L533,143 L534,143 L535,143 L536,143 L537,143 L538,143 L539,143 L540,143 L541,143 L542,143 L543,143 L544,143 L545,143 L546,143 L547,143 L548,143 L549,143 L550,143 L551,143 L552,143 L553,143 L554,143 L555,143 L556,143 L557,143 L558,143 L559,143 L560,143 L561,143 L562,143 L563,143 L564,143 L565,143 L566,143 L567,143 L568,143 L569,143 L570,143 L571,143 L572,143 L573,143 L574,143 L575,143 L576,143 L577,143 L578,143 L579,143 L580,143 L581,143 L582,143 L583,143 L584,143 L585,143 L586,143 L587,143 L588,143 L589,143 L590,143 L591,143 L592,143 L593,143 L594,144 L595,144 L596,144 L597,144 L598,145 L599,145 L600,145 L601,145 L602,145 L603,145 L604,145 L605,145 L606,145 L607,145 L608,145 L609,145 L610,145 L611,145 L612,145 L613,145 L614,145 L615,145 L616,145 L617,145 L618,146 L619,146 L620,146 L621,146 L622,146 L623,147 L624,147 L625,147 L626,147 L627,147 L628,147 L629,147 L630,147 L631,147 L632,147 L633,147 L634,147 L635,147 L636,147 L637,147 L638,147 L639,147 L640,147 L641,147 L642,147 L643,148 L644,148 L645,148 L646,148 L647,149 L648,150 L649,151 L650,152 L651,152 L652,152 L653,152 L654,152 L655,152 L656,152 L657,152 L658,152 L659,152 L660,152 L661,152 L662,152 L663,152 L664,152 L665,153 L666,153 L667,153 L668,153 L669,153 L670,153 L671,153 L672,153 L673,153 L674,153 L675,153 L676,153 L677,153 L678,153 L679,153 L680,153 L681,153 L682,153 L683,153 L684,153 L685,153 L686,153 L687,153 L688,153 L689,153 L690,153 L691,153 L692,153 L693,153 L694,153 L695,153 L696,153 L697,153 L698,153 L699,153 L700,153 L701,153 L702,153 L703,153 L704,153 L705,153 L706,153 L707,153 L708,153 L709,153 L710,153 L711,153 L712,153 L713,153 L714,153 L715,153 L716,153 L717,153 L718,153 L719,153 L720,153 L721,153 L722,153 L723,153 L724,153 L725,153 L726,153 L727,153 L728,153 L729,153 L730,153 L731,153 L732,153 L733,153 L734,153 L735,153 L736,153 L737,153 L738,153 L739,153 L740,153 L741,153 L742,153 L743,153 L744,153 L745,153 L746,153 L747,153 L748,153 L749,153 L750,153 L751,153 L752,153 L753,153 L754,153 L755,153 L756,153 L757,153 L758,153 L759,153 L760,153 L761,153 L762,153 L763,153 L764,153 L765,153 L766,155 L767,155 L768,155 L769,155 L770,155 L771,155 L772,155 L773,155 L774,155 L775,155 L776,155 L777,155 L778,155 L779,155 L780,155 L781,155 L782,155 L783,155 L784,155 L785,155 L786,155 L787,155 L788,156 L789,156 L790,156 L791,156 L792,156 L793,156 L794,156 L795,156 L796,156 L797,156 L798,156 L799,156 L800,156 L801,156 L802,156 L803,156 L804,156 L805,156 L806,156 L807,156 L808,156 L809,156 L810,156 L811,156 L812,156 L813,156 L814,156 L815,156 L816,156 L817,156 L818,156 L819,156 L820,156 L821,156 L822,156 L823,156 L824,156 L825,156 L826,156 L827,156 L828,156 L829,156 L830,156 L831,156 L832,156 L833,156 L834,156 L835,158 L836,158 L837,158 L838,158 L839,158 L840,158 L841,158 L842,158 L843,158 L844,158 L845,158 L846,158 L847,158 L848,158 L849,158 L850,158 L851,158 L852,158 L853,158 L854,158 L855,158 L856,158 L857,158 L858,158 L859,158 L860,158 L861,158 L862,158 L863,158 L864,158 L865,158 L866,158 L867,158 L868,158 L869,158 L870,158 L871,158 L872,158 L873,158 L874,158 L875,158 L876,158 L877,158 L878,158 L879,158 L880,158 L881,158 L882,158 L883,158 L884,158 L885,158 L886,158 L887,158 L888,158 L889,158 L890,158 L891,158 L892,158 L893,158 L894,158 L895,158 L896,158 L897,158 L898,158 L899,158 L900,158 L901,158 L902,158 L903,158 L904,158 L905,158 L906,158 L907,158 L908,158 L909,158 L910,158 L911,158 L912,158 L913,158 L914,158 L915,158 L916,158 L917,158 L918,158 L919,158 L920,158 L921,158 L922,158 L923,158 L924,158 L925,158 L926,158 L927,158 L928,158 L929,158 L930,158 L931,158 L932,158 L933,158 L934,161 l0,-161 L0,0" fill="#909090" stroke="#909090"/>
<path d="M0,0 L0,1 L1,1 L2,1 L3,1 L4,1 L5,1 L6,1 L7,1 L8,1 L9,1 L10,1 L11,1 L12,1 L13,1 L14,1 L15,1 L16,1 L17,1 L18,1 L19,1 L20,1 L21,1 L22,1 L23,1 L24,1 L25,1 L26,1 L27,1 L28,1 L29,1 L30,1 L31,1 L32,1 L33,1 L34,1 L35,1 L36,1 L37,1 L38,1 L39,1 L40,1 L41,1 L42,1 L43,1 L44,1 L45,1 L46,1 L47,1 L48,1 L49,1 L50,1 L51,1 L52,1 L53,1 L54,1 L55,1 L56,1 L57,1 L58,1 L59,1 L60,1 L61,1 L62,1 L63,1 L64,1 L65,1 L66,1 L67,1 L68,1 L69,1 L70,1 L71,1 L72,1 L73,1 L74,1 L75,1 L76,1 L77,1 L78,1 L79,1 L80,1 L81,1 L82,1 L83,1 L84,1 L85,1 L86,1 L87,1 L88,1 L89,1 L90,3 L91,3 L92,3 L93,3 L94,3 L95,3 L96,17 L97,18 L98,19 L99,19 L100,26 L101,26 L102,26 L103,26 L104,26 L105,26 L106,26 L107,26 L108,26 L109,26 L110,26 L111,26 L112,27 L113,29 L114,32 L115,35 L116,39 L117,40 L118,43 L119,46 L120,48 L121,48 L122,48 L123,48 L124,48 L125,48 L126,48 L127,48 L128,48 L129,48 L130,48 L131,48 L132,48 L133,48 L134,48 L135,48 L136,49 L137,52 L138,55 L139,58 L140,59 L141,62 L142,65 L143,70 L144,71 L145,71 L146,71 L147,71 L148,71 L149,71 L150,71 L151,71 L152,71 L153,71 L154,71 L155,71 L156,71 L157,71 L158,71 L159,71 L160,72 L161,77 L162,78 L163,81 L164,82 L165,82 L166,84 L167,84 L168,84 L169,84 L170,84 L171,84 L172,84 L173,84 L174,84 L175,84 L176,84 L177,84 L178,84 L179,84 L180,84 L181,84 L182,84 L183,84 L184,84 L185,84 L186,85 L187,87 L188,87 L189,87 L190,88 L191,88 L192,88 L193,88 L194,88 L195,88 L196,88 L197,88 L198,88 L199,88 L200,88 L201,88 L202,88 L203,88 L204,88 L205,88 L206,88 L207,88 L208,88 L209,88 L210,88 L211,88 L212,88 L213,88 L214,88 L215,88 L216,88 L217,88 L218,88 L219,88 L220,88 L221,88 L222,88 L223,88 L224,88 L225,88 L226,88 L227,88 L228,88 L229,88 L230,88 L231,88 L232,88 L233,88 L234,88 L235,88 L236,88 L237,88 L238,88 L239,88 L240,88 L241,88 L242,88 L243,88 L244,88 L245,88 L246,88 L247,88 L248,88 L249,88 L250,88 L251,88 L252,88 L253,88 L254,88 L255,89 L256,89 L257,89 L258,90 L259,90 L260,90 L261,90 L262,93 L263,94 L264,96 L265,97 L266,97 L267,97 L268,97 L269,97 L270,97 L271,97 L272,97 L273,97 L274,97 L275,97 L276,97 L277,97 L278,97 L279,97 L280,97 L281,97 L282,98 L283,99 L284,99 L285,100 L286,101 L287,104 L288,105 L289,106 L290,106 L291,106 L292,106 L293,106 L294,106 L295,106 L296,106 L297,106 L298,106 L299,106 L300,106 L301,106 L302,106 L303,106 L304,107 L305,109 L306,113 L307,115 L308,115 L309,115 L310,115 L311,117 L312,120 L313,122 L314,122 L315,122 L316,122 L317,122 L318,122 L319,122 L320,122 L321,122 L322,122 L323,122 L324,122 L325,122 L326,122 L327,122 L328,122 L329,123 L330,123 L331,124 L332,125 L333,125 L334,126 L335,126 L336,126 L337,126 L338,126 L339,126 L340,126 L341,126 L342,126 L343,126 L344,126 L345,126 L346,126 L347,126 L348,126 L349,126 L350,126 L351,126 L352,126 L353,126 L354,126 L355,126 L356,126 L357,127 L358,127 L359,127 L360,127 L361,127 L362,127 L363,127 L364,127 L365,127 L366,127 L367,127 L368,127 L369,127 L370,127 L371,127 L372,127 L373,127 L374,127 L375,127 L376,127 L377,127 L378,127 L379,127 L380,127 L381,127 L382,127 L383,127 L384,127 L385,127 L386,127 L387,127 L388,127 L389,127 L390,127 L391,127 L392,127 L393,127 L394,127 L395,127 L396,127 L397,127 L398,127 L399,127 L400,127 L401,127 L402,127 L403,127 L404,127 L405,127 L406,127 L407,127 L408,127 L409,127 L410,127 L411,127 L412,127 L413,127 L414,127 L415,127 L416,127 L417,127 L418,127 L419,127 L420,127 L421,127 L422,127 L423,128 L424,128 L425,128 L426,128 L427,128 L428,128 L429,128 L430,132 L431,132 L432,132 L433,132 L434,132 L435,132 L436,132 L437,132 L438,132 L439,132 L440,132 L441,132 L442,132 L443,132 L444,132 L445,132 L446,132 L447,132 L448,132 L449,134 L450,134 L451,134 L452,134 L453,134 L454,134 L455,134 L456,134 L457,134 L458,134 L459,134 L460,134 L461,134 L462,134 L463,134 L464,134 L465,134 L466,134 L467,134 L468,134 L469,134 L470,134 L471,134 L472,134 L473,134 L474,135 L475,136 L476,136 L477,136 L478,136 L479,136 L480,136 L481,137 L482,137 L483,137 L484,137 L485,137 L486,137 L487,137 L488,137 L489,137 L490,137 L491,137 L492,137 L493,137 L494,137 L495,137 L496,137 L497,138 L498,140 L499,140 L500,140 L501,140 L502,140 L503,141 L504,141 L505,141 L506,141 L507,141 L508,141 L509,141 L510,141 L511,141 L512,141 L513,141 L514,141 L515,141 L516,141 L517,141 L518,141 L519,141 L520,141 L521,141 L522,141 L523,141 L524,141 L525,141 L526,141 L527,141 L528,141 L529,141 L530,141 L531,141 L532,141 L533,141 L534,141 L535,141 L536,141 L537,141 L538,141 L539,141 L540,141 L541,141 L542,141 L543,141 L544,141 L545,141 L546,141 L547,141 L548,141 L549,141 L550,141 L551,141 L552,141 L553,141 L554,141 L555,141 L556,141 L557,141 L558,141 L559,141 L560,141 L561,141 L562,141 L563,141 L564,141 L565,141 L566,141 L567,141 L568,141 L569,141 L570,141 L571,141 L572,141 L573,141 L574,141 L575,141 L576,141 L577,141 L578,141 L579,141 L580,141 L581,141 L582,141 L583,141 L584,141 L585,141 L586,141 L587,141 L588,141 L589,141 L590,141 L591,141 L592,141 L593,141 L594,142 L595,142 L596,142 L597,142 L598,143 L599,143 L600,143 L601,143 L602,143 L603,143 L604,143 L605,143 L606,143 L607,143 L608,143 L609,143 L610,143 L611,143 L612,143 L613,143 L614,143 L615,143 L616,143 L617,143 L618,144 L619,144 L620,144 L621,144 L622,144 L623,145 L624,145 L625,145 L626,145 L627,145 L628,145 L629,145 L630,145 L631,145 L632,145 L633,145 L634,145 L635,145 L636,145 L637,145 L638,145 L639,145 L640,145 L641,145 L642,145 L643,146 L644,146 L645,146 L646,146 L647,147 L648,148 L649,149 L650,150 L651,150 L652,150 L653,150 L654,150 L655,150 L656,150 L657,150 L658,150 L659,150 L660,150 L661,150 L662,150 L663,150 L664,150 L665,151 L666,151 L667,151 L668,151 L669,151 L670,151 L671,151 L672,151 L673,151 L674,151 L675,151 L676,151 L677,151 L678,151 L679,151 L680,151 L681,151 L682,151 L683,151 L684,151 L685,151 L686,151 L687,151 L688,151 L689,151 L690,151 L691,151 L692,151 L693,151 L694,151 L695,151 L696,151 L697,151 L698,151 L699,151 L700,151 L701,151 L702,151 L703,151 L704,151 L705,151 L706,151 L707,151 L708,151 L709,151 L710,151 L711,151 L712,151 L713,151 L714,151 L715,151 L716,151 L717,151 L718,151 L719,151 L720,151 L721,151 L722,151 L723,151 L724,151 L725,151 L726,151 L727,151 L728,151 L729,151 L730,151 L731,151 L732,151 L733,151 L734,151 L735,151 L736,151 L737,151 L738,151 L739,151 L740,151 L741,151 L742,151 L743,151 L744,151 L745,151 L746,151 L747,151 L748,151 L749,151 L750,151 L751,151 L752,151 L753,151 L754,151 L755,151 L756,151 L757,151 L758,151 L759,151 L760,151 L761,151 L762,151 L763,151 L764,151 L765,151 L766,153 L767,153 L768,153 L769,153 L770,153 L771,153 L772,153 L773,153 L774,153 L775,153 L776,153 L777,153 L778,153 L779,153 L780,153 L781,153 L782,153 L783,153 L784,153 L785,153 L786,153 L787,153 L788,154 L789,154 L790,154 L791,154 L792,154 L793,154 L794,154 L795,154 L796,154 L797,154 L798,154 L799,154 L800,154 L801,154 L802,154 L803,154 L804,154 L805,154 L806,154 L807,154 L808,154 L809,154 L810,154 L811,154 L812,154 L813,154 L814,154 L815,154 L816,154 L817,154 L818,154 L819,154 L820,154 L821,154 L822,154 L823,154 L824,154 L825,154 L826,154 L827,154 L828,154 L829,154 L830,154 L831,154 L832,154 L833,154 L834,154 L835,156 L836,156 L837,156 L838,156 L839,156 L840,156 L841,156 L842,156 L843,156 L844,156 L845,156 L846,156 L847,156 L848,156 L849,156 L850,156 L851,156 L852,156 L853,156 L854,156 L855,156 L856,156 L857,156 L858,156 L859,156 L860,156 L861,156 L862,156 L863,156 L864,156 L865,156 L866,156 L867,156 L868,156 L869,156 L870,156 L871,156 L872,156 L873,156 L874,156 L875,156 L876,156 L877,156 L878,156 L879,156 L880,156 L881,156 L882,156 L883,156 L884,156 L885,156 L886,156 L887,156 L888,156 L889,156 L890,156 L891,156 L892,156 L893,156 L894,156 L895,156 L896,156 L897,156 L898,156 L899,156 L900,156 L901,156 L902,156 L903,156 L904,156 L905,156 L906,156 L907,156 L908,156 L909,156 L910,156 L911,156 L912,156 L913,156 L914,156 L915,156 L916,156 L917,156 L918,156 L919,156 L920,156 L921,156 L922,156 L923,156 L924,156 L925,156 L926,156 L927,156 L928,156 L929,156 L930,156 L931,156 L932,156 L933,156 L934,159 l0,-159 L0,0" fill="#78b82a" stroke="#78b82a"/>
<path d="M0,0 L0,1 L1,1 L2,1 L3,1 L4,1 L5,1 L6,1 L7,1 L8,1 L9,1 L10,1 L11,1 L12,1 L13,1 L14,1 L15,1 L16,1 L17,1 L18,1 L19,1 L20,1 L21,1 L22,1 L23,1 L24,1 L25,1 L26,1 L27,1 L28,1 L29,1 L30,1 L31,1 L32,1 L33,1 L34,1 L35,1 L36,1 L37,1 L38,1 L39,1 L40,1 L41,1 L42,1 L43,1 L44,1 L45,1 L46,1 L47,1 L48,1 L49,1 L50,1 L51,1 L52,1 L53,1 L54,1 L55,1 L56,1 L57,1 L58,1 L59,1 L60,1 L61,1 L62,1 L63,1 L64,1 L65,1 L66,1 L67,1 L68,1 L69,1 L70,1 L71,1 L72,1 L73,1 L74,1 L75,1 L76,1 L77,1 L78,1 L79,1 L80,1 L81,1 L82,1 L83,1 L84,1 L85,1 L86,1 L87,1 L88,1 L89,1 L90,3 L91,3 L92,3 L93,3 L94,3 L95,3 L96,15 L97,16 L98,17 L99,17 L100,24 L101,24 L102,24 L103,24 L104,24 L105,24 L106,24 L107,24 L108,24 L109,24 L110,24 L111,24 L112,25 L113,27 L114,30 L115,33 L116,37 L117,38 L118,41 L119,44 L120,46 L121,46 L122,46 L123,46 L124,46 L125,46 L126,46 L127,46 L128,46 L129,46 L130,46 L131,46 L132,46 L133,46 L134,46 L135,46 L136,47 L137,50 L138,53 L139,56 L140,57 L141,60 L142,62 L143,67 L144,68 L145,68 L146,68 L147,68 L148,68 L149,68 L150,68 L151,68 L152,68 L153,68 L154,68 L155,68 L156,68 L157,68 L158,68 L159,68 L160,69 L161,74 L162,75 L163,78 L164,79 L165,79 L166,81 L167,81 L168,81 L169,81 L170,81 L171,81 L172,81 L173,81 L174,81 L175,81 L176,81 L177,81 L178,81 L179,81 L180,81 L181,81 L182,81 L183,81 L184,81 L185,81 L186,82 L187,84 L188,84 L189,84 L190,85 L191,85 L192,85 L193,85 L194,85 L195,85 L196,85 L197,85 L198,85 L199,85 L200,85 L201,85 L202,85 L203,85 L204,85 L205,85 L206,85 L207,85 L208,85 L209,85 L210,85 L211,85 L212,85 L213,85 L214,85 L215,85 L216,85 L217,85 L218,85 L219,85 L220,85 L221,85 L222,85 L223,85 L224,85 L225,85 L226,85 L227,85 L228,85 L229,85 L230,85 L231,85 L232,85 L233,85 L234,85 L235,85 L236,85 L237,85 L238,85 L239,85 L240,85 L241,85 L242,85 L243,85 L244,85 L245,85 L246,85 L247,85 L248,85 L249,85 L250,85 L251,85 L252,85 L253,85 L254,85 L255,86 L256,86 L257,86 L258,87 L259,87 L260,87 L261,87 L262,90 L263,91 L264,93 L265,94 L266,94 L267,94 L268,94 L269,94 L270,94 L271,94 L272,94 L273,94 L274,94 L275,94 L276,94 L277,94 L278,94 L279,94 L280,94 L281,94 L282,95 L283,96 L284,96 L285,97 L286,98 L287,101 L288,102 L289,103 L290,103 L291,103 L292,103 L293,103 L294,103 L295,103 L296,103 L297,103 L298,103 L299,103 L300,103 L301,103 L302,103 L303,103 L304,104 L305,106 L306,110 L307,112 L308,112 L309,112 L310,112 L311,114 L312,117 L313,119 L314,119 L315,119 L316,119 L317,119 L318,119 L319,119 L320,119 L321,119 L322,119 L323,119 L324,119 L325,119 L326,119 L327,119 L328,119 L329,120 L330,120 L331,121 L332,122 L333,122 L334,123 L335,123 L336,123 L337,123 L338,123 L339,123 L340,123 L341,123 L342,123 L343,123 L344,123 L345,123 L346,123 L347,123 L348,123 L349,123 L350,123 L351,123 L352,123 L353,123 L354,123 L355,123 L356,123 L357,124 L358,124 L359,124 L360,124 L361,124 L362,124 L363,124 L364,124 L365,124 L366,124 L367,124 L368,124 L369,124 L370,124 L371,124 L372,124 L373,124 L374,124 L375,124 L376,124 L377,124 L378,124 L379,124 L380,124 L381,124 L382,124 L383,124 L384,124 L385,124 L386,124 L387,124 L388,124 L389,124 L390,124 L391,124 L392,124 L393,124 L394,124 L395,124 L396,124 L397,124 L398,124 L399,124 L400,124 L401,124 L402,124 L403,124 L404,124 L405,124 L406,124 L407,124 L408,124 L409,124 L410,124 L411,124 L412,124 L413,124 L414,124 L415,124 L416,124 L417,124 L418,124 L419,124 L420,124 L421,124 L422,124 L423,125 L424,125 L425,125 L426,125 L427,125 L428,125 L429,125 L430,129 L431,129 L432,129 L433,129 L434,129 L435,129 L436,129 L437,129 L438,129 L439,129 L440,129 L441,129 L442,129 L443,129 L444,129 L445,129 L446,129 L447,129 L448,129 L449,131 L450,131 L451,131 L452,131 L453,131 L454,131 L455,131 L456,131 L457,131 L458,131 L459,131 L460,131 L461,131 L462,131 L463,131 L464,131 L465,131 L466,131 L467,131 L468,131 L469,131 L470,131 L471,131 L472,131 L473,131 L474,132 L475,133 L476,133 L477,133 L478,133 L479,133 L480,133 L481,134 L482,134 L483,134 L484,134 L485,134 L486,134 L487,134 L488,134 L489,134 L490,134 L491,134 L492,134 L493,134 L494,134 L495,134 L496,134 L497,135 L498,137 L499,137 L500,137 L501,137 L502,137 L503,138 L504,138 L505,138 L506,138 L507,138 L508,138 L509,138 L510,138 L511,138 L512,138 L513,138 L514,138 L515,138 L516,138 L517,138 L518,138 L519,138 L520,138 L521,138 L522,138 L523,138 L524,138 L525,138 L526,138 L527,138 L528,138 L529,138 L530,138 L531,138 L532,138 L533,138 L534,138 L535,138 L536,138 L537,138 L538,138 L539,138 L540,138 L541,138 L542,138 L543,138 L544,138 L545,138 L546,138 L547,138 L548,138 L549,138 L550,138 L551,138 L552,138 L553,138 L554,138 L555,138 L556,138 L557,138 L558,138 L559,138 L560,138 L561,138 L562,138 L563,138 L564,138 L565,138 L566,138 L567,138 L568,138 L569,138 L570,138 L571,138 L572,138 L573,138 L574,138 L575,138 L576,138 L577,138 L578,138 L579,138 L580,138 L581,138 L582,138 L583,138 L584,138 L585,138 L586,138 L587,138 L588,138 L589,138 L590,138 L591,138 L592,138 L593,138 L594,139 L595,139 L596,139 L597,139 L598,140 L599,140 L600,140 L601,140 L602,140 L603,140 L604,140 L605,140 L606,140 L607,140 L608,140 L609,140 L610,140 L611,140 L612,140 L613,140 L614,140 L615,140 L616,140 L617,140 L618,141 L619,141 L620,141 L621,141 L622,141 L623,142 L624,142 L625,142 L626,142 L627,142 L628,142 L629,142 L630,142 L631,142 L632,142 L633,142 L634,142 L635,142 L636,142 L637,142 L638,142 L639,142 L640,142 L641,142 L642,142 L643,143 L644,143 L645,143 L646,143 L647,144 L648,145 L649,146 L650,147 L651,147 L652,147 L653,147 L654,147 L655,147 L656,147 L657,147 L658,147 L659,147 L660,147 L661,147 L662,147 L663,147 L664,147 L665,148 L666,148 L667,148 L668,148 L669,148 L670,148 L671,148 L672,148 L673,148 L674,148 L675,148 L676,148 L677,148 L678,148 L679,148 L680,148 L681,148 L682,148 L683,148 L684,148 L685,148 L686,148 L687,148 L688,148 L689,148 L690,148 L691,148 L692,148 L693,148 L694,148 L695,148 L696,148 L697,148 L698,148 L699,148 L700,148 L701,148 L702,148 L703,148 L704,148 L705,148 L706,148 L707,148 L708,148 L709,148 L710,148 L711,148 L712,148 L713,148 L714,148 L715,148 L716,148 L717,148 L718,148 L719,148 L720,148 L721,148 L722,148 L723,148 L724,148 L725,148 L726,148 L727,148 L728,148 L729,148 L730,148 L731,148 L732,148 L733,148 L734,148 L735,148 L736,148 L737,148 L738,148 L739,148 L740,148 L741,148 L742,148 L743,148 L744,148 L745,148 L746,148 L747,148 L748,148 L749,148 L750,148 L751,148 L752,148 L753,148 L754,148 L755,148 L756,148 L757,148 L758,148 L759,148 L760,148 L761,148 L762,148 L763,148 L764,148 L765,148 L766,150 L767,150 L768,150 L769,150 L770,150 L771,150 L772,150 L773,150 L774,150 L775,150 L776,150 L777,150 L778,150 L779,150 L780,150 L781,150 L782,150 L783,150 L784,150 L785,150 L786,150 L787,150 L788,151 L789,151 L790,151 L791,151 L792,151 L793,151 L794,151 L795,151 L796,151 L797,151 L798,151 L799,151 L800,151 L801,151 L802,151 L803,151 L804,151 L805,151 L806,151 L807,151 L808,151 L809,151 L810,151 L811,151 L812,151 L813,151 L814,151 L815,151 L816,151 L817,151 L818,151 L819,151 L820,151 L821,151 L822,151 L823,151 L824,151 L825,151 L826,151 L827,151 L828,151 L829,151 L830,151 L831,151 L832,151 L833,151 L834,151 L835,153 L836,153 L837,153 L838,153 L839,153 L840,153 L841,153 L842,153 L843,153 L844,153 L845,153 L846,153 L847,153 L848,153 L849,153 L850,153 L851,153 L852,153 L853,153 L854,153 L855,153 L856,153 L857,153 L858,153 L859,153 L860,153 L861,153 L862,153 L863,153 L864,153 L865,153 L866,153 L867,153 L868,153 L869,153 L870,153 L871,153 L872,153 L873,153 L874,153 L875,153 L876,153 L877,153 L878,153 L879,153 L880,153 L881,153 L882,153 L883,153 L884,153 L885,153 L886,153 L887,153 L888,153 L889,153 L890,153 L891,153 L892,153 L893,153 L894,153 L895,153 L896,153 L897,153 L898,153 L899,153 L900,153 L901,153 L902,153 L903,153 L904,153 L905,153 L906,153 L907,153 L908,153 L909,153 L910,153 L911,153 L912,153 L913,153 L914,153 L915,153 L916,153 L917,153 L918,153 L919,153 L920,153 L921,153 L922,153 L923,153 L924,153 L925,153 L926,153 L927,153 L928,153 L929,153 L930,153 L931,153 L932,153 L933,153 L934,156 l0,-156 L0,0" fill="#348837" stroke="#348837"/>
<path d="M0,0 L0,1 L1,1 L2,1 L3,1 L4,1 L5,1 L6,1 L7,1 L8,1 L9,1 L10,1 L11,1 L12,1 L13,1 L14,1 L15,1 L16,1 L17,1 L18,1 L19,1 L20,1 L21,1 L22,1 L23,1 L24,1 L25,1 L26,1 L27,1 L28,1 L29,1 L30,1 L31,1 L32,1 L33,1 L34,1 L35,1 L36,1 L37,1 L38,1 L39,1 L40,1 L41,1 L42,1 L43,1 L44,1 L45,1 L46,1 L47,1 L48,1 L49,1 L50,1 L51,1 L52,1 L53,1 L54,1 L55,1 L56,1 L57,1 L58,1 L59,1 L60,1 L61,1 L62,1 L63,1 L64,1 L65,1 L66,1 L67,1 L68,1 L69,1 L70,1 L71,1 L72,1 L73,1 L74,1 L75,1 L76,1 L77,1 L78,1 L79,1 L80,1 L81,1 L82,1 L83,1 L84,1 L85,1 L86,1 L87,1 L88,1 L89,1 L90,3 L91,3 L92,3 L93,3 L94,3 L95,3 L96,15 L97,16 L98,17 L99,17 L100,24 L101,24 L102,24 L103,24 L104,24 L105,24 L106,24 L107,24 L108,24 L109,24 L110,24 L111,24 L112,25 L113,27 L114,30 L115,33 L116,37 L117,38 L118,41 L119,44 L120,46 L121,46 L122,46 L123,46 L124,46 L125,46 L126,46 L127,46 L128,46 L129,46 L130,46 L131,46 L132,46 L133,46 L134,46 L135,46 L136,47 L137,50 L138,53 L139,56 L140,57 L141,60 L142,62 L143,63 L144,64 L145,64 L146,64 L147,64 L148,64 L149,64 L150,64 L151,64 L152,64 L153,64 L154,64 L155,64 L156,64 L157,64 L158,64 L159,64 L160,65 L161,70 L162,71 L163,74 L164,75 L165,75 L166,77 L167,77 L168,77 L169,77 L170,77 L171,77 L172,77 L173,77 L174,77 L175,77 L176,77 L177,77 L178,77 L179,77 L180,77 L181,77 L182,77 L183,77 L184,77 L185,77 L186,78 L187,80 L188,80 L189,80 L190,81 L191,81 L192,81 L193,81 L194,81 L195,81 L196,81 L197,81 L198,81 L199,81 L200,81 L201,81 L202,81 L203,81 L204,81 L205,81 L206,81 L207,81 L208,81 L209,81 L210,81 L211,81 L212,81 L213,81 L214,81 L215,81 L216,81 L217,81 L218,81 L219,81 L220,81 L221,81 L222,81 L223,81 L224,81 L225,81 L226,81 L227,81 L228,81 L229,81 L230,81 L231,81 L232,81 L233,81 L234,81 L235,81 L236,81 L237,81 L238,81 L239,81 L240,81 L241,81 L242,81 L243,81 L244,81 L245,81 L246,81 L247,81 L248,81 L249,81 L250,81 L251,81 L252,81 L253,81 L254,81 L255,82 L256,82 L257,82 L258,83 L259,83 L260,83 L261,83 L262,86 L263,87 L264,89 L265,90 L266,90 L267,90 L268,90 L269,90 L270,90 L271,90 L272,90 L273,90 L274,90 L275,90 L276,90 L277,90 L278,90 L279,90 L280,90 L281,90 L282,91 L283,92 L284,92 L285,93 L286,94 L287,97 L288,98 L289,99 L290,99 L291,99 L292,99 L293,99 L294,99 L295,99 L296,99 L297,99 L298,99 L299,99 L300,99 L301,99 L302,99 L303,99 L304,100 L305,102 L306,106 L307,108 L308,108 L309,108 L310,108 L311,110 L312,113 L313,115 L314,115 L315,115 L316,115 L317,115 L318,115 L319,115 L320,115 L321,115 L322,115 L323,115 L324,115 L325,115 L326,115 L327,115 L328,115 L329,116 L330,116 L331,117 L332,118 L333,118 L334,119 L335,119 L336,119 L337,119 L338,119 L339,119 L340,119 L341,119 L342,119 L343,119 L344,119 L345,119 L346,119 L347,119 L348,119 L349,119 L350,119 L351,119 L352,119 L353,119 L354,119 L355,119 L356,119 L357,120 L358,120 L359,120 L360,120 L361,120 L362,120 L363,120 L364,120 L365,120 L366,120 L367,120 L368,120 L369,120 L370,120 L371,120 L372,120 L373,120 L374,120 L375,120 L376,120 L377,120 L378,120 L379,120 L380,120 L381,120 L382,120 L383,120 L384,120 L385,120 L386,120 L387,120 L388,120 L389,120 L390,120 L391,120 L392,120 L393,120 L394,120 L395,120 L396,120 L397,120 L398,120 L399,120 L400,120 L401,120 L402,120 L403,120 L404,120 L405,120 L406,120 L407,120 L408,120 L409,120 L410,120 L411,120 L412,120 L413,120 L414,120 L415,120 L416,120 L417,120 L418,120 L419,120 L420,120 L421,120 L422,120 L423,121 L424,121 L425,121 L426,121 L427,121 L428,121 L429,121 L430,125 L431,125 L432,125 L433,125 L434,125 L435,125 L436,125 L437,125 L438,125 L439,125 L440,125 L441,125 L442,125 L443,125 L444,125 L445,125 L446,125 L447,125 L448,125 L449,127 L450,127 L451,127 L452,127 L453,127 L454,127 L455,127 L456,127 L457,127 L458,127 L459,127 L460,127 L461,127 L462,127 L463,127 L464,127 L465,127 L466,127 L467,127 L468,127 L469,127 L470,127 L471,127 L472,127 L473,127 L474,128 L475,129 L476,129 L477,129 L478,129 L479,129 L480,129 L481,130 L482,130 L483,130 L484,130 L485,130 L486,130 L487,130 L488,130 L489,130 L490,130 L491,130 L492,130 L493,130 L494,130 L495,130 L496,130 L497,131 L498,133 L499,133 L500,133 L501,133 L502,133 L503,134 L504,134 L505,134 L506,134 L507,134 L508,134 L509,134 L510,134 L511,134 L512,134 L513,134 L514,134 L515,134 L516,134 L517,134 L518,134 L519,134 L520,134 L521,134 L522,134 L523,134 L524,134 L525,134 L526,134 L527,134 L528,134 L529,134 L530,134 L531,134 L532,134 L533,134 L534,134 L535,134 L536,134 L537,134 L538,134 L539,134 L540,134 L541,134 L542,134 L543,134 L544,134 L545,134 L546,134 L547,134 L548,134 L549,134 L550,134 L551,134 L552,134 L553,134 L554,134 L555,134 L556,134 L557,134 L558,134 L559,134 L560,134 L561,134 L562,134 L563,134 L564,134 L565,134 L566,134 L567,134 L568,134 L569,134 L570,134 L571,134 L572,134 L573,134 L574,134 L575,134 L576,134 L577,134 L578,134 L579,134 L580,134 L581,134 L582,134 L583,134 L584,134 L585,134 L586,134 L587,134 L588,134 L589,134 L590,134 L591,134 L592,134 L593,134 L594,135 L595,135 L596,135 L597,135 L598,136 L599,136 L600,136 L601,136 L602,136 L603,136 L604,136 L605,136 L606,136 L607,136 L608,136 L609,136 L610,136 L611,136 L612,136 L613,136 L614,136 L615,136 L616,136 L617,136 L618,137 L619,137 L620,137 L621,137 L622,137 L623,138 L624,138 L625,138 L626,138 L627,138 L628,138 L629,138 L630,138 L631,138 L632,138 L633,138 L634,138 L635,138 L636,138 L637,138 L638,138 L639,138 L640,138 L641,138 L642,138 L643,139 L644,139 L645,139 L646,139 L647,140 L648,141 L649,142 L650,143 L651,143 L652,143 L653,143 L654,143 L655,143 L656,143 L657,143 L658,143 L659,143 L660,143 L661,143 L662,143 L663,143 L664,143 L665,144 L666,144 L667,144 L668,144 L669,144 L670,144 L671,144 L672,144 L673,144 L674,144 L675,144 L676,144 L677,144 L678,144 L679,144 L680,144 L681,144 L682,144 L683,144 L684,144 L685,144 L686,144 L687,144 L688,144 L689,144 L690,144 L691,144 L692,144 L693,144 L694,144 L695,144 L696,144 L697,144 L698,144 L699,144 L700,144 L701,144 L702,144 L703,144 L704,144 L705,144 L706,144 L707,144 L708,144 L709,144 L710,144 L711,144 L712,144 L713,144 L714,144 L715,144 L716,144 L717,144 L718,144 L719,144 L720,144 L721,144 L722,144 L723,144 L724,144 L725,144 L726,144 L727,144 L728,144 L729,144 L730,144 L731,144 L732,144 L733,144 L734,144 L735,144 L736,144 L737,144 L738,144 L739,144 L740,144 L741,144 L742,144 L743,144 L744,144 L745,144 L746,144 L747,144 L748,144 L749,144 L750,144 L751,144 L752,144 L753,144 L754,144 L755,144 L756,144 L757,144 L758,144 L759,144 L760,144 L761,144 L762,144 L763,144 L764,144 L765,144 L766,146 L767,146 L768,146 L769,146 L770,146 L771,146 L772,146 L773,146 L774,146 L775,146 L776,146 L777,146 L778,146 L779,146 L780,146 L781,146 L782,146 L783,146 L784,146 L785,146 L786,146 L787,146 L788,147 L789,147 L790,147 L791,147 L792,147 L793,147 L794,147 L795,147 L796,147 L797,147 L798,147 L799,147 L800,147 L801,147 L802,147 L803,147 L804,147 L805,147 L806,147 L807,147 L808,147 L809,147 L810,147 L811,147 L812,147 L813,147 L814,147 L815,147 L816,147 L817,147 L818,147 L819,147 L820,147 L821,147 L822,147 L823,147 L824,147 L825,147 L826,147 L827,147 L828,147 L829,147 L830,147 L831,147 L832,147 L833,147 L834,147 L835,149 L836,149 L837,149 L838,149 L839,149 L840,149 L841,149 L842,149 L843,149 L844,149 L845,149 L846,149 L847,149 L848,149 L849,149 L850,149 L851,149 L852,149 L853,149 L854,149 L855,149 L856,149 L857,149 L858,149 L859,149 L860,149 L861,149 L862,149 L863,149 L864,149 L865,149 L866,149 L867,149 L868,149 L869,149 L870,149 L871,149 L872,149 L873,149 L874,149 L875,149 L876,149 L877,149 L878,149 L879,149 L880,149 L881,149 L882,149 L883,149 L884,149 L885,149 L886,149 L887,149 L888,149 L889,149 L890,149 L891,149 L892,149 L893,149 L894,149 L895,149 L896,149 L897,149 L898,149 L899,149 L900,149 L901,149 L902,149 L903,149 L904,149 L905,149 L906,149 L907,149 L908,149 L909,149 L910,149 L911,149 L912,149 L913,149 L914,149 L915,149 L916,149 L917,149 L918,149 L919,149 L920,149 L921,149 L922,149 L923,149 L924,149 L925,149 L926,149 L927,149 L928,149 L929,149 L930,149 L931,149 L932,149 L933,149 L934,152 l0,-152 L0,0" fill="#fff685" stroke="#fff685"/>
<path d="M0,0 L0,1 L1,1 L2,1 L3,1 L4,1 L5,1 L6,1 L7,1 L8,1 L9,1 L10,1 L11,1 L12,1 L13,1 L14,1 L15,1 L16,1 L17,1 L18,1 L19,1 L20,1 L21,1 L22,1 L23,1 L24,1 L25,1 L26,1 L27,1 L28,1 L29,1 L30,1 L31,1 L32,1 L33,1 L34,1 L35,1 L36,1 L37,1 L38,1 L39,1 L40,1 L41,1 L42,1 L43,1 L44,1 L45,1 L46,1 L47,1 L48,1 L49,1 L50,1 L51,1 L52,1 L53,1 L54,1 L55,1 L56,1 L57,1 L58,1 L59,1 L60,1 L61,1 L62,1 L63,1 L64,1 L65,1 L66,1 L67,1 L68,1 L69,1 L70,1 L71,1 L72,1 L73,1 L74,1 L75,1 L76,1 L77,1 L78,1 L79,1 L80,1 L81,1 L82,1 L83,1 L84,1 L85,1 L86,1 L87,1 L88,1 L89,1 L90,3 L91,3 L92,3 L93,3 L94,3 L95,3 L96,15 L97,16 L98,17 L99,17 L100,24 L101,24 L102,24 L103,24 L104,24 L105,24 L106,24 L107,24 L108,24 L109,24 L110,24 L111,24 L112,25 L113,26 L114,29 L115,32 L116,36 L117,36 L118,39 L119,42 L120,44 L121,44 L122,44 L123,44 L124,44 L125,44 L126,44 L127,44 L128,44 L129,44 L130,44 L131,44 L132,44 L133,44 L134,44 L135,44 L136,45 L137,47 L138,50 L139,53 L140,54 L141,57 L142,59 L143,60 L144,61 L145,61 L146,61 L147,61 L148,61 L149,61 L150,61 L151,61 L152,61 L153,61 L154,61 L155,61 L156,61 L157,61 L158,61 L159,61 L160,62 L161,65 L162,66 L163,69 L164,70 L165,70 L166,72 L167,72 L168,72 L169,72 L170,72 L171,72 L172,72 L173,72 L174,72 L175,72 L176,72 L177,72 L178,72 L179,72 L180,72 L181,72 L182,72 L183,72 L184,72 L185,72 L186,73 L187,75 L188,75 L189,75 L190,76 L191,76 L192,76 L193,76 L194,76 L195,76 L196,76 L197,76 L198,76 L199,76 L200,76 L201,76 L202,76 L203,76 L204,76 L205,76 L206,76 L207,76 L208,76 L209,76 L210,76 L211,76 L212,76 L213,76 L214,76 L215,76 L216,76 L217,76 L218,76 L219,76 L220,76 L221,76 L222,76 L223,76 L224,76 L225,76 L226,76 L227,76 L228,76 L229,76 L230,76 L231,76 L232,76 L233,76 L234,76 L235,76 L236,76 L237,76 L238,76 L239,76 L240,76 L241,76 L242,76 L243,76 L244,76 L245,76 L246,76 L247,76 L248,76 L249,76 L250,76 L251,76 L252,76 L253,76 L254,76 L255,77 L256,77 L257,77 L258,78 L259,78 L260,78 L261,78 L262,81 L263,82 L264,84 L265,85 L266,85 L267,85 L268,85 L269,85 L270,85 L271,85 L272,85 L273,85 L274,85 L275,85 L276,85 L277,85 L278,85 L279,85 L280,85 L281,85 L282,86 L283,87 L284,87 L285,88 L286,89 L287,92 L288,93 L289,94 L290,94 L291,94 L292,94 L293,94 L294,94 L295,94 L296,94 L297,94 L298,94 L299,94 L300,94 L301,94 L302,94 L303,94 L304,95 L305,97 L306,101 L307,103 L308,103 L309,103 L310,103 L311,105 L312,108 L313,110 L314,110 L315,110 L316,110 L317,110 L318,110 L319,110 L320,110 L321,110 L322,110 L323,110 L324,110 L325,110 L326,110 L327,110 L328,110 L329,111 L330,111 L331,112 L332,113 L333,113 L334,114 L335,114 L336,114 L337,114 L338,114 L339,114 L340,114 L341,114 L342,114 L343,114 L344,114 L345,114 L346,114 L347,114 L348,114 L349,114 L350,114 L351,114 L352,114 L353,114 L354,114 L355,114 L356,114 L357,115 L358,115 L359,115 L360,115 L361,115 L362,115 L363,115 L364,115 L365,115 L366,115 L367,115 L368,115 L369,115 L370,115 L371,115 L372,115 L373,115 L374,115 L375,115 L376,115 L377,115 L378,115 L379,115 L380,115 L381,115 L382,115 L383,115 L384,115 L385,115 L386,115 L387,115 L388,115 L389,115 L390,115 L391,115 L392,115 L393,115 L394,115 L395,115 L396,115 L397,115 L398,115 L399,115 L400,115 L401,115 L402,115 L403,115 L404,115 L405,115 L406,115 L407,115 L408,115 L409,115 L410,115 L411,115 L412,115 L413,115 L414,115 L415,115 L416,115 L417,115 L418,115 L419,115 L420,115 L421,115 L422,115 L423,116 L424,116 L425,116 L426,116 L427,116 L428,116 L429,116 L430,119 L431,119 L432,119 L433,119 L434,119 L435,119 L436,119 L437,119 L438,119 L439,119 L440,119 L441,119 L442,119 L443,119 L444,119 L445,119 L446,119 L447,119 L448,119 L449,121 L450,121 L451,121 L452,121 L453,121 L454,121 L455,121 L456,121 L457,121 L458,121 L459,121 L460,121 L461,121 L462,121 L463,121 L464,121 L465,121 L466,121 L467,121 L468,121 L469,121 L470,121 L471,121 L472,121 L473,121 L474,122 L475,123 L476,123 L477,123 L478,123 L479,123 L480,123 L481,124 L482,124 L483,124 L484,124 L485,124 L486,124 L487,124 L488,124 L489,124 L490,124 L491,124 L492,124 L493,124 L494,124 L495,124 L496,124 L497,125 L498,127 L499,127 L500,127 L501,127 L502,127 L503,128 L504,128 L505,128 L506,128 L507,128 L508,128 L509,128 L510,128 L511,128 L512,128 L513,128 L514,128 L515,128 L516,128 L517,128 L518,128 L519,128 L520,128 L521,128 L522,128 L523,128 L524,128 L525,128 L526,128 L527,128 L528,128 L529,128 L530,128 L531,128 L532,128 L533,128 L534,128 L535,128 L536,128 L537,128 L538,128 L539,128 L540,128 L541,128 L542,128 L543,128 L544,128 L545,128 L546,128 L547,128 L548,128 L549,128 L550,128 L551,128 L552,128 L553,128 L554,128 L555,128 L556,128 L557,128 L558,128 L559,128 L560,128 L561,128 L562,128 L563,128 L564,128 L565,128 L566,128 L567,128 L568,128 L569,128 L570,128 L571,128 L572,128 L573,128 L574,128 L575,128 L576,128 L577,128 L578,128 L579,128 L580,128 L581,128 L582,128 L583,128 L584,128 L585,128 L586,128 L587,128 L588,128 L589,128 L590,128 L591,128 L592,128 L593,128 L594,129 L595,129 L596,129 L597,129 L598,130 L599,130 L600,130 L601,130 L602,130 L603,130 L604,130 L605,130 L606,130 L607,130 L608,130 L609,130 L610,130 L611,130 L612,130 L613,130 L614,130 L615,130 L616,130 L617,130 L618,131 L619,131 L620,131 L621,131 L622,131 L623,132 L624,132 L625,132 L626,132 L627,132 L628,132 L629,132 L630,132 L631,132 L632,132 L633,132 L634,132 L635,132 L636,132 L637,132 L638,132 L639,132 L640,132 L641,132 L642,132 L643,133 L644,133 L645,133 L646,133 L647,134 L648,135 L649,136 L650,136 L651,136 L652,136 L653,136 L654,136 L655,136 L656,136 L657,136 L658,136 L659,136 L660,136 L661,136 L662,136 L663,136 L664,136 L665,137 L666,137 L667,137 L668,137 L669,137 L670,137 L671,137 L672,137 L673,137 L674,137 L675,137 L676,137 L677,137 L678,137 L679,137 L680,137 L681,137 L682,137 L683,137 L684,137 L685,137 L686,137 L687,137 L688,137 L689,137 L690,137 L691,137 L692,137 L693,137 L694,137 L695,137 L696,137 L697,137 L698,137 L699,137 L700,137 L701,137 L702,137 L703,137 L704,137 L705,137 L706,137 L707,137 L708,137 L709,137 L710,137 L711,137 L712,137 L713,137 L714,137 L715,137 L716,137 L717,137 L718,137 L719,137 L720,137 L721,137 L722,137 L723,137 L724,137 L725,137 L726,137 L727,137 L728,137 L729,137 L730,137 L731,137 L732,137 L733,137 L734,137 L735,137 L736,137 L737,137 L738,137 L739,137 L740,137 L741,137 L742,137 L743,137 L744,137 L745,137 L746,137 L747,137 L748,137 L749,137 L750,137 L751,137 L752,137 L753,137 L754,137 L755,137 L756,137 L757,137 L758,137 L759,137 L760,137 L761,137 L762,137 L763,137 L764,137 L765,137 L766,139 L767,139 L768,139 L769,139 L770,139 L771,139 L772,139 L773,139 L774,139 L775,139 L776,139 L777,139 L778,139 L779,139 L780,139 L781,139 L782,139 L783,139 L784,139 L785,139 L786,139 L787,139 L788,140 L789,140 L790,140 L791,140 L792,140 L793,140 L794,140 L795,140 L796,140 L797,140 L798,140 L799,140 L800,140 L801,140 L802,140 L803,140 L804,140 L805,140 L806,140 L807,140 L808,140 L809,140 L810,140 L811,140 L812,140 L813,140 L814,140 L815,140 L816,140 L817,140 L818,140 L819,140 L820,140 L821,140 L822,140 L823,140 L824,140 L825,140 L826,140 L827,140 L828,140 L829,140 L830,140 L831,140 L832,140 L833,140 L834,140 L835,142 L836,142 L837,142 L838,142 L839,142 L840,142 L841,142 L842,142 L843,142 L844,142 L845,142 L846,142 L847,142 L848,142 L849,142 L850,142 L851,142 L852,142 L853,142 L854,142 L855,142 L856,142 L857,142 L858,142 L859,142 L860,142 L861,142 L862,142 L863,142 L864,142 L865,142 L866,142 L867,142 L868,142 L869,142 L870,142 L871,142 L872,142 L873,142 L874,142 L875,142 L876,142 L877,142 L878,142 L879,142 L880,142 L881,142 L882,142 L883,142 L884,142 L885,142 L886,142 L887,142 L888,142 L889,142 L890,142 L891,142 L892,142 L893,142 L894,142 L895,142 L896,142 L897,142 L898,142 L899,142 L900,142 L901,142 L902,142 L903,142 L904,142 L905,142 L906,142 L907,142 L908,142 L909,142 L910,142 L911,142 L912,142 L913,142 L914,142 L915,142 L916,142 L917,142 L918,142 L919,142 L920,142 L921,142 L922,142 L923,142 L924,142 L925,142 L926,142 L927,142 L928,142 L929,142 L930,142 L931,142 L932,142 L933,142 L934,145 l0,-145 L0,0" fill="#fc7d0b" stroke="#fc7d0b"/>
<path d="M0,0 L0,1 L1,1 L2,1 L3,1 L4,1 L5,1 L6,1 L7,1 L8,1 L9,1 L10,1 L11,1 L12,1 L13,1 L14,1 L15,1 L16,1 L17,1 L18,1 L19,1 L20,1 L21,1 L22,1 L23,1 L24,1 L25,1 L26,1 L27,1 L28,1 L29,1 L30,1 L31,1 L32,1 L33,1 L34,1 L35,1 L36,1 L37,1 L38,1 L39,1 L40,1 L41,1 L42,1 L43,1 L44,1 L45,1 L46,1 L47,1 L48,1 L49,1 L50,1 L51,1 L52,1 L53,1 L54,1 L55,1 L56,1 L57,1 L58,1 L59,1 L60,1 L61,1 L62,1 L63,1 L64,1 L65,1 L66,1 L67,1 L68,1 L69,1 L70,1 L71,1 L72,1 L73,1 L74,1 L75,1 L76,1 L77,1 L78,1 L79,1 L80,1 L81,1 L82,1 L83,1 L84,1 L85,1 L86,1 L87,1 L88,1 L89,1 L90,1 L91,1 L92,1 L93,1 L94,1 L95,1 L96,10 L97,11 L98,12 L99,12 L100,19 L101,19 L102,19 L103,19 L104,19 L105,19 L106,19 L107,19 L108,19 L109,19 L110,19 L111,19 L112,19 L113,20 L114,20 L115,20 L116,20 L117,20 L118,21 L119,21 L120,23 L121,23 L122,23 L123,23 L124,23 L125,23 L126,23 L127,23 L128,23 L129,23 L130,23 L131,23 L132,23 L133,23 L134,23 L135,23 L136,23 L137,25 L138,26 L139,28 L140,28 L141,29 L142,30 L143,31 L144,31 L145,31 L146,31 L147,31 L148,31 L149,31 L150,31 L151,31 L152,31 L153,31 L154,31 L155,31 L156,31 L157,31 L158,31 L159,31 L160,32 L161,33 L162,33 L163,34 L164,35 L165,35 L166,36 L167,36 L168,36 L169,36 L170,36 L171,36 L172,36 L173,36 L174,36 L175,36 L176,36 L177,36 L178,36 L179,36 L180,36 L181,36 L182,36 L183,36 L184,36 L185,36 L186,36 L187,37 L188,37 L189,37 L190,37 L191,37 L192,37 L193,37 L194,37 L195,37 L196,37 L197,37 L198,37 L199,37 L200,37 L201,37 L202,37 L203,37 L204,37 L205,37 L206,37 L207,37 L208,37 L209,37 L210,37 L211,37 L212,37 L213,37 L214,37 L215,37 L216,37 L217,37 L218,37 L219,37 L220,37 L221,37 L222,37 L223,37 L224,37 L225,37 L226,37 L227,37 L228,37 L229,37 L230,37 L231,37 L232,37 L233,37 L234,37 L235,37 L236,37 L237,37 L238,37 L239,37 L240,37 L241,37 L242,37 L243,37 L244,37 L245,37 L246,37 L247,37 L248,37 L249,37 L250,37 L251,37 L252,37 L253,37 L254,37 L255,38 L256,38 L257,38 L258,38 L259,38 L260,38 L261,38 L262,39 L263,40 L264,42 L265,42 L266,42 L267,42 L268,42 L269,42 L270,42 L271,42 L272,42 L273,42 L274,42 L275,42 L276,42 L277,42 L278,42 L279,42 L280,42 L281,42 L282,43 L283,44 L284,44 L285,45 L286,45 L287,48 L288,48 L289,49 L290,49 L291,49 L292,49 L293,49 L294,49 L295,49 L296,49 L297,49 L298,49 L299,49 L300,49 L301,49 L302,49 L303,49 L304,50 L305,52 L306,55 L307,57 L308,57 L309,57 L310,57 L311,59 L312,61 L313,63 L314,63 L315,63 L316,63 L317,63 L318,63 L319,63 L320,63 L321,63 L322,63 L323,63 L324,63 L325,63 L326,63 L327,63 L328,63 L329,64 L330,64 L331,65 L332,66 L333,66 L334,67 L335,67 L336,67 L337,67 L338,67 L339,67 L340,67 L341,67 L342,67 L343,67 L344,67 L345,67 L346,67 L347,67 L348,67 L349,67 L350,67 L351,67 L352,67 L353,67 L354,67 L355,67 L356,67 L357,68 L358,68 L359,68 L360,68 L361,68 L362,68 L363,68 L364,68 L365,68 L366,68 L367,68 L368,68 L369,68 L370,68 L371,68 L372,68 L373,68 L374,68 L375,68 L376,68 L377,68 L378,68 L379,68 L380,68 L381,68 L382,68 L383,68 L384,68 L385,68 L386,68 L387,68 L388,68 L389,68 L390,68 L391,68 L392,68 L393,68 L394,68 L395,68 L396,68 L397,68 L398,68 L399,68 L400,68 L401,68 L402,68 L403,68 L404,68 L405,68 L406,68 L407,68 L408,68 L409,68 L410,68 L411,68 L412,68 L413,68 L414,68 L415,68 L416,68 L417,68 L418,68 L419,68 L420,68 L421,68 L422,68 L423,69 L424,69 L425,69 L426,69 L427,69 L428,69 L429,69 L430,72 L431,72 L432,72 L433,72 L434,72 L435,72 L436,72 L437,72 L438,72 L439,72 L440,72 L441,72 L442,72 L443,72 L444,72 L445,72 L446,72 L447,72 L448,72 L449,74 L450,74 L451,74 L452,74 L453,74 L454,74 L455,74 L456,74 L457,74 L458,74 L459,74 L460,74 L461,74 L462,74 L463,74 L464,74 L465,74 L466,74 L467,74 L468,74 L469,74 L470,74 L471,74 L472,74 L473,74 L474,75 L475,76 L476,76 L477,76 L478,76 L479,76 L480,76 L481,76 L482,76 L483,76 L484,76 L485,76 L486,76 L487,76 L488,76 L489,76 L490,76 L491,76 L492,76 L493,76 L494,76 L495,76 L496,76 L497,77 L498,77 L499,77 L500,77 L501,77 L502,77 L503,78 L504,78 L505,78 L506,78 L507,78 L508,78 L509,78 L510,78 L511,78 L512,78 L513,78 L514,78 L515,78 L516,78 L517,78 L518,78 L519,78 L520,78 L521,78 L522,78 L523,78 L524,78 L525,78 L526,78 L527,78 L528,78 L529,78 L530,78 L531,78 L532,78 L533,78 L534,78 L535,78 L536,78 L537,78 L538,78 L539,78 L540,78 L541,78 L542,78 L543,78 L544,78 L545,78 L546,78 L547,78 L548,78 L549,78 L550,78 L551,78 L552,78 L553,78 L554,78 L555,78 L556,78 L557,78 L558,78 L559,78 L560,78 L561,78 L562,78 L563,78 L564,78 L565,78 L566,78 L567,78 L568,78 L569,78 L570,78 L571,78 L572,78 L573,78 L574,78 L575,78 L576,78 L577,78 L578,78 L579,78 L580,78 L581,78 L582,78 L583,78 L584,78 L585,78 L586,78 L587,78 L588,78 L589,78 L590,78 L591,78 L592,78 L593,78 L594,79 L595,79 L596,79 L597,79 L598,79 L599,79 L600,79 L601,79 L602,79 L603,79 L604,79 L605,79 L606,79 L607,79 L608,79 L609,79 L610,79 L611,79 L612,79 L613,79 L614,79 L615,79 L616,79 L617,79 L618,80 L619,80 L620,80 L621,80 L622,80 L623,81 L624,81 L625,81 L626,81 L627,81 L628,81 L629,81 L630,81 L631,81 L632,81 L633,81 L634,81 L635,81 L636,81 L637,81 L638,81 L639,81 L640,81 L641,81 L642,81 L643,81 L644,81 L645,81 L646,81 L647,82 L648,83 L649,84 L650,84 L651,84 L652,84 L653,84 L654,84 L655,84 L656,84 L657,84 L658,84 L659,84 L660,84 L661,84 L662,84 L663,84 L664,84 L665,84 L666,84 L667,84 L668,84 L669,84 L670,84 L671,84 L672,84 L673,84 L674,84 L675,84 L676,84 L677,84 L678,84 L679,84 L680,84 L681,84 L682,84 L683,84 L684,84 L685,84 L686,84 L687,84 L688,84 L689,84 L690,84 L691,84 L692,84 L693,84 L694,84 L695,84 L696,84 L697,84 L698,84 L699,84 L700,84 L701,84 L702,84 L703,84 L704,84 L705,84 L706,84 L707,84 L708,84 L709,84 L710,84 L711,84 L712,84 L713,84 L714,84 L715,84 L716,84 L717,84 L718,84 L719,84 L720,84 L721,84 L722,84 L723,84 L724,84 L725,84 L726,84 L727,84 L728,84 L729,84 L730,84 L731,84 L732,84 L733,84 L734,84 L735,84 L736,84 L737,84 L738,84 L739,84 L740,84 L741,84 L742,84 L743,84 L744,84 L745,84 L746,84 L747,84 L748,84 L749,84 L750,84 L751,84 L752,84 L753,84 L754,84 L755,84 L756,84 L757,84 L758,84 L759,84 L760,84 L761,84 L762,84 L763,84 L764,84 L765,84 L766,86 L767,86 L768,86 L769,86 L770,86 L771,86 L772,86 L773,86 L774,86 L775,86 L776,86 L777,86 L778,86 L779,86 L780,86 L781,86 L782,86 L783,86 L784,86 L785,86 L786,86 L787,86 L788,87 L789,87 L790,87 L791,87 L792,87 L793,87 L794,87 L795,87 L796,87 L797,87 L798,87 L799,87 L800,87 L801,87 L802,87 L803,87 L804,87 L805,87 L806,87 L807,87 L808,87 L809,87 L810,87 L811,87 L812,87 L813,87 L814,87 L815,87 L816,87 L817,87 L818,87 L819,87 L820,87 L821,87 L822,87 L823,87 L824,87 L825,87 L826,87 L827,87 L828,87 L829,87 L830,87 L831,87 L832,87 L833,87 L834,87 L835,89 L836,89 L837,89 L838,89 L839,89 L840,89 L841,89 L842,89 L843,89 L844,89 L845,89 L846,89 L847,89 L848,89 L849,89 L850,89 L851,89 L852,89 L853,89 L854,89 L855,89 L856,89 L857,89 L858,89 L859,89 L860,89 L861,89 L862,89 L863,89 L864,89 L865,89 L866,89 L867,89 L868,89 L869,89 L870,89 L871,89 L872,89 L873,89 L874,89 L875,89 L876,89 L877,89 L878,89 L879,89 L880,89 L881,89 L882,89 L883,89 L884,89 L885,89 L886,89 L887,89 L888,89 L889,89 L890,89 L891,89 L892,89 L893,89 L894,89 L895,89 L896,89 L897,89 L898,89 L899,89 L900,89 L901,89 L902,89 L903,89 L904,89 L905,89 L906,89 L907,89 L908,89 L909,89 L910,89 L911,89 L912,89 L913,89 L914,89 L915,89 L916,89 L917,89 L918,89 L919,89 L920,89 L921,89 L922,89 L923,89 L924,89 L925,89 L926,89 L927,89 L928,89 L929,89 L930,89 L931,89 L932,89 L933,89 L934,91 l0,-91 L0,0" fill="#d50000" stroke="#d50000"/>
</g>
</svg>
</g>
</svg>
<svg height="87.5%" preserveAspectRatio="none" viewBox="-8 -8 950 180" width="98.1%" x="2%" xmlns="http://www.w3.org/2000/svg" y="5%">
<g>
<path d="M0,152 L934,152" stroke="#50505070"/>
<path d="M0,140 L934,140" stroke="#50505070"/>
<path d="M0,128 L934,128" stroke="#50505070"/>
<path d="M0,116 L934,116" stroke="#50505070"/>
<path d="M0,104 L934,104" stroke="#50505070"/>
<path d="M0,92 L934,92" stroke="#50505070"/>
<path d="M0,80 L934,80" stroke="#50505070"/>
<path d="M0,68 L934,68" stroke="#50505070"/>
<path d="M0,56 L934,56" stroke="#50505070"/>
<path d="M0,44 L934,44" stroke="#50505070"/>
<path d="M0,32 L934,32" stroke="#50505070"/>
<path d="M0,20 L934,20" stroke="#50505070"/>
<path d="M0,0 L934,0" stroke="#50505070"/>
</g>
</svg>
<g transform="scale(12.5, 1)">
<svg height="87.5%" preserveAspectRatio="none" viewBox="-8 -8 180 180" width="2%" x="-0.875%" xmlns="http://www.w3.org/2000/svg" y="5%">
<g>
<text dominant-baseline="middle" fill="#707070" font-family="sans-serif" font-size="7px" text-anchor="end" x="50%" y="152">
12
</text>
<text dominant-baseline="middle" fill="#707070" font-family="sans-serif" font-size="7px" text-anchor="end" x="50%" y="140">
24
</text>
<text dominant-baseline="middle" fill="#707070" font-family="sans-serif" font-size="7px" text-anchor="end" x="50%" y="128">
36
</text>
<text dominant-baseline="middle" fill="#707070" font-family="sans-serif" font-size="7px" text-anchor="end" x="50%" y="116">
48
</text>
<text dominant-baseline="middle" fill="#707070" font-family="sans-serif" font-size="7px" text-anchor="end" x="50%" y="104">
60
</text>
<text dominant-baseline="middle" fill="#707070" font-family="sans-serif" font-size="7px" text-anchor="end" x="50%" y="92">
72
</text>
<text dominant-baseline="middle" fill="#707070" font-family="sans-serif" font-size="7px" text-anchor="end" x="50%" y="80">
84
</text>
<text dominant-baseline="middle" fill="#707070" font-family="sans-serif" font-size="7px" text-anchor="end" x="50%" y="68">
96
</text>
<text dominant-baseline="middle" fill="#707070" font-family="sans-serif" font-size="7px" text-anchor="end" x="50%" y="56">
108
</text>
<text dominant-baseline="middle" fill="#707070" font-family="sans-serif" font-size="7px" text-anchor="end" x="50%" y="44">
120
</text>
<text dominant-baseline="middle" fill="#707070" font-family="sans-serif" font-size="7px" text-anchor="end" x="50%" y="32">
132
</text>
<text dominant-baseline="middle" fill="#707070" font-family="sans-serif" font-size="7px" text-anchor="end" x="50%" y="20">
144
</text>
<text dominant-baseline="middle" fill="#707070" font-family="sans-serif" font-size="7px" text-anchor="end" x="50%" y="0">
164
</text>
</g>
</svg>
</g>
<svg height="2.5%" preserveAspectRatio="none" viewBox="-8 -8 950 180" width="100%" xmlns="http://www.w3.org/2000/svg" y="92.5%">
<g>
<rect fill="#50505070" height="100%" width="0.1%" x="7"/>
<rect fill="#50505070" height="100%" width="0.1%" x="31"/>
<rect fill="#50505070" height="100%" width="0.1%" x="55"/>
<rect fill="#50505070" height="100%" width="0.1%" x="79"/>
<rect fill="#50505070" height="100%" width="0.1%" x="103"/>
<rect fill="#50505070" height="100%" width="0.1%" x="127"/>
<rect fill="#50505070" height="100%" width="0.1%" x="151"/>
<rect fill="#50505070" height="100%" width="0.1%" x="175"/>
<rect fill="#50505070" height="100%" width="0.1%" x="199"/>
<rect fill="#50505070" height="100%" width="0.1%" x="223"/>
<rect fill="#50505070" height="100%" width="0.1%" x="247"/>
<rect fill="#50505070" height="100%" width="0.1%" x="271"/>
<rect fill="#50505070" height="100%" width="0.1%" x="295"/>
<rect fill="#50505070" height="100%" width="0.1%" x="319"/>
<rect fill="#50505070" height="100%" width="0.1%" x="343"/>
<rect fill="#50505070" height="100%" width="0.1%" x="367"/>
<rect fill="#50505070" height="100%" width="0.1%" x="391"/>
<rect fill="#50505070" height="100%" width="0.1%" x="415"/>
<rect fill="#50505070" height="100%" width="0.1%" x="439"/>
<rect fill="#50505070" height="100%" width="0.1%" x="463"/>
<rect fill="#50505070" height="100%" width="0.1%" x="487"/>
<rect fill="#50505070" height="100%" width="0.1%" x="511"/>
<rect fill="#50505070" height="100%" width="0.1%" x="535"/>
<rect fill="#50505070" height="100%" width="0.1%" x="559"/>
<rect fill="#50505070" height="100%" width="0.1%" x="583"/>
<rect fill="#50505070" height="100%" width="0.1%" x="607"/>
<rect fill="#50505070" height="100%" width="0.1%" x="631"/>
<rect fill="#50505070" height="100%" width="0.1%" x="655"/>
<rect fill="#50505070" height="100%" width="0.1%" x="679"/>
<rect fill="#50505070" height="100%" width="0.1%" x="703"/>
<rect fill="#50505070" height="100%" width="0.1%" x="727"/>
<rect fill="#50505070" height="100%" width="0.1%" x="751"/>
<rect fill="#50505070" height="100%" width="0.1%" x="775"/>
<rect fill="#50505070" height="100%" width="0.1%" x="799"/>
<rect fill="#50505070" height="100%" width="0.1%" x="823"/>
<rect fill="#50505070" height="100%" width="0.1%" x="847"/>
<rect fill="#50505070" height="100%" width="0.1%" x="871"/>
<rect fill="#50505070" height="100%" width="0.1%" x="895"/>
<rect fill="#50505070" height="100%" width="0.1%" x="919"/>
</g>
</svg>
<svg height="5%" preserveAspectRatio="none" width="100%" xmlns="http://www.w3.org/2000/svg" y="95%">
<text dominant-baseline="middle" fill="#707070" font-family="sans-serif" font-size="28px" font-weight="bold" text-anchor="start" x="0.75%" y="62.5%">
28/05/2026
</text>
<text dominant-baseline="middle" fill="#707070" font-family="sans-serif" font-size="28px" font-weight="bold" text-anchor="end" x="99.25%" y="62.5%">
06/07/2026
</text>
</svg>
</svg>
<svg height="10%" width="100%" xmlns="http://www.w3.org/2000/svg" y="90%">
<g>
<rect fill="#d50000" height="60%" width="2%" x="8.61111111111111%" y="20%"/>
<text dominant-baseline="middle" fill="#d50000" font-family="sans-serif" font-size="30px" font-weight="bold" x="11.61111111111111%" y="50%">
Lab
</text>
<rect fill="#fc7d0b" height="60%" width="2%" x="19.72222222222222%" y="20%"/>
<text dominant-baseline="middle" fill="#fc7d0b" font-family="sans-serif" font-size="30px" font-weight="bold" x="22.72222222222222%" y="50%">
LD
</text>
<rect fill="#fff685" height="60%" width="2%" x="30.833333333333336%" y="20%"/>
<text dominant-baseline="middle" fill="#fff685" font-family="sans-serif" font-size="30px" font-weight="bold" x="33.833333333333336%" y="50%">
SNP
</text>
<rect fill="#348837" height="60%" width="2%" x="41.94444444444444%" y="20%"/>
<text dominant-baseline="middle" fill="#348837" font-family="sans-serif" font-size="30px" font-weight="bold" x="44.94444444444444%" y="50%">
PC
</text>
<rect fill="#78b82a" height="60%" width="2%" x="53.05555555555556%" y="20%"/>
<text dominant-baseline="middle" fill="#78b82a" font-family="sans-serif" font-size="30px" font-weight="bold" x="56.05555555555556%" y="50%">
Green
</text>
<rect fill="#909090" height="60%" width="2%" x="64.16666666666667%" y="20%"/>
<text dominant-baseline="middle" fill="#909090" font-family="sans-serif" font-size="30px" font-weight="bold" x="67.16666666666667%" y="50%">
Ind
</text>
<rect fill="#ff3131" height="60%" width="2%" x="75.27777777777777%" y="20%"/>
<text dominant-baseline="middle" fill="#ff3131" font-family="sans-serif" font-size="30px" font-weight="bold" x="78.27777777777777%" y="50%">
YP
</text>
<rect fill="#4ea268" height="60%" width="2%" x="86.38888888888889%" y="20%"/>
<text dominant-baseline="middle" fill="#4ea268" font-family="sans-serif" font-size="30px" font-weight="bold" x="89.38888888888889%" y="50%">
SDLP
</text>
</g>
</svg>
</svg>
</svg>