<svg height="1024" width="3072" xmlns="http://www.w3.org/2000/svg">
<svg xmlns="http://www.w3.org/2000/svg">
<svg height="90%" width="100%" xmlns="http://www.w3.org/2000/svg">
<svg height="100%" width="97.5%" x="2.5%" xmlns="http://www.w3.org/2000/svg">
<svg height="5%" width="100%" xmlns="http://www.w3.org/2000/svg">
<text dominant-baseline="middle" fill="#707070" font-family="sans-serif" font-size="30px" font-weight="bold" text-anchor="middle" x="50%" y="50%">
Early Day Motions (as supporting signatures) over date tabled (as time in days)
</text>
</svg>
<svg height="87.5%" width="100%" xmlns="http://www.w3.org/2000/svg" y="5%">
<g transform="scale(1 -1)" transform-origin="center">
<svg preserveAspectRatio="none" stroke-width="4" viewBox="-8 -8 3847 281" xmlns="http://www.w3.org/2000/svg">
<path d="M0,0 L0,52 L1,70 L2,84 L6,67 L7,54 L8,76 L9,57 L14,41 L15,58 L16,32 L17,55 L20,65 L21,54 L22,60 L23,36 L27,49 L28,45 L29,45 L30,39 L34,156 L35,43 L36,40 L37,30 L48,43 L49,45 L50,45 L51,43 L52,22 L55,65 L56,59 L57,53 L58,71 L62,84 L63,50 L64,97 L65,34 L66,34 L69,56 L70,35 L71,40 L72,20 L76,95 L77,53 L78,40 L79,29 L97,46 L98,46 L99,54 L104,28 L105,28 L106,49 L107,20 L111,31 L112,48 L113,46 L119,38 L120,16 L125,20 L126,9 L127,23 L134,86 L135,52 L139,149 L140,94 L141,48 L142,43 L153,92 L154,83 L155,79 L156,28 L160,68 L161,37 L162,37 L174,51 L175,67 L176,48 L177,26 L181,50 L182,37 L183,77 L184,40 L188,113 L189,40 L190,55 L191,21 L195,158 L196,74 L197,48 L198,54 L244,66 L245,59 L246,36 L247,48 L251,47 L252,80 L253,54 L254,33 L279,76 L280,68 L281,69 L282,52 L286,21 L287,79 L288,103 L289,31 L293,130 L294,70 L295,80 L296,13 L297,44 L300,41 L301,21 L302,117 L303,14 L304,28 L307,45 L308,42 L314,45 L315,43 L316,100 L317,38 L321,37 L322,38 L323,41 L324,4 L328,55 L329,36 L330,49 L331,30 L332,28 L335,21 L336,16 L337,169 L338,27 L342,26 L343,41 L344,32 L345,26 L346,34 L349,34 L350,51 L370,62 L371,49 L372,32 L373,21 L374,108 L378,37 L379,59 L380,63 L384,79 L385,29 L386,32 L387,58 L388,24 L391,206 L392,42 L393,51 L394,127 L395,45 L398,33 L399,44 L400,36 L401,37 L412,93 L413,45 L414,39 L415,31 L416,34 L419,187 L420,78 L421,53 L422,38 L426,86 L427,35 L428,35 L429,41 L433,42 L434,58 L435,105 L436,28 L440,71 L441,76 L443,47 L447,22 L448,29 L449,43 L450,14 L469,33 L470,33 L471,13 L475,12 L476,11 L477,53 L533,109 L534,39 L538,96 L539,197 L540,93 L541,46 L545,34 L546,124 L547,76 L548,70 L552,36 L553,113 L554,82 L555,63 L559,98 L560,33 L561,25 L562,74 L609,83 L610,92 L611,38 L615,49 L616,32 L617,26 L618,39 L643,72 L644,53 L645,83 L646,77 L650,53 L651,49 L652,22 L653,19 L654,116 L657,19 L658,36 L659,59 L660,15 L664,68 L665,70 L666,46 L667,54 L668,3 L671,83 L672,23 L678,22 L679,49 L680,42 L681,32 L685,144 L686,19 L687,43 L688,83 L692,53 L693,24 L694,137 L695,17 L696,41 L699,47 L700,103 L701,158 L702,73 L706,37 L707,33 L708,23 L709,131 L713,30 L714,265 L715,26 L716,49 L734,78 L735,126 L736,41 L737,21 L741,39 L742,65 L743,57 L744,23 L745,8 L748,70 L749,61 L750,50 L751,54 L755,21 L756,33 L757,33 L758,22 L759,11 L762,45 L763,41 L764,56 L765,77 L777,133 L778,69 L779,121 L780,20 L783,29 L784,34 L785,85 L786,11 L790,41 L791,65 L792,67 L793,30 L797,42 L798,57 L799,52 L800,42 L801,21 L804,80 L805,114 L806,21 L807,139 L811,131 L812,71 L813,91 L814,11 L832,100 L833,109 L834,34 L835,90 L839,24 L840,79 L841,118 L842,29 L843,19 L846,64 L847,88 L848,116 L849,11 L854,152 L855,57 L856,34 L857,28 L860,76 L861,35 L862,25 L863,25 L867,48 L868,73 L869,21 L870,38 L881,90 L882,60 L883,36 L884,26 L888,22 L889,19 L890,25 L891,30 L892,35 L895,24 L896,56 L897,57 L898,63 L902,45 L903,54 L904,17 L905,26 L909,40 L910,33 L911,36 L912,4 L913,39 L916,24 L917,38 L918,29 L919,26 L923,75 L924,95 L925,24 L926,10 L930,83 L931,33 L973,87 L974,22 L975,34 L979,38 L980,30 L981,66 L982,51 L1008,51 L1009,40 L1010,47 L1014,36 L1015,28 L1016,66 L1017,107 L1021,20 L1022,95 L1023,19 L1024,44 L1025,64 L1028,78 L1029,52 L1030,26 L1031,24 L1035,24 L1036,44 L1042,67 L1043,178 L1044,28 L1045,26 L1049,68 L1050,59 L1051,22 L1052,46 L1053,20 L1056,43 L1057,32 L1058,22 L1059,31 L1063,40 L1064,31 L1066,28 L1070,39 L1071,48 L1072,18 L1073,22 L1077,31 L1078,54 L1079,15 L1080,5 L1098,39 L1099,16 L1100,112 L1101,30 L1102,34 L1105,25 L1106,65 L1107,28 L1108,30 L1112,37 L1113,35 L1114,97 L1115,41 L1119,94 L1120,27 L1121,11 L1122,34 L1126,140 L1127,46 L1128,43 L1129,36 L1130,24 L1133,27 L1134,137 L1135,33 L1136,40 L1140,14 L1141,22 L1143,21 L1147,69 L1148,103 L1149,35 L1150,23 L1154,53 L1155,36 L1156,48 L1157,107 L1161,47 L1162,36 L1163,107 L1164,123 L1168,36 L1169,32 L1170,39 L1171,40 L1172,37 L1175,87 L1176,86 L1177,47 L1178,20 L1179,25 L1182,29 L1183,89 L1184,80 L1185,80 L1189,74 L1190,54 L1191,25 L1192,82 L1204,225 L1205,20 L1206,50 L1210,46 L1211,43 L1212,64 L1213,112 L1218,55 L1219,81 L1220,4 L1224,38 L1225,51 L1226,29 L1227,26 L1231,21 L1232,34 L1233,45 L1234,23 L1246,43 L1247,57 L1248,22 L1252,33 L1253,23 L1254,17 L1255,37 L1259,34 L1260,16 L1261,67 L1262,46 L1266,44 L1267,66 L1268,37 L1269,60 L1273,25 L1274,29 L1275,48 L1276,29 L1280,25 L1281,19 L1282,39 L1283,48 L1287,40 L1288,19 L1289,26 L1290,70 L1294,21 L1295,87 L1296,31 L1297,39 L1337,40 L1338,27 L1339,20 L1359,39 L1360,51 L1364,77 L1365,17 L1366,17 L1367,8 L1371,24 L1378,64 L1379,75 L1380,71 L1381,34 L1385,59 L1386,34 L1387,43 L1388,29 L1392,26 L1393,8 L1394,17 L1395,9 L1399,11 L1444,53 L1445,74 L1463,66 L1464,43 L1465,168 L1469,101 L1470,26 L1471,42 L1472,41 L1476,82 L1477,36 L1478,77 L1479,51 L1483,39 L1484,20 L1485,37 L1486,79 L1490,14 L1491,96 L1492,95 L1493,86 L1497,26 L1498,43 L1499,69 L1500,33 L1511,69 L1512,29 L1513,82 L1514,13 L1518,40 L1519,22 L1520,69 L1521,103 L1525,140 L1526,13 L1527,47 L1528,100 L1529,20 L1532,100 L1533,35 L1534,71 L1535,18 L1539,26 L1540,29 L1541,34 L1568,61 L1569,33 L1570,82 L1574,35 L1575,15 L1576,30 L1577,78 L1581,119 L1582,38 L1583,33 L1588,87 L1589,25 L1590,62 L1591,18 L1595,45 L1596,14 L1597,27 L1610,74 L1611,48 L1612,138 L1616,37 L1617,59 L1618,151 L1619,32 L1623,41 L1624,59 L1625,23 L1626,45 L1630,16 L1631,10 L1632,45 L1637,44 L1638,37 L1639,40 L1640,44 L1644,26 L1645,48 L1646,53 L1647,35 L1651,44 L1652,66 L1653,16 L1654,37 L1658,106 L1659,55 L1660,37 L1701,53 L1702,92 L1703,20 L1707,47 L1708,73 L1709,17 L1710,83 L1711,35 L1714,74 L1715,41 L1716,27 L1717,33 L1721,26 L1722,11 L1723,74 L1724,46 L1728,34 L1729,23 L1730,37 L1731,32 L1735,32 L1736,76 L1737,31 L1738,20 L1742,36 L1743,17 L1744,31 L1745,23 L1746,25 L1749,92 L1750,28 L1751,28 L1752,41 L1753,21 L1763,71 L1764,62 L1765,34 L1766,56 L1770,72 L1771,6 L1772,18 L1773,39 L1777,55 L1778,65 L1779,36 L1780,33 L1784,31 L1785,20 L1786,63 L1787,34 L1791,37 L1792,38 L1793,45 L1794,29 L1798,59 L1799,8 L1800,36 L1801,39 L1805,62 L1806,18 L1807,53 L1808,22 L1821,97 L1828,36 L1833,40 L1834,30 L1835,40 L1836,139 L1840,40 L1841,20 L1842,29 L1843,16 L1847,63 L1848,44 L1849,81 L1850,18 L1854,15 L1855,22 L1856,25 L1857,47 L1861,80 L1862,26 L1863,50 L1864,61 L1875,45 L1876,27 L1877,104 L1878,58 L1882,36 L1883,23 L1884,37 L1885,32 L1889,32 L1890,27 L1891,23 L1892,76 L1893,29 L1896,15 L1897,30 L1898,22 L1899,29 L1903,58 L1904,33 L1905,82 L1906,49 L1924,51 L1925,75 L1926,12 L1927,25 L1931,34 L1932,7 L1933,36 L1934,23 L1938,32 L1939,12 L1940,5 L1953,101 L1954,151 L1955,41 L1959,52 L1960,50 L1961,31 L1962,103 L1966,36 L1967,17 L1968,74 L1969,78 L1980,36 L1981,44 L1982,110 L1983,33 L1987,119 L1988,33 L1989,31 L1990,43 L1994,28 L1995,67 L1996,28 L1997,11 L2001,43 L2002,26 L2003,48 L2004,34 L2008,44 L2009,24 L2010,53 L2011,57 L2015,41 L2016,15 L2017,30 L2018,16 L2022,50 L2023,29 L2024,30 L2025,31 L2052,23 L2071,105 L2072,21 L2073,32 L2074,30 L2075,45 L2078,32 L2079,22 L2080,23 L2081,17 L2085,49 L2086,46 L2087,41 L2088,138 L2113,61 L2114,85 L2115,33 L2116,13 L2117,15 L2120,64 L2121,42 L2122,24 L2123,52 L2124,11 L2127,32 L2128,43 L2129,47 L2134,45 L2135,25 L2141,57 L2142,31 L2143,21 L2144,9 L2145,67 L2148,30 L2149,9 L2151,39 L2155,21 L2156,42 L2157,28 L2158,30 L2159,16 L2162,49 L2163,11 L2164,22 L2165,21 L2166,19 L2169,22 L2170,10 L2171,26 L2172,20 L2192,31 L2193,137 L2197,19 L2198,77 L2199,16 L2200,41 L2204,26 L2205,46 L2206,32 L2207,26 L2208,11 L2211,31 L2212,66 L2213,68 L2214,43 L2215,14 L2218,75 L2219,33 L2220,28 L2221,30 L2225,58 L2226,38 L2227,31 L2228,24 L2239,32 L2240,38 L2241,20 L2242,31 L2243,9 L2246,20 L2247,82 L2248,13 L2249,36 L2253,25 L2254,39 L2255,25 L2256,24 L2260,43 L2261,22 L2262,23 L2263,43 L2264,14 L2267,25 L2268,64 L2269,125 L2270,13 L2274,88 L2275,14 L2276,22 L2277,15 L2296,29 L2297,19 L2298,9 L2302,22 L2303,3 L2304,26 L2317,79 L2318,62 L2319,30 L2323,70 L2324,112 L2325,27 L2326,21 L2330,47 L2331,46 L2332,27 L2333,39 L2344,81 L2345,57 L2346,25 L2347,23 L2351,43 L2352,28 L2353,9 L2354,51 L2358,45 L2359,9 L2360,64 L2361,9 L2365,26 L2366,37 L2367,67 L2368,22 L2372,32 L2373,33 L2374,18 L2375,17 L2379,55 L2380,93 L2381,18 L2382,18 L2383,19 L2386,28 L2387,25 L2388,33 L2389,12 L2435,49 L2436,25 L2437,20 L2438,43 L2451,48 L2452,37 L2453,17 L2471,87 L2472,45 L2473,16 L2477,115 L2478,35 L2479,39 L2480,24 L2481,30 L2484,27 L2485,32 L2486,27 L2487,20 L2488,25 L2491,24 L2492,27 L2493,33 L2494,55 L2498,57 L2499,72 L2500,31 L2505,48 L2506,34 L2507,3 L2508,24 L2512,90 L2513,29 L2514,27 L2515,9 L2519,46 L2520,17 L2521,47 L2522,24 L2523,13 L2526,26 L2527,74 L2528,63 L2529,32 L2530,41 L2533,61 L2534,19 L2535,26 L2536,36 L2540,30 L2541,12 L2561,37 L2562,8 L2563,47 L2564,41 L2568,26 L2569,13 L2570,73 L2571,16 L2572,32 L2575,61 L2576,52 L2577,11 L2578,31 L2582,35 L2583,38 L2584,20 L2585,48 L2586,7 L2589,21 L2590,25 L2591,26 L2592,11 L2603,48 L2604,17 L2605,9 L2606,58 L2607,42 L2610,23 L2611,48 L2612,34 L2613,26 L2614,5 L2617,118 L2618,29 L2619,16 L2620,20 L2624,32 L2625,33 L2626,11 L2627,7 L2628,14 L2631,35 L2632,44 L2633,6 L2634,41 L2635,18 L2638,22 L2639,22 L2640,49 L2641,61 L2659,62 L2660,27 L2661,37 L2662,21 L2666,39 L2667,35 L2668,58 L2669,42 L2674,42 L2675,20 L2681,34 L2682,35 L2683,23 L2687,31 L2688,41 L2689,21 L2690,35 L2694,19 L2695,40 L2696,18 L2697,24 L2708,53 L2709,23 L2710,66 L2711,22 L2715,38 L2716,34 L2717,17 L2718,30 L2722,25 L2723,42 L2724,26 L2725,8 L2729,54 L2730,41 L2731,21 L2732,19 L2736,22 L2737,58 L2738,25 L2739,30 L2743,26 L2744,14 L2745,19 L2746,43 L2750,35 L2751,24 L2752,35 L2753,15 L2799,47 L2800,26 L2801,42 L2802,14 L2806,21 L2807,32 L2808,29 L2809,50 L2813,14 L2814,17 L2841,37 L2842,95 L2843,5 L2844,13 L2845,8 L2848,27 L2849,22 L2850,18 L2863,105 L2864,76 L2865,22 L2869,27 L2870,13 L2871,32 L2872,16 L2876,32 L2877,52 L2878,63 L2879,11 L2883,35 L2884,20 L2885,27 L2886,16 L2890,40 L2891,34 L2892,50 L2893,90 L2897,48 L2898,51 L2899,29 L2900,23 L2904,34 L2905,44 L2925,97 L2926,8 L2927,12 L2928,24 L2932,8 L2933,57 L2934,17 L2935,48 L2936,17 L2939,15 L2940,12 L2941,37 L2942,26 L2943,36 L2946,22 L2947,30 L2948,22 L2949,45 L2950,29 L2953,33 L2954,17 L2955,73 L2956,24 L2967,49 L2968,36 L2969,89 L2970,10 L2971,27 L2974,27 L2975,15 L2976,9 L2977,22 L2978,9 L2981,33 L2982,12 L2983,32 L2984,15 L2988,71 L2989,18 L2990,21 L2991,16 L2995,21 L2996,46 L2997,16 L2998,31 L2999,30 L3002,25 L3003,68 L3023,30 L3024,4 L3025,20 L3026,23 L3027,7 L3030,37 L3031,25 L3032,31 L3033,13 L3034,24 L3037,24 L3038,29 L3039,10 L3040,21 L3045,42 L3046,40 L3047,20 L3051,29 L3052,16 L3053,33 L3054,8 L3055,17 L3058,14 L3059,13 L3060,19 L3061,15 L3116,95 L3117,33 L3118,19 L3121,57 L3122,65 L3123,31 L3124,23 L3125,21 L3128,22 L3129,42 L3163,123 L3164,21 L3165,11 L3166,7 L3170,30 L3171,25 L3172,51 L3173,28 L3198,84 L3199,62 L3200,71 L3201,110 L3205,42 L3206,37 L3207,26 L3208,65 L3212,39 L3213,31 L3214,23 L3215,5 L3219,28 L3220,70 L3221,54 L3222,20 L3226,19 L3227,53 L3228,37 L3233,57 L3234,34 L3235,32 L3236,41 L3240,42 L3241,15 L3242,53 L3243,46 L3247,46 L3248,44 L3249,40 L3250,12 L3251,26 L3254,26 L3255,55 L3256,5 L3257,27 L3258,28 L3261,68 L3262,24 L3263,28 L3264,39 L3268,37 L3269,28 L3270,49 L3271,2 L3289,50 L3290,85 L3291,77 L3292,10 L3296,46 L3297,40 L3298,40 L3299,28 L3300,45 L3303,39 L3304,38 L3305,28 L3306,43 L3307,44 L3310,97 L3311,22 L3312,34 L3313,51 L3317,45 L3318,44 L3319,114 L3320,39 L3324,50 L3325,17 L3326,38 L3327,94 L3338,43 L3339,42 L3340,75 L3341,58 L3345,47 L3346,36 L3347,44 L3348,53 L3349,25 L3352,62 L3353,41 L3354,54 L3355,39 L3356,29 L3359,38 L3360,51 L3361,32 L3362,36 L3366,122 L3367,33 L3368,44 L3369,7 L3370,35 L3373,53 L3374,43 L3375,73 L3376,54 L3380,77 L3381,45 L3395,54 L3396,49 L3397,31 L3398,32 L3401,38 L3402,32 L3403,69 L3404,106 L3409,52 L3410,48 L3411,72 L3415,45 L3416,34 L3417,95 L3418,23 L3419,52 L3422,89 L3423,15 L3424,45 L3425,30 L3436,55 L3437,76 L3438,107 L3439,63 L3443,48 L3444,58 L3445,23 L3446,110 L3447,54 L3450,37 L3451,100 L3452,47 L3453,22 L3454,64 L3457,31 L3458,17 L3459,88 L3460,11 L3464,28 L3465,108 L3466,11 L3467,9 L3468,14 L3471,84 L3472,38 L3473,83 L3474,33 L3475,55 L3478,29 L3479,80 L3480,22 L3481,26 L3485,53 L3486,38 L3527,61 L3528,51 L3529,49 L3530,41 L3534,58 L3535,20 L3536,46 L3537,26 L3541,18 L3542,39 L3569,56 L3570,46 L3571,50 L3572,26 L3576,58 L3577,29 L3578,36 L3579,41 L3583,121 L3584,31 L3585,57 L3586,46 L3590,50 L3591,49 L3592,49 L3598,58 L3599,117 L3600,20 L3604,43 L3605,48 L3606,40 L3607,107 L3611,43 L3612,48 L3613,52 L3614,26 L3618,70 L3619,34 L3620,43 L3621,78 L3625,33 L3626,18 L3627,23 L3628,29 L3632,32 L3633,48 L3634,54 L3635,101 L3653,19 L3654,76 L3655,55 L3656,5 L3660,50 L3661,25 L3662,73 L3663,34 L3667,51 L3668,48 L3669,33 L3670,38 L3674,72 L3675,53 L3676,22 L3677,11 L3681,61 L3682,117 L3683,41 L3684,94 L3688,44 L3689,41 L3690,70 L3691,49 L3702,84 L3703,26 L3704,60 L3705,10 L3709,48 L3710,15 L3711,28 L3712,81 L3716,44 L3717,26 L3718,63 L3719,42 L3723,29 L3724,32 L3725,33 L3726,33 L3730,35 L3731,46 L3732,26 L3733,29 L3751,102 L3752,38 L3753,28 L3754,44 L3758,38 L3759,26 L3760,16 L3761,42 L3765,11 L3766,30 L3781,63 L3782,93 L3786,81 L3787,34 L3788,40 L3789,44 L3800,164 L3801,92 L3802,31 L3803,33 L3807,47 L3808,41 L3809,42 L3810,26 L3814,39 L3815,31 L3816,33 L3817,19 L3821,29 L3822,25 L3823,32 L3824,26 L3828,36 L3829,29 L3830,27 L3831,21 l0,-21 L0,0" fill="none" stroke="#808080"/>
<path d="M713,30 L714,265 L715,26" fill="none" stroke="#800000" stroke-width="5"/>
<path d="M1192,82 L1204,225 L1205,20" fill="none" stroke="#804000" stroke-width="5"/>
<path d="M388,24 L391,206 L392,42" fill="none" stroke="#808000" stroke-width="5"/>
<path d="M538,96 L539,197 L540,93" fill="none" stroke="#408000" stroke-width="5"/>
<path d="M416,34 L419,187 L420,78" fill="none" stroke="#008040" stroke-width="5"/>
<path d="M1042,67 L1043,178 L1044,28" fill="none" stroke="#008080" stroke-width="5"/>
<path d="M336,16 L337,169 L338,27" fill="none" stroke="#004080" stroke-width="5"/>
<path d="M1464,43 L1465,168 L1469,101" fill="none" stroke="#400080" stroke-width="5"/>
<path d="M3789,44 L3800,164 L3801,92" fill="none" stroke="#800080" stroke-width="5"/>
<path d="M191,21 L195,158 L196,74" fill="none" stroke="#800040" stroke-width="5"/>
</svg>
</g>
</svg>
<svg height="87.5%" preserveAspectRatio="none" viewBox="-8 -8 3847 281" width="100.1%" xmlns="http://www.w3.org/2000/svg" y="5%">
<g>
<path d="M0,245 L3831,245" stroke="#50505070"/>
<path d="M0,225 L3831,225" stroke="#50505070"/>
<path d="M0,205 L3831,205" stroke="#50505070"/>
<path d="M0,185 L3831,185" stroke="#50505070"/>
<path d="M0,165 L3831,165" stroke="#50505070"/>
<path d="M0,145 L3831,145" stroke="#50505070"/>
<path d="M0,125 L3831,125" stroke="#50505070"/>
<path d="M0,105 L3831,105" stroke="#50505070"/>
<path d="M0,85 L3831,85" stroke="#50505070"/>
<path d="M0,65 L3831,65" stroke="#50505070"/>
<path d="M0,45 L3831,45" stroke="#50505070"/>
<path d="M0,25 L3831,25" stroke="#50505070"/>
<path d="M0,0 L3831,0" stroke="#50505070"/>
</g>
</svg>
<svg height="2.5%" preserveAspectRatio="none" viewBox="-8 -8 3847 281" width="100%" xmlns="http://www.w3.org/2000/svg" y="92.5%">
<g>
<rect fill="#50505070" height="100%" width="0.1%" x="360"/>
<rect fill="#50505070" height="100%" width="0.1%" x="725"/>
<rect fill="#50505070" height="100%" width="0.1%" x="1090"/>
<rect fill="#50505070" height="100%" width="0.1%" x="1455"/>
<rect fill="#50505070" height="100%" width="0.1%" x="1820"/>
<rect fill="#50505070" height="100%" width="0.1%" x="2185"/>
<rect fill="#50505070" height="100%" width="0.1%" x="2550"/>
<rect fill="#50505070" height="100%" width="0.1%" x="2915"/>
<rect fill="#50505070" height="100%" width="0.1%" x="3280"/>
<rect fill="#50505070" height="100%" width="0.1%" x="3645"/>
</g>
</svg>
<svg height="5%" preserveAspectRatio="none" width="100%" xmlns="http://www.w3.org/2000/svg" y="95%">
<text dominant-baseline="middle" fill="#707070" font-family="sans-serif" font-size="28px" font-weight="bold" text-anchor="start" x="0.75%" y="62.5%">
05/01/2016
</text>
<text dominant-baseline="middle" fill="#707070" font-family="sans-serif" font-size="28px" font-weight="bold" text-anchor="end" x="99.25%" y="62.5%">
02/07/2026
</text>
</svg>
</svg>
<g transform="scale(12.5, 1)">
<svg height="87.5%" preserveAspectRatio="none" viewBox="-8 -8 281 281" width="2%" x="-0.9%" xmlns="http://www.w3.org/2000/svg" y="5%">
<g>
<text dominant-baseline="middle" fill="#707070" font-family="sans-serif" font-size="11px" text-anchor="end" x="50%" y="245">
20
</text>
<text dominant-baseline="middle" fill="#707070" font-family="sans-serif" font-size="11px" text-anchor="end" x="50%" y="225">
40
</text>
<text dominant-baseline="middle" fill="#707070" font-family="sans-serif" font-size="11px" text-anchor="end" x="50%" y="205">
60
</text>
<text dominant-baseline="middle" fill="#707070" font-family="sans-serif" font-size="11px" text-anchor="end" x="50%" y="185">
80
</text>
<text dominant-baseline="middle" fill="#707070" font-family="sans-serif" font-size="11px" text-anchor="end" x="50%" y="165">
100
</text>
<text dominant-baseline="middle" fill="#707070" font-family="sans-serif" font-size="11px" text-anchor="end" x="50%" y="145">
120
</text>
<text dominant-baseline="middle" fill="#707070" font-family="sans-serif" font-size="11px" text-anchor="end" x="50%" y="125">
140
</text>
<text dominant-baseline="middle" fill="#707070" font-family="sans-serif" font-size="11px" text-anchor="end" x="50%" y="105">
160
</text>
<text dominant-baseline="middle" fill="#707070" font-family="sans-serif" font-size="11px" text-anchor="end" x="50%" y="85">
180
</text>
<text dominant-baseline="middle" fill="#707070" font-family="sans-serif" font-size="11px" text-anchor="end" x="50%" y="65">
200
</text>
<text dominant-baseline="middle" fill="#707070" font-family="sans-serif" font-size="11px" text-anchor="end" x="50%" y="45">
220
</text>
<text dominant-baseline="middle" fill="#707070" font-family="sans-serif" font-size="11px" text-anchor="end" x="50%" y="25">
240
</text>
<text dominant-baseline="middle" fill="#707070" font-family="sans-serif" font-size="11px" text-anchor="end" x="50%" y="0">
265
</text>
</g>
</svg>
</g>
</svg>
<svg height="10%" width="100%" xmlns="http://www.w3.org/2000/svg" y="90%">
<g>
<rect fill="#800000" height="60%" width="2%" x="6.590909090909092%" y="20%"/>
<text dominant-baseline="middle" fill="#800000" font-family="sans-serif" font-size="30px" font-weight="bold" x="9.590909090909092%" y="50%">
#1
</text>
<rect fill="#804000" height="60%" width="2%" x="15.681818181818183%" y="20%"/>
<text dominant-baseline="middle" fill="#804000" font-family="sans-serif" font-size="30px" font-weight="bold" x="18.681818181818183%" y="50%">
#2
</text>
<rect fill="#808000" height="60%" width="2%" x="24.772727272727273%" y="20%"/>
<text dominant-baseline="middle" fill="#808000" font-family="sans-serif" font-size="30px" font-weight="bold" x="27.772727272727273%" y="50%">
#3
</text>
<rect fill="#408000" height="60%" width="2%" x="33.86363636363637%" y="20%"/>
<text dominant-baseline="middle" fill="#408000" font-family="sans-serif" font-size="30px" font-weight="bold" x="36.86363636363637%" y="50%">
#4
</text>
<rect fill="#008040" height="60%" width="2%" x="42.95454545454545%" y="20%"/>
<text dominant-baseline="middle" fill="#008040" font-family="sans-serif" font-size="30px" font-weight="bold" x="45.95454545454545%" y="50%">
#5
</text>
<rect fill="#008080" height="60%" width="2%" x="52.04545454545455%" y="20%"/>
<text dominant-baseline="middle" fill="#008080" font-family="sans-serif" font-size="30px" font-weight="bold" x="55.04545454545455%" y="50%">
#6
</text>
<rect fill="#004080" height="60%" width="2%" x="61.13636363636363%" y="20%"/>
<text dominant-baseline="middle" fill="#004080" font-family="sans-serif" font-size="30px" font-weight="bold" x="64.13636363636363%" y="50%">
#7
</text>
<rect fill="#400080" height="60%" width="2%" x="70.22727272727273%" y="20%"/>
<text dominant-baseline="middle" fill="#400080" font-family="sans-serif" font-size="30px" font-weight="bold" x="73.22727272727273%" y="50%">
#8
</text>
<rect fill="#800080" height="60%" width="2%" x="79.31818181818181%" y="20%"/>
<text dominant-baseline="middle" fill="#800080" font-family="sans-serif" font-size="30px" font-weight="bold" x="82.31818181818181%" y="50%">
#9
</text>
<rect fill="#800040" height="60%" width="2%" x="88.4090909090909%" y="20%"/>
<text dominant-baseline="middle" fill="#800040" font-family="sans-serif" font-size="30px" font-weight="bold" x="91.4090909090909%" y="50%">
#10
</text>
</g>
</svg>
</svg>
</svg>