<svg height="1024" width="3072" xmlns="http://www.w3.org/2000/svg">
<svg xmlns="http://www.w3.org/2000/svg">
<svg height="90%" width="100%" xmlns="http://www.w3.org/2000/svg">
<svg height="100%" width="97.5%" x="2.5%" xmlns="http://www.w3.org/2000/svg">
<svg height="5%" width="100%" xmlns="http://www.w3.org/2000/svg">
<text dominant-baseline="middle" fill="#707070" font-family="sans-serif" font-size="30px" font-weight="bold" text-anchor="middle" x="50%" y="50%">
Early Day Motions (as supporting signatures) over date tabled (as time in days)
</text>
</svg>
<svg height="87.5%" width="100%" xmlns="http://www.w3.org/2000/svg" y="5%">
<g transform="scale(1 -1)" transform-origin="center">
<svg preserveAspectRatio="none" stroke-width="4" viewBox="-8 -8 2019 177" xmlns="http://www.w3.org/2000/svg">
<path d="M0,0 L0,36 L5,40 L6,30 L7,40 L8,139 L12,40 L13,20 L14,29 L15,16 L19,63 L20,44 L21,81 L22,18 L26,15 L27,22 L28,25 L29,47 L33,80 L34,26 L35,50 L36,61 L47,45 L48,27 L49,104 L50,58 L54,36 L55,23 L56,37 L57,32 L61,32 L62,27 L63,23 L64,76 L65,29 L68,15 L69,30 L70,22 L71,29 L75,58 L76,33 L77,82 L78,49 L96,51 L97,75 L98,12 L99,25 L103,34 L104,7 L105,36 L106,23 L110,32 L111,12 L112,5 L125,101 L126,151 L127,41 L131,52 L132,50 L133,31 L134,103 L138,36 L139,17 L140,74 L141,78 L152,36 L153,44 L154,110 L155,33 L159,119 L160,33 L161,31 L162,43 L166,28 L167,67 L168,28 L169,11 L173,43 L174,26 L175,48 L176,34 L180,44 L181,24 L182,53 L183,57 L187,41 L188,15 L189,30 L190,16 L194,50 L195,29 L196,30 L197,31 L224,23 L243,105 L244,21 L245,32 L246,30 L247,45 L250,32 L251,22 L252,23 L253,17 L257,49 L258,46 L259,41 L260,138 L285,61 L286,85 L287,33 L288,13 L289,15 L292,64 L293,42 L294,24 L295,52 L296,11 L299,32 L300,43 L301,47 L306,45 L307,25 L313,57 L314,31 L315,21 L316,9 L317,67 L320,30 L321,9 L323,39 L327,21 L328,42 L329,28 L330,30 L331,16 L334,49 L335,11 L336,22 L337,21 L338,19 L341,22 L342,10 L343,26 L344,20 L364,31 L365,137 L369,19 L370,77 L371,16 L372,41 L376,26 L377,46 L378,32 L379,26 L380,11 L383,31 L384,66 L385,68 L386,43 L387,14 L390,75 L391,33 L392,28 L393,30 L397,58 L398,38 L399,31 L400,24 L411,32 L412,38 L413,20 L414,31 L415,9 L418,20 L419,82 L420,13 L421,36 L425,25 L426,39 L427,25 L428,24 L432,43 L433,22 L434,23 L435,43 L436,14 L439,25 L440,64 L441,125 L442,13 L446,88 L447,14 L448,22 L449,15 L468,29 L469,19 L470,9 L474,22 L475,3 L476,26 L489,79 L490,62 L491,30 L495,70 L496,112 L497,27 L498,21 L502,47 L503,46 L504,27 L505,39 L516,81 L517,57 L518,25 L519,23 L523,43 L524,28 L525,9 L526,51 L530,45 L531,9 L532,64 L533,9 L537,26 L538,37 L539,67 L540,22 L544,32 L545,33 L546,18 L547,17 L551,55 L552,93 L553,18 L554,18 L555,19 L558,28 L559,25 L560,33 L561,12 L607,49 L608,25 L609,20 L610,43 L623,48 L624,37 L625,17 L643,87 L644,45 L645,16 L649,115 L650,35 L651,39 L652,24 L653,30 L656,27 L657,32 L658,27 L659,20 L660,25 L663,24 L664,27 L665,33 L666,55 L670,57 L671,72 L672,31 L677,48 L678,34 L679,3 L680,24 L684,90 L685,29 L686,27 L687,9 L691,46 L692,17 L693,47 L694,24 L695,13 L698,26 L699,74 L700,63 L701,32 L702,41 L705,61 L706,19 L707,26 L708,36 L712,30 L713,12 L733,37 L734,8 L735,47 L736,41 L740,26 L741,13 L742,73 L743,16 L744,32 L747,61 L748,52 L749,11 L750,31 L754,35 L755,38 L756,20 L757,48 L758,7 L761,21 L762,25 L763,26 L764,11 L775,48 L776,17 L777,9 L778,58 L779,42 L782,23 L783,48 L784,34 L785,26 L786,5 L789,118 L790,29 L791,16 L792,20 L796,32 L797,33 L798,11 L799,7 L800,14 L803,35 L804,44 L805,6 L806,41 L807,18 L810,22 L811,22 L812,49 L813,61 L831,62 L832,27 L833,37 L834,21 L838,39 L839,35 L840,58 L841,42 L846,42 L847,20 L853,34 L854,35 L855,23 L859,31 L860,41 L861,21 L862,35 L866,19 L867,40 L868,18 L869,24 L880,53 L881,23 L882,66 L883,22 L887,38 L888,34 L889,17 L890,30 L894,25 L895,42 L896,26 L897,8 L901,54 L902,41 L903,21 L904,19 L908,22 L909,58 L910,25 L911,30 L915,26 L916,14 L917,19 L918,43 L922,35 L923,24 L924,35 L925,15 L971,47 L972,26 L973,42 L974,14 L978,21 L979,32 L980,29 L981,50 L985,14 L986,17 L1013,37 L1014,95 L1015,5 L1016,13 L1017,8 L1020,27 L1021,22 L1022,18 L1035,105 L1036,76 L1037,22 L1041,27 L1042,13 L1043,32 L1044,16 L1048,32 L1049,52 L1050,63 L1051,11 L1055,35 L1056,20 L1057,27 L1058,16 L1062,40 L1063,34 L1064,50 L1065,90 L1069,48 L1070,51 L1071,29 L1072,23 L1076,34 L1077,44 L1097,97 L1098,8 L1099,12 L1100,24 L1104,8 L1105,57 L1106,17 L1107,48 L1108,17 L1111,15 L1112,12 L1113,37 L1114,26 L1115,36 L1118,22 L1119,30 L1120,22 L1121,45 L1122,29 L1125,33 L1126,17 L1127,73 L1128,24 L1139,49 L1140,36 L1141,89 L1142,10 L1143,27 L1146,27 L1147,15 L1148,9 L1149,22 L1150,9 L1153,33 L1154,12 L1155,32 L1156,15 L1160,71 L1161,18 L1162,21 L1163,16 L1167,21 L1168,46 L1169,16 L1170,31 L1171,30 L1174,25 L1175,68 L1195,30 L1196,4 L1197,20 L1198,23 L1199,7 L1202,37 L1203,25 L1204,31 L1205,13 L1206,24 L1209,24 L1210,29 L1211,10 L1212,21 L1217,42 L1218,40 L1219,20 L1223,29 L1224,16 L1225,33 L1226,8 L1227,17 L1230,14 L1231,13 L1232,19 L1233,15 L1288,95 L1289,33 L1290,19 L1293,57 L1294,65 L1295,31 L1296,23 L1297,21 L1300,22 L1301,42 L1335,123 L1336,21 L1337,11 L1338,7 L1342,30 L1343,25 L1344,51 L1345,28 L1370,84 L1371,62 L1372,71 L1373,110 L1377,42 L1378,37 L1379,26 L1380,65 L1384,39 L1385,31 L1386,23 L1387,5 L1391,28 L1392,70 L1393,54 L1394,20 L1398,19 L1399,53 L1400,37 L1405,57 L1406,34 L1407,32 L1408,41 L1412,42 L1413,15 L1414,53 L1415,46 L1419,46 L1420,44 L1421,40 L1422,12 L1423,26 L1426,26 L1427,55 L1428,5 L1429,27 L1430,28 L1433,68 L1434,24 L1435,28 L1436,39 L1440,37 L1441,28 L1442,49 L1443,2 L1461,50 L1462,85 L1463,77 L1464,10 L1468,46 L1469,40 L1470,40 L1471,28 L1472,45 L1475,39 L1476,38 L1477,28 L1478,43 L1479,44 L1482,97 L1483,22 L1484,34 L1485,51 L1489,45 L1490,44 L1491,114 L1492,39 L1496,50 L1497,17 L1498,38 L1499,94 L1510,43 L1511,42 L1512,75 L1513,58 L1517,47 L1518,36 L1519,44 L1520,53 L1521,25 L1524,62 L1525,41 L1526,54 L1527,39 L1528,29 L1531,38 L1532,51 L1533,32 L1534,36 L1538,122 L1539,33 L1540,44 L1541,7 L1542,35 L1545,53 L1546,43 L1547,73 L1548,54 L1552,77 L1553,45 L1567,54 L1568,49 L1569,31 L1570,32 L1573,38 L1574,32 L1575,69 L1576,106 L1581,52 L1582,48 L1583,72 L1587,45 L1588,34 L1589,95 L1590,23 L1591,52 L1594,89 L1595,15 L1596,45 L1597,30 L1608,55 L1609,76 L1610,107 L1611,63 L1615,48 L1616,58 L1617,23 L1618,110 L1619,54 L1622,37 L1623,100 L1624,47 L1625,22 L1626,64 L1629,31 L1630,17 L1631,88 L1632,11 L1636,28 L1637,108 L1638,11 L1639,9 L1640,14 L1643,84 L1644,38 L1645,83 L1646,33 L1647,55 L1650,29 L1651,80 L1652,22 L1653,26 L1657,53 L1658,38 L1699,61 L1700,51 L1701,49 L1702,41 L1706,58 L1707,20 L1708,46 L1709,26 L1713,18 L1714,39 L1741,56 L1742,46 L1743,50 L1744,26 L1748,58 L1749,29 L1750,36 L1751,41 L1755,121 L1756,31 L1757,57 L1758,46 L1762,50 L1763,49 L1764,49 L1770,58 L1771,117 L1772,20 L1776,43 L1777,48 L1778,40 L1779,107 L1783,43 L1784,48 L1785,52 L1786,26 L1790,70 L1791,34 L1792,43 L1793,78 L1797,33 L1798,18 L1799,23 L1800,29 L1804,32 L1805,48 L1806,54 L1807,101 L1825,19 L1826,76 L1827,55 L1828,5 L1832,50 L1833,25 L1834,73 L1835,34 L1839,51 L1840,48 L1841,33 L1842,38 L1846,72 L1847,53 L1848,22 L1849,11 L1853,61 L1854,117 L1855,41 L1856,94 L1860,44 L1861,41 L1862,70 L1863,49 L1874,84 L1875,26 L1876,60 L1877,10 L1881,48 L1882,15 L1883,28 L1884,81 L1888,44 L1889,26 L1890,63 L1891,42 L1895,29 L1896,32 L1897,33 L1898,33 L1902,35 L1903,46 L1904,26 L1905,29 L1923,102 L1924,38 L1925,28 L1926,44 L1930,38 L1931,26 L1932,16 L1933,42 L1937,11 L1938,30 L1953,63 L1954,91 L1958,80 L1959,34 L1960,40 L1961,44 L1972,161 L1973,85 L1974,29 L1975,31 L1979,46 L1980,38 L1981,42 L1982,25 L1986,37 L1987,30 L1988,32 L1989,19 L1993,26 L1994,24 L1995,26 L1996,23 L2000,31 L2001,25 L2002,20 L2003,8 l0,-8 L0,0" fill="none" stroke="#808080"/>
<path d="M1961,44 L1972,161 L1973,85" fill="none" stroke="#800000" stroke-width="5"/>
<path d="M125,101 L126,151 L127,41" fill="none" stroke="#804000" stroke-width="5"/>
<path d="M7,40 L8,139 L12,40" fill="none" stroke="#808000" stroke-width="5"/>
<path d="M259,41 L260,138 L285,61" fill="none" stroke="#408000" stroke-width="5"/>
<path d="M364,31 L365,137 L369,19" fill="none" stroke="#008040" stroke-width="5"/>
<path d="M440,64 L441,125 L442,13" fill="none" stroke="#008080" stroke-width="5"/>
<path d="M1301,42 L1335,123 L1336,21" fill="none" stroke="#004080" stroke-width="5"/>
<path d="M1534,36 L1538,122 L1539,33" fill="none" stroke="#400080" stroke-width="5"/>
<path d="M1751,41 L1755,121 L1756,31" fill="none" stroke="#800080" stroke-width="5"/>
<path d="M155,33 L159,119 L160,33" fill="none" stroke="#800040" stroke-width="5"/>
</svg>
</g>
</svg>
<svg height="87.5%" preserveAspectRatio="none" viewBox="-8 -8 2019 177" width="100.1%" xmlns="http://www.w3.org/2000/svg" y="5%">
<g>
<path d="M0,149 L2003,149" stroke="#50505070"/>
<path d="M0,137 L2003,137" stroke="#50505070"/>
<path d="M0,125 L2003,125" stroke="#50505070"/>
<path d="M0,113 L2003,113" stroke="#50505070"/>
<path d="M0,101 L2003,101" stroke="#50505070"/>
<path d="M0,89 L2003,89" stroke="#50505070"/>
<path d="M0,77 L2003,77" stroke="#50505070"/>
<path d="M0,65 L2003,65" stroke="#50505070"/>
<path d="M0,53 L2003,53" stroke="#50505070"/>
<path d="M0,41 L2003,41" stroke="#50505070"/>
<path d="M0,29 L2003,29" stroke="#50505070"/>
<path d="M0,17 L2003,17" stroke="#50505070"/>
<path d="M0,0 L2003,0" stroke="#50505070"/>
</g>
</svg>
<svg height="2.5%" preserveAspectRatio="none" viewBox="-8 -8 2019 177" width="100%" xmlns="http://www.w3.org/2000/svg" y="92.5%">
<g>
<rect fill="#50505070" height="100%" width="0.1%" x="359"/>
<rect fill="#50505070" height="100%" width="0.1%" x="724"/>
<rect fill="#50505070" height="100%" width="0.1%" x="1089"/>
<rect fill="#50505070" height="100%" width="0.1%" x="1454"/>
<rect fill="#50505070" height="100%" width="0.1%" x="1819"/>
</g>
</svg>
<svg height="5%" preserveAspectRatio="none" width="100%" xmlns="http://www.w3.org/2000/svg" y="95%">
<text dominant-baseline="middle" fill="#707070" font-family="sans-serif" font-size="28px" font-weight="bold" text-anchor="start" x="0.75%" y="62.5%">
06/01/2021
</text>
<text dominant-baseline="middle" fill="#707070" font-family="sans-serif" font-size="28px" font-weight="bold" text-anchor="end" x="99.25%" y="62.5%">
02/07/2026
</text>
</svg>
</svg>
<g transform="scale(12.5, 1)">
<svg height="87.5%" preserveAspectRatio="none" viewBox="-8 -8 177 177" width="2%" x="-0.9%" xmlns="http://www.w3.org/2000/svg" y="5%">
<g>
<text dominant-baseline="middle" fill="#707070" font-family="sans-serif" font-size="7px" text-anchor="end" x="50%" y="149">
12
</text>
<text dominant-baseline="middle" fill="#707070" font-family="sans-serif" font-size="7px" text-anchor="end" x="50%" y="137">
24
</text>
<text dominant-baseline="middle" fill="#707070" font-family="sans-serif" font-size="7px" text-anchor="end" x="50%" y="125">
36
</text>
<text dominant-baseline="middle" fill="#707070" font-family="sans-serif" font-size="7px" text-anchor="end" x="50%" y="113">
48
</text>
<text dominant-baseline="middle" fill="#707070" font-family="sans-serif" font-size="7px" text-anchor="end" x="50%" y="101">
60
</text>
<text dominant-baseline="middle" fill="#707070" font-family="sans-serif" font-size="7px" text-anchor="end" x="50%" y="89">
72
</text>
<text dominant-baseline="middle" fill="#707070" font-family="sans-serif" font-size="7px" text-anchor="end" x="50%" y="77">
84
</text>
<text dominant-baseline="middle" fill="#707070" font-family="sans-serif" font-size="7px" text-anchor="end" x="50%" y="65">
96
</text>
<text dominant-baseline="middle" fill="#707070" font-family="sans-serif" font-size="7px" text-anchor="end" x="50%" y="53">
108
</text>
<text dominant-baseline="middle" fill="#707070" font-family="sans-serif" font-size="7px" text-anchor="end" x="50%" y="41">
120
</text>
<text dominant-baseline="middle" fill="#707070" font-family="sans-serif" font-size="7px" text-anchor="end" x="50%" y="29">
132
</text>
<text dominant-baseline="middle" fill="#707070" font-family="sans-serif" font-size="7px" text-anchor="end" x="50%" y="17">
144
</text>
<text dominant-baseline="middle" fill="#707070" font-family="sans-serif" font-size="7px" text-anchor="end" x="50%" y="0">
161
</text>
</g>
</svg>
</g>
</svg>
<svg height="10%" width="100%" xmlns="http://www.w3.org/2000/svg" y="90%">
<g>
<rect fill="#800000" height="60%" width="2%" x="6.590909090909092%" y="20%"/>
<text dominant-baseline="middle" fill="#800000" font-family="sans-serif" font-size="30px" font-weight="bold" x="9.590909090909092%" y="50%">
#1
</text>
<rect fill="#804000" height="60%" width="2%" x="15.681818181818183%" y="20%"/>
<text dominant-baseline="middle" fill="#804000" font-family="sans-serif" font-size="30px" font-weight="bold" x="18.681818181818183%" y="50%">
#2
</text>
<rect fill="#808000" height="60%" width="2%" x="24.772727272727273%" y="20%"/>
<text dominant-baseline="middle" fill="#808000" font-family="sans-serif" font-size="30px" font-weight="bold" x="27.772727272727273%" y="50%">
#3
</text>
<rect fill="#408000" height="60%" width="2%" x="33.86363636363637%" y="20%"/>
<text dominant-baseline="middle" fill="#408000" font-family="sans-serif" font-size="30px" font-weight="bold" x="36.86363636363637%" y="50%">
#4
</text>
<rect fill="#008040" height="60%" width="2%" x="42.95454545454545%" y="20%"/>
<text dominant-baseline="middle" fill="#008040" font-family="sans-serif" font-size="30px" font-weight="bold" x="45.95454545454545%" y="50%">
#5
</text>
<rect fill="#008080" height="60%" width="2%" x="52.04545454545455%" y="20%"/>
<text dominant-baseline="middle" fill="#008080" font-family="sans-serif" font-size="30px" font-weight="bold" x="55.04545454545455%" y="50%">
#6
</text>
<rect fill="#004080" height="60%" width="2%" x="61.13636363636363%" y="20%"/>
<text dominant-baseline="middle" fill="#004080" font-family="sans-serif" font-size="30px" font-weight="bold" x="64.13636363636363%" y="50%">
#7
</text>
<rect fill="#400080" height="60%" width="2%" x="70.22727272727273%" y="20%"/>
<text dominant-baseline="middle" fill="#400080" font-family="sans-serif" font-size="30px" font-weight="bold" x="73.22727272727273%" y="50%">
#8
</text>
<rect fill="#800080" height="60%" width="2%" x="79.31818181818181%" y="20%"/>
<text dominant-baseline="middle" fill="#800080" font-family="sans-serif" font-size="30px" font-weight="bold" x="82.31818181818181%" y="50%">
#9
</text>
<rect fill="#800040" height="60%" width="2%" x="88.4090909090909%" y="20%"/>
<text dominant-baseline="middle" fill="#800040" font-family="sans-serif" font-size="30px" font-weight="bold" x="91.4090909090909%" y="50%">
#10
</text>
</g>
</svg>
</svg>
</svg>