<svg height="1024" width="3072" xmlns="http://www.w3.org/2000/svg">
<svg xmlns="http://www.w3.org/2000/svg">
<svg height="90%" width="100%" xmlns="http://www.w3.org/2000/svg">
<svg height="100%" width="97.5%" x="2.5%" xmlns="http://www.w3.org/2000/svg">
<svg height="5%" width="100%" xmlns="http://www.w3.org/2000/svg">
<text dominant-baseline="middle" fill="#707070" font-family="sans-serif" font-size="30px" font-weight="bold" text-anchor="middle" x="50%" y="50%">
Fatal Prayer Motions (as supporting signatures) over date tabled (as time in days)
</text>
</svg>
<svg height="87.5%" width="100%" xmlns="http://www.w3.org/2000/svg" y="5%">
<g transform="scale(1 -1)" transform-origin="center">
<svg preserveAspectRatio="none" stroke-width="4" viewBox="-8 -8 11138 300" xmlns="http://www.w3.org/2000/svg">
<path d="M0,0 L0,23 L1,10 L2,6 L6,14 L7,10 L8,6 L9,5 L10,13 L27,18 L28,15 L36,6 L38,12 L44,6 L49,24 L51,10 L55,15 L57,17 L58,7 L62,10 L69,16 L71,13 L78,1 L84,14 L85,6 L99,13 L100,7 L104,6 L111,11 L112,10 L125,20 L126,9 L153,25 L155,7 L163,6 L164,4 L175,13 L177,2 L182,12 L197,6 L279,4 L280,10 L288,18 L289,6 L293,19 L294,20 L297,17 L300,15 L303,6 L307,60 L309,9 L322,18 L324,43 L329,1 L332,6 L339,6 L344,6 L372,8 L378,11 L385,10 L386,9 L387,6 L398,11 L399,10 L401,19 L420,10 L421,6 L422,6 L433,12 L435,1 L436,1 L491,27 L518,27 L532,8 L569,2 L667,6 L673,10 L687,45 L689,27 L693,6 L694,13 L699,7 L700,3 L702,6 L703,6 L706,34 L707,2 L709,5 L745,5 L748,21 L749,6 L756,6 L758,11 L759,6 L762,6 L763,6 L764,6 L766,6 L769,6 L770,7 L776,6 L779,6 L780,6 L783,7 L784,7 L785,6 L786,6 L787,6 L790,6 L791,9 L792,6 L794,7 L797,7 L798,6 L800,7 L801,6 L804,6 L805,6 L806,6 L807,6 L808,6 L811,7 L812,10 L813,6 L832,6 L833,7 L840,6 L841,6 L842,6 L860,7 L861,6 L862,6 L891,7 L896,6 L903,6 L904,7 L909,6 L910,6 L1014,7 L1015,6 L1024,25 L1028,6 L1029,6 L1031,6 L1035,6 L1038,6 L1043,7 L1051,14 L1056,12 L1073,7 L1099,3 L1112,6 L1114,3 L1121,6 L1122,6 L1126,10 L1127,6 L1129,6 L1134,6 L1140,80 L1142,6 L1144,6 L1149,11 L1151,6 L1156,4 L1157,6 L1158,16 L1169,6 L1191,6 L1213,6 L1224,3 L1252,8 L1255,13 L1276,6 L1290,6 L1294,4 L1295,5 L1387,6 L1393,8 L1400,8 L1401,1 L1408,6 L1409,18 L1427,6 L1470,6 L1477,6 L1492,8 L1512,4 L1520,6 L1526,9 L1540,7 L1561,84 L1582,6 L1619,6 L1654,6 L1661,3 L1758,27 L1759,6 L1766,6 L1779,11 L1793,49 L1805,20 L1826,6 L1828,9 L1835,6 L1841,4 L1856,13 L1858,4 L1890,11 L1910,13 L1911,7 L1918,13 L2095,15 L2127,6 L2129,9 L2137,23 L2158,17 L2163,6 L2170,7 L2171,6 L2192,15 L2200,9 L2211,6 L2212,6 L2214,7 L2220,6 L2240,6 L2246,6 L2253,11 L2261,6 L2263,42 L2267,22 L2283,117 L2285,6 L2304,9 L2311,6 L2323,18 L2344,14 L2345,12 L2353,9 L2366,14 L2381,10 L2386,6 L2387,11 L2388,7 L2477,7 L2513,25 L2533,31 L2563,32 L2578,7 L2589,11 L2614,6 L2618,13 L2620,7 L2680,11 L2703,36 L2708,29 L2709,27 L2710,29 L2716,12 L2743,5 L2746,12 L2799,15 L2800,21 L2801,21 L2806,8 L2835,9 L2858,18 L2878,62 L2884,17 L2890,17 L2899,35 L2919,38 L2920,12 L2933,14 L2935,38 L2989,12 L2990,35 L2996,29 L3005,25 L3026,16 L3033,7 L3052,32 L3055,32 L3059,28 L3115,21 L3116,41 L3117,8 L3207,16 L3241,51 L3262,21 L3289,39 L3291,41 L3298,12 L3303,252 L3304,15 L3310,8 L3338,29 L3340,15 L3348,2 L3355,14 L3359,11 L3418,21 L3457,13 L3459,13 L3472,80 L3479,42 L3481,4 L3562,193 L3563,18 L3573,16 L3577,41 L3586,32 L3607,34 L3614,13 L3627,43 L3655,11 L3660,10 L3674,36 L3682,32 L3709,42 L3723,84 L3731,37 L3733,8 L3752,17 L3767,14 L3772,14 L3807,16 L3814,18 L3822,15 L3926,26 L3934,35 L3976,28 L3990,52 L3991,13 L4026,18 L4038,15 L4046,12 L4060,10 L4061,12 L4069,16 L4083,12 L4089,92 L4115,40 L4124,11 L4132,3 L4138,49 L4146,15 L4165,9 L4174,14 L4178,57 L4187,10 L4291,7 L4341,15 L4382,9 L4402,7 L4411,3 L4430,8 L4437,11 L4467,32 L4468,20 L4496,30 L4503,7 L4507,13 L4528,21 L4529,23 L4537,8 L4564,15 L4566,34 L4654,6 L4655,6 L4656,19 L4661,9 L4664,42 L4684,17 L4685,16 L4697,7 L4704,6 L4712,23 L4713,24 L4720,9 L4724,16 L4727,13 L4752,8 L4755,6 L4762,15 L4767,8 L4781,29 L4795,16 L4808,7 L4815,13 L4829,14 L4830,9 L4851,2 L4875,6 L4914,7 L4920,6 L4921,1 L4935,35 L4941,12 L5025,19 L5028,30 L5041,15 L5048,29 L5062,18 L5067,7 L5089,8 L5110,21 L5117,7 L5131,7 L5137,23 L5145,96 L5161,6 L5179,6 L5193,15 L5265,4 L5362,46 L5390,6 L5425,7 L5441,30 L5530,1 L5546,94 L5552,138 L5559,11 L5720,7 L5754,14 L5770,45 L5796,11 L5798,20 L5845,16 L5853,10 L5922,8 L5965,1 L6124,1 L6126,16 L6128,1 L6168,3 L6222,30 L6244,41 L6257,4 L6258,214 L6259,17 L6274,155 L6286,19 L6336,2 L6342,108 L6386,6 L6553,14 L6583,2 L6603,43 L6625,66 L6649,54 L6650,51 L6666,6 L6762,10 L6869,284 L6897,30 L6898,7 L6905,5 L6918,17 L6946,35 L6972,60 L7007,50 L7121,46 L7132,131 L7188,24 L7227,1 L7230,17 L7233,74 L7273,90 L7280,14 L7282,18 L7301,34 L7302,1 L7307,67 L7365,97 L7377,95 L7398,9 L7400,19 L7443,10 L7454,12 L7545,23 L7580,31 L7594,130 L7609,7 L7615,22 L7631,10 L7672,24 L7699,18 L7713,93 L7715,13 L7720,187 L7721,78 L7727,86 L7736,105 L7742,76 L7750,43 L7751,14 L7771,33 L7834,45 L7842,30 L7854,97 L7860,50 L7861,18 L7967,1 L7982,1 L8065,56 L8066,77 L8079,35 L8086,35 L8102,15 L8107,11 L8108,139 L8135,32 L8142,118 L8143,29 L8190,14 L8204,20 L8282,15 L8325,6 L8344,21 L8380,1 L8416,13 L8420,13 L8423,17 L8428,46 L8435,16 L8448,69 L8451,13 L8469,15 L8485,1 L8493,82 L8591,2 L8596,15 L8836,8 L8882,49 L8913,138 L8917,15 L8945,18 L8947,14 L8960,55 L8961,20 L9009,1 L9135,17 L9155,5 L9191,10 L9200,10 L9204,19 L9206,82 L9232,10 L9270,9 L9353,6 L9382,4 L9389,10 L9442,25 L9443,18 L9499,1 L9568,19 L9577,12 L9675,7 L9689,15 L9822,1 L9864,47 L9877,52 L9885,20 L9906,9 L9928,7 L10032,4 L10046,2 L10052,8 L10164,35 L10184,13 L10299,31 L10300,10 L10303,1 L10333,6 L10464,82 L10515,8 L10543,32 L10590,2 L10627,22 L10639,4 L10712,4 L10751,9 L10760,3 L10766,8 L10776,22 L10786,12 L10870,25 L10968,19 L10989,7 L11017,27 L11053,38 L11061,14 L11082,54 L11101,161 L11102,15 L11122,14 l0,-14 L0,0" fill="none" stroke="#808080"/>
<path d="M6762,10 L6869,284 L6897,30" fill="none" stroke="#800000" stroke-width="5"/>
<path d="M3298,12 L3303,252 L3304,15" fill="none" stroke="#804000" stroke-width="5"/>
<path d="M6257,4 L6258,214 L6259,17" fill="none" stroke="#808000" stroke-width="5"/>
<path d="M3481,4 L3562,193 L3563,18" fill="none" stroke="#408000" stroke-width="5"/>
<path d="M7715,13 L7720,187 L7721,78" fill="none" stroke="#008040" stroke-width="5"/>
<path d="M11082,54 L11101,161 L11102,15" fill="none" stroke="#008080" stroke-width="5"/>
<path d="M6259,17 L6274,155 L6286,19" fill="none" stroke="#004080" stroke-width="5"/>
<path d="M8107,11 L8108,139 L8135,32" fill="none" stroke="#400080" stroke-width="5"/>
<path d="M5546,94 L5552,138 L5559,11" fill="none" stroke="#800080" stroke-width="5"/>
<path d="M8882,49 L8913,138 L8917,15" fill="none" stroke="#800040" stroke-width="5"/>
</svg>
</g>
</svg>
<svg height="87.5%" preserveAspectRatio="none" viewBox="-8 -8 11138 300" width="100.1%" xmlns="http://www.w3.org/2000/svg" y="5%">
<g>
<path d="M0,263 L11122,263" stroke="#50505070"/>
<path d="M0,242 L11122,242" stroke="#50505070"/>
<path d="M0,221 L11122,221" stroke="#50505070"/>
<path d="M0,200 L11122,200" stroke="#50505070"/>
<path d="M0,179 L11122,179" stroke="#50505070"/>
<path d="M0,158 L11122,158" stroke="#50505070"/>
<path d="M0,137 L11122,137" stroke="#50505070"/>
<path d="M0,116 L11122,116" stroke="#50505070"/>
<path d="M0,95 L11122,95" stroke="#50505070"/>
<path d="M0,74 L11122,74" stroke="#50505070"/>
<path d="M0,53 L11122,53" stroke="#50505070"/>
<path d="M0,32 L11122,32" stroke="#50505070"/>
<path d="M0,0 L11122,0" stroke="#50505070"/>
</g>
</svg>
<svg height="2.5%" preserveAspectRatio="none" viewBox="-8 -8 11138 300" width="100%" xmlns="http://www.w3.org/2000/svg" y="92.5%">
<g>
<rect fill="#50505070" height="100%" width="0.1%" x="356"/>
<rect fill="#50505070" height="100%" width="0.1%" x="721"/>
<rect fill="#50505070" height="100%" width="0.1%" x="1086"/>
<rect fill="#50505070" height="100%" width="0.1%" x="1451"/>
<rect fill="#50505070" height="100%" width="0.1%" x="1816"/>
<rect fill="#50505070" height="100%" width="0.1%" x="2181"/>
<rect fill="#50505070" height="100%" width="0.1%" x="2546"/>
<rect fill="#50505070" height="100%" width="0.1%" x="2911"/>
<rect fill="#50505070" height="100%" width="0.1%" x="3276"/>
<rect fill="#50505070" height="100%" width="0.1%" x="3641"/>
<rect fill="#50505070" height="100%" width="0.1%" x="4006"/>
<rect fill="#50505070" height="100%" width="0.1%" x="4371"/>
<rect fill="#50505070" height="100%" width="0.1%" x="4736"/>
<rect fill="#50505070" height="100%" width="0.1%" x="5101"/>
<rect fill="#50505070" height="100%" width="0.1%" x="5466"/>
<rect fill="#50505070" height="100%" width="0.1%" x="5831"/>
<rect fill="#50505070" height="100%" width="0.1%" x="6196"/>
<rect fill="#50505070" height="100%" width="0.1%" x="6561"/>
<rect fill="#50505070" height="100%" width="0.1%" x="6926"/>
<rect fill="#50505070" height="100%" width="0.1%" x="7291"/>
<rect fill="#50505070" height="100%" width="0.1%" x="7656"/>
<rect fill="#50505070" height="100%" width="0.1%" x="8021"/>
<rect fill="#50505070" height="100%" width="0.1%" x="8386"/>
<rect fill="#50505070" height="100%" width="0.1%" x="8751"/>
<rect fill="#50505070" height="100%" width="0.1%" x="9116"/>
<rect fill="#50505070" height="100%" width="0.1%" x="9481"/>
<rect fill="#50505070" height="100%" width="0.1%" x="9846"/>
<rect fill="#50505070" height="100%" width="0.1%" x="10211"/>
<rect fill="#50505070" height="100%" width="0.1%" x="10576"/>
<rect fill="#50505070" height="100%" width="0.1%" x="10941"/>
</g>
</svg>
<svg height="5%" preserveAspectRatio="none" width="100%" xmlns="http://www.w3.org/2000/svg" y="95%">
<text dominant-baseline="middle" fill="#707070" font-family="sans-serif" font-size="28px" font-weight="bold" text-anchor="start" x="0.75%" y="62.5%">
09/01/1996
</text>
<text dominant-baseline="middle" fill="#707070" font-family="sans-serif" font-size="28px" font-weight="bold" text-anchor="end" x="99.25%" y="62.5%">
22/06/2026
</text>
</svg>
</svg>
<g transform="scale(12.5, 1)">
<svg height="87.5%" preserveAspectRatio="none" viewBox="-8 -8 300 300" width="2%" x="-0.9%" xmlns="http://www.w3.org/2000/svg" y="5%">
<g>
<text dominant-baseline="middle" fill="#707070" font-family="sans-serif" font-size="12px" text-anchor="end" x="50%" y="263">
21
</text>
<text dominant-baseline="middle" fill="#707070" font-family="sans-serif" font-size="12px" text-anchor="end" x="50%" y="242">
42
</text>
<text dominant-baseline="middle" fill="#707070" font-family="sans-serif" font-size="12px" text-anchor="end" x="50%" y="221">
63
</text>
<text dominant-baseline="middle" fill="#707070" font-family="sans-serif" font-size="12px" text-anchor="end" x="50%" y="200">
84
</text>
<text dominant-baseline="middle" fill="#707070" font-family="sans-serif" font-size="12px" text-anchor="end" x="50%" y="179">
105
</text>
<text dominant-baseline="middle" fill="#707070" font-family="sans-serif" font-size="12px" text-anchor="end" x="50%" y="158">
126
</text>
<text dominant-baseline="middle" fill="#707070" font-family="sans-serif" font-size="12px" text-anchor="end" x="50%" y="137">
147
</text>
<text dominant-baseline="middle" fill="#707070" font-family="sans-serif" font-size="12px" text-anchor="end" x="50%" y="116">
168
</text>
<text dominant-baseline="middle" fill="#707070" font-family="sans-serif" font-size="12px" text-anchor="end" x="50%" y="95">
189
</text>
<text dominant-baseline="middle" fill="#707070" font-family="sans-serif" font-size="12px" text-anchor="end" x="50%" y="74">
210
</text>
<text dominant-baseline="middle" fill="#707070" font-family="sans-serif" font-size="12px" text-anchor="end" x="50%" y="53">
231
</text>
<text dominant-baseline="middle" fill="#707070" font-family="sans-serif" font-size="12px" text-anchor="end" x="50%" y="32">
252
</text>
<text dominant-baseline="middle" fill="#707070" font-family="sans-serif" font-size="12px" text-anchor="end" x="50%" y="0">
284
</text>
</g>
</svg>
</g>
</svg>
<svg height="10%" width="100%" xmlns="http://www.w3.org/2000/svg" y="90%">
<g>
<rect fill="#800000" height="60%" width="2%" x="6.590909090909092%" y="20%"/>
<text dominant-baseline="middle" fill="#800000" font-family="sans-serif" font-size="30px" font-weight="bold" x="9.590909090909092%" y="50%">
#1
</text>
<rect fill="#804000" height="60%" width="2%" x="15.681818181818183%" y="20%"/>
<text dominant-baseline="middle" fill="#804000" font-family="sans-serif" font-size="30px" font-weight="bold" x="18.681818181818183%" y="50%">
#2
</text>
<rect fill="#808000" height="60%" width="2%" x="24.772727272727273%" y="20%"/>
<text dominant-baseline="middle" fill="#808000" font-family="sans-serif" font-size="30px" font-weight="bold" x="27.772727272727273%" y="50%">
#3
</text>
<rect fill="#408000" height="60%" width="2%" x="33.86363636363637%" y="20%"/>
<text dominant-baseline="middle" fill="#408000" font-family="sans-serif" font-size="30px" font-weight="bold" x="36.86363636363637%" y="50%">
#4
</text>
<rect fill="#008040" height="60%" width="2%" x="42.95454545454545%" y="20%"/>
<text dominant-baseline="middle" fill="#008040" font-family="sans-serif" font-size="30px" font-weight="bold" x="45.95454545454545%" y="50%">
#5
</text>
<rect fill="#008080" height="60%" width="2%" x="52.04545454545455%" y="20%"/>
<text dominant-baseline="middle" fill="#008080" font-family="sans-serif" font-size="30px" font-weight="bold" x="55.04545454545455%" y="50%">
#6
</text>
<rect fill="#004080" height="60%" width="2%" x="61.13636363636363%" y="20%"/>
<text dominant-baseline="middle" fill="#004080" font-family="sans-serif" font-size="30px" font-weight="bold" x="64.13636363636363%" y="50%">
#7
</text>
<rect fill="#400080" height="60%" width="2%" x="70.22727272727273%" y="20%"/>
<text dominant-baseline="middle" fill="#400080" font-family="sans-serif" font-size="30px" font-weight="bold" x="73.22727272727273%" y="50%">
#8
</text>
<rect fill="#800080" height="60%" width="2%" x="79.31818181818181%" y="20%"/>
<text dominant-baseline="middle" fill="#800080" font-family="sans-serif" font-size="30px" font-weight="bold" x="82.31818181818181%" y="50%">
#9
</text>
<rect fill="#800040" height="60%" width="2%" x="88.4090909090909%" y="20%"/>
<text dominant-baseline="middle" fill="#800040" font-family="sans-serif" font-size="30px" font-weight="bold" x="91.4090909090909%" y="50%">
#10
</text>
</g>
</svg>
</svg>
</svg>