<svg height="1024" width="3072" xmlns="http://www.w3.org/2000/svg">
<svg xmlns="http://www.w3.org/2000/svg">
<svg height="90%" width="100%" xmlns="http://www.w3.org/2000/svg">
<svg height="100%" width="97.5%" x="2.5%" xmlns="http://www.w3.org/2000/svg">
<svg height="5%" width="100%" xmlns="http://www.w3.org/2000/svg">
<text dominant-baseline="middle" fill="#707070" font-family="sans-serif" font-size="30px" font-weight="bold" text-anchor="middle" x="50%" y="50%">
Fatal Prayer Motions (as supporting signatures) over date tabled (as time in days)
</text>
</svg>
<svg height="87.5%" width="100%" xmlns="http://www.w3.org/2000/svg" y="5%">
<g transform="scale(1 -1)" transform-origin="center">
<svg preserveAspectRatio="none" stroke-width="4" viewBox="-8 -8 13378 300" xmlns="http://www.w3.org/2000/svg">
<path d="M0,0 L0,12 L1,16 L2,17 L6,7 L14,9 L22,13 L28,6 L29,42 L48,11 L49,14 L50,29 L51,11 L66,11 L71,7 L76,12 L79,5 L83,15 L85,10 L90,13 L92,9 L93,6 L100,8 L104,9 L105,14 L107,9 L108,24 L111,13 L112,9 L113,8 L114,6 L118,37 L119,5 L120,10 L121,6 L125,10 L126,6 L127,11 L128,6 L132,11 L133,7 L135,6 L148,16 L149,6 L153,10 L154,8 L155,7 L156,10 L160,10 L169,8 L170,8 L175,6 L181,8 L182,6 L210,19 L211,9 L212,6 L216,6 L225,7 L226,9 L230,6 L233,6 L240,6 L247,4 L289,1 L328,10 L329,7 L335,8 L336,6 L337,8 L338,9 L339,6 L343,8 L351,9 L352,6 L357,9 L358,8 L359,6 L363,3 L366,6 L370,6 L371,10 L372,6 L379,8 L385,11 L386,10 L388,9 L392,6 L419,10 L420,11 L421,7 L427,9 L436,25 L444,5 L449,7 L450,6 L454,14 L463,12 L464,6 L468,15 L469,10 L470,6 L484,9 L486,7 L489,11 L492,12 L510,9 L511,12 L518,8 L520,6 L526,6 L532,5 L547,6 L559,60 L569,1 L588,18 L589,24 L594,8 L597,66 L604,1 L608,35 L610,14 L692,18 L693,28 L694,11 L709,89 L715,15 L737,11 L738,11 L744,6 L758,6 L784,49 L791,12 L800,2 L807,3 L819,10 L826,12 L833,4 L835,14 L836,3 L904,13 L940,7 L954,3 L968,1 L1063,35 L1064,14 L1066,6 L1070,18 L1071,16 L1078,13 L1079,11 L1085,166 L1086,5 L1087,15 L1088,24 L1091,12 L1092,5 L1098,8 L1099,10 L1109,18 L1112,18 L1122,8 L1147,11 L1148,18 L1150,12 L1154,20 L1156,57 L1162,61 L1163,11 L1175,10 L1182,20 L1185,13 L1190,17 L1191,4 L1196,22 L1197,14 L1199,17 L1206,21 L1210,23 L1212,16 L1214,20 L1217,19 L1218,21 L1221,19 L1224,37 L1226,8 L1248,22 L1253,11 L1254,8 L1255,11 L1260,16 L1266,18 L1273,14 L1296,13 L1303,8 L1309,17 L1311,16 L1317,22 L1322,1 L1324,11 L1333,6 L1339,11 L1340,12 L1343,9 L1427,30 L1428,15 L1429,17 L1430,6 L1434,16 L1435,10 L1436,11 L1443,7 L1464,20 L1470,12 L1471,12 L1472,5 L1477,11 L1479,4 L1480,57 L1483,13 L1485,9 L1513,6 L1514,10 L1518,10 L1519,21 L1520,22 L1525,20 L1528,15 L1533,19 L1534,13 L1542,11 L1546,13 L1548,10 L1554,13 L1556,5 L1561,6 L1562,13 L1563,6 L1564,16 L1568,12 L1569,11 L1570,10 L1571,13 L1574,13 L1582,4 L1588,5 L1590,6 L1591,5 L1603,23 L1605,14 L1610,24 L1616,9 L1625,22 L1638,8 L1639,13 L1667,10 L1672,13 L1679,14 L1688,15 L1693,15 L1696,13 L1700,12 L1701,11 L1702,9 L1703,6 L1791,22 L1795,26 L1799,13 L1800,9 L1801,7 L1806,9 L1821,53 L1822,34 L1827,24 L1828,11 L1829,9 L1830,15 L1834,11 L1836,9 L1837,15 L1840,4 L1841,12 L1843,6 L1850,6 L1855,21 L1877,12 L1879,12 L1883,15 L1885,6 L1886,14 L1889,15 L1890,11 L1891,14 L1898,11 L1899,6 L1905,13 L1906,10 L1912,16 L1913,16 L1918,9 L1919,7 L1925,19 L1926,10 L1928,13 L1931,10 L1932,13 L1934,6 L1938,6 L1939,13 L1945,21 L1954,6 L1955,12 L1959,14 L1960,9 L1961,10 L1974,12 L1976,6 L1983,9 L2001,14 L2008,16 L2009,11 L2010,10 L2017,5 L2026,10 L2031,18 L2032,6 L2043,6 L2044,10 L2046,10 L2052,13 L2058,12 L2060,4 L2064,11 L2065,3 L2066,6 L2155,12 L2156,15 L2158,9 L2164,7 L2165,7 L2170,11 L2171,5 L2172,7 L2185,82 L2186,24 L2192,19 L2197,11 L2198,18 L2200,11 L2204,86 L2205,8 L2206,7 L2208,26 L2212,10 L2213,12 L2214,14 L2240,23 L2241,10 L2242,6 L2246,14 L2247,10 L2248,6 L2249,5 L2250,13 L2267,18 L2268,15 L2276,6 L2278,12 L2284,6 L2289,24 L2291,10 L2295,15 L2297,17 L2298,7 L2302,10 L2309,16 L2311,13 L2318,1 L2324,14 L2325,6 L2339,13 L2340,7 L2344,6 L2351,11 L2352,10 L2365,20 L2366,9 L2393,25 L2395,7 L2403,6 L2404,4 L2415,13 L2417,2 L2422,12 L2437,6 L2519,4 L2520,10 L2528,18 L2529,6 L2533,19 L2534,20 L2537,17 L2540,15 L2543,6 L2547,60 L2549,9 L2562,18 L2564,43 L2569,1 L2572,6 L2579,6 L2584,6 L2612,8 L2618,11 L2625,10 L2626,9 L2627,6 L2638,11 L2639,10 L2641,19 L2660,10 L2661,6 L2662,6 L2673,12 L2675,1 L2676,1 L2731,27 L2758,27 L2772,8 L2809,2 L2907,6 L2913,10 L2927,45 L2929,27 L2933,6 L2934,13 L2939,7 L2940,3 L2942,6 L2943,6 L2946,34 L2947,2 L2949,5 L2985,5 L2988,21 L2989,6 L2996,6 L2998,11 L2999,6 L3002,6 L3003,6 L3004,6 L3006,6 L3009,6 L3010,7 L3016,6 L3019,6 L3020,6 L3023,7 L3024,7 L3025,6 L3026,6 L3027,6 L3030,6 L3031,9 L3032,6 L3034,7 L3037,7 L3038,6 L3040,7 L3041,6 L3044,6 L3045,6 L3046,6 L3047,6 L3048,6 L3051,7 L3052,10 L3053,6 L3072,6 L3073,7 L3080,6 L3081,6 L3082,6 L3100,7 L3101,6 L3102,6 L3131,7 L3136,6 L3143,6 L3144,7 L3149,6 L3150,6 L3254,7 L3255,6 L3264,25 L3268,6 L3269,6 L3271,6 L3275,6 L3278,6 L3283,7 L3291,14 L3296,12 L3313,7 L3339,3 L3352,6 L3354,3 L3361,6 L3362,6 L3366,10 L3367,6 L3369,6 L3374,6 L3380,80 L3382,6 L3384,6 L3389,11 L3391,6 L3396,4 L3397,6 L3398,16 L3409,6 L3431,6 L3453,6 L3464,3 L3492,8 L3495,13 L3516,6 L3530,6 L3534,4 L3535,5 L3627,6 L3633,8 L3640,8 L3641,1 L3648,6 L3649,18 L3667,6 L3710,6 L3717,6 L3732,8 L3752,4 L3760,6 L3766,9 L3780,7 L3801,84 L3822,6 L3859,6 L3894,6 L3901,3 L3998,27 L3999,6 L4006,6 L4019,11 L4033,49 L4045,20 L4066,6 L4068,9 L4075,6 L4081,4 L4096,13 L4098,4 L4130,11 L4150,13 L4151,7 L4158,13 L4335,15 L4367,6 L4369,9 L4377,23 L4398,17 L4403,6 L4410,7 L4411,6 L4432,15 L4440,9 L4451,6 L4452,6 L4454,7 L4460,6 L4480,6 L4486,6 L4493,11 L4501,6 L4503,42 L4507,22 L4523,117 L4525,6 L4544,9 L4551,6 L4563,18 L4584,14 L4585,12 L4593,9 L4606,14 L4621,10 L4626,6 L4627,11 L4628,7 L4717,7 L4753,25 L4773,31 L4803,32 L4818,7 L4829,11 L4854,6 L4858,13 L4860,7 L4920,11 L4943,36 L4948,29 L4949,27 L4950,29 L4956,12 L4983,5 L4986,12 L5039,15 L5040,21 L5041,21 L5046,8 L5075,9 L5098,18 L5118,62 L5124,17 L5130,17 L5139,35 L5159,38 L5160,12 L5173,14 L5175,38 L5229,12 L5230,35 L5236,29 L5245,25 L5266,16 L5273,7 L5292,32 L5295,32 L5299,28 L5355,21 L5356,41 L5357,8 L5447,16 L5481,51 L5502,21 L5529,39 L5531,41 L5538,12 L5543,252 L5544,15 L5550,8 L5578,29 L5580,15 L5588,2 L5595,14 L5599,11 L5658,21 L5697,13 L5699,13 L5712,80 L5719,42 L5721,4 L5802,193 L5803,18 L5813,16 L5817,41 L5826,32 L5847,34 L5854,13 L5867,43 L5895,11 L5900,10 L5914,36 L5922,32 L5949,42 L5963,84 L5971,37 L5973,8 L5992,17 L6007,14 L6012,14 L6047,16 L6054,18 L6062,15 L6166,26 L6174,35 L6216,28 L6230,52 L6231,13 L6266,18 L6278,15 L6286,12 L6300,10 L6301,12 L6309,16 L6323,12 L6329,92 L6355,40 L6364,11 L6372,3 L6378,49 L6386,15 L6405,9 L6414,14 L6418,57 L6427,10 L6531,7 L6581,15 L6622,9 L6642,7 L6651,3 L6670,8 L6677,11 L6707,32 L6708,20 L6736,30 L6743,7 L6747,13 L6768,21 L6769,23 L6777,8 L6804,15 L6806,34 L6894,6 L6895,6 L6896,19 L6901,9 L6904,42 L6924,17 L6925,16 L6937,7 L6944,6 L6952,23 L6953,24 L6960,9 L6964,16 L6967,13 L6992,8 L6995,6 L7002,15 L7007,8 L7021,29 L7035,16 L7048,7 L7055,13 L7069,14 L7070,9 L7091,2 L7115,6 L7154,7 L7160,6 L7161,1 L7175,35 L7181,12 L7265,19 L7268,30 L7281,15 L7288,29 L7302,18 L7307,7 L7329,8 L7350,21 L7357,7 L7371,7 L7377,23 L7385,96 L7401,6 L7419,6 L7433,15 L7505,4 L7602,46 L7630,6 L7665,7 L7681,30 L7770,1 L7786,94 L7792,138 L7799,11 L7960,7 L7994,14 L8010,45 L8036,11 L8038,20 L8085,16 L8093,10 L8162,8 L8205,1 L8364,1 L8366,16 L8368,1 L8408,3 L8462,30 L8484,41 L8497,4 L8498,214 L8499,17 L8514,155 L8526,19 L8576,2 L8582,108 L8626,6 L8793,14 L8823,2 L8843,43 L8865,66 L8889,54 L8890,51 L8906,6 L9002,10 L9109,284 L9137,30 L9138,7 L9145,5 L9158,17 L9186,35 L9212,60 L9247,50 L9361,46 L9372,131 L9428,24 L9467,1 L9470,17 L9473,74 L9513,90 L9520,14 L9522,18 L9541,34 L9542,1 L9547,67 L9605,97 L9617,95 L9638,9 L9640,19 L9683,10 L9694,12 L9785,23 L9820,31 L9834,130 L9849,7 L9855,22 L9871,10 L9912,24 L9939,18 L9953,93 L9955,13 L9960,187 L9961,78 L9967,86 L9976,105 L9982,76 L9990,43 L9991,14 L10011,33 L10074,45 L10082,30 L10094,97 L10100,50 L10101,18 L10207,1 L10222,1 L10305,56 L10306,77 L10319,35 L10326,35 L10342,15 L10347,11 L10348,139 L10375,32 L10382,118 L10383,29 L10430,14 L10444,20 L10522,15 L10565,6 L10584,21 L10620,1 L10656,13 L10660,13 L10663,17 L10668,46 L10675,16 L10688,69 L10691,13 L10709,15 L10725,1 L10733,82 L10831,2 L10836,15 L11076,8 L11122,49 L11153,138 L11157,15 L11185,18 L11187,14 L11200,55 L11201,20 L11249,1 L11375,17 L11395,5 L11431,10 L11440,10 L11444,19 L11446,82 L11472,10 L11510,9 L11593,6 L11622,4 L11629,10 L11682,25 L11683,18 L11739,1 L11808,19 L11817,12 L11915,7 L11929,15 L12062,1 L12104,47 L12117,52 L12125,20 L12146,9 L12168,7 L12272,4 L12286,2 L12292,8 L12404,35 L12424,13 L12539,31 L12540,10 L12543,1 L12573,6 L12704,82 L12755,8 L12783,32 L12830,2 L12867,22 L12879,4 L12952,4 L12991,9 L13000,3 L13006,8 L13016,22 L13026,12 L13110,25 L13208,19 L13229,7 L13257,27 L13293,38 L13301,14 L13322,54 L13341,161 L13342,15 L13362,14 l0,-14 L0,0" fill="none" stroke="#808080"/>
<path d="M9002,10 L9109,284 L9137,30" fill="none" stroke="#800000" stroke-width="5"/>
<path d="M5538,12 L5543,252 L5544,15" fill="none" stroke="#804000" stroke-width="5"/>
<path d="M8497,4 L8498,214 L8499,17" fill="none" stroke="#808000" stroke-width="5"/>
<path d="M5721,4 L5802,193 L5803,18" fill="none" stroke="#408000" stroke-width="5"/>
<path d="M9955,13 L9960,187 L9961,78" fill="none" stroke="#008040" stroke-width="5"/>
<path d="M1079,11 L1085,166 L1086,5" fill="none" stroke="#008080" stroke-width="5"/>
<path d="M13322,54 L13341,161 L13342,15" fill="none" stroke="#004080" stroke-width="5"/>
<path d="M8499,17 L8514,155 L8526,19" fill="none" stroke="#400080" stroke-width="5"/>
<path d="M10347,11 L10348,139 L10375,32" fill="none" stroke="#800080" stroke-width="5"/>
<path d="M7786,94 L7792,138 L7799,11" fill="none" stroke="#800040" stroke-width="5"/>
</svg>
</g>
</svg>
<svg height="87.5%" preserveAspectRatio="none" viewBox="-8 -8 13378 300" width="100.1%" xmlns="http://www.w3.org/2000/svg" y="5%">
<g>
<path d="M0,263 L13362,263" stroke="#50505070"/>
<path d="M0,242 L13362,242" stroke="#50505070"/>
<path d="M0,221 L13362,221" stroke="#50505070"/>
<path d="M0,200 L13362,200" stroke="#50505070"/>
<path d="M0,179 L13362,179" stroke="#50505070"/>
<path d="M0,158 L13362,158" stroke="#50505070"/>
<path d="M0,137 L13362,137" stroke="#50505070"/>
<path d="M0,116 L13362,116" stroke="#50505070"/>
<path d="M0,95 L13362,95" stroke="#50505070"/>
<path d="M0,74 L13362,74" stroke="#50505070"/>
<path d="M0,53 L13362,53" stroke="#50505070"/>
<path d="M0,32 L13362,32" stroke="#50505070"/>
<path d="M0,0 L13362,0" stroke="#50505070"/>
</g>
</svg>
<svg height="2.5%" preserveAspectRatio="none" viewBox="-8 -8 13378 300" width="100%" xmlns="http://www.w3.org/2000/svg" y="92.5%">
<g>
<rect fill="#50505070" height="100%" width="0.1%" x="134"/>
<rect fill="#50505070" height="100%" width="0.1%" x="499"/>
<rect fill="#50505070" height="100%" width="0.1%" x="864"/>
<rect fill="#50505070" height="100%" width="0.1%" x="1229"/>
<rect fill="#50505070" height="100%" width="0.1%" x="1594"/>
<rect fill="#50505070" height="100%" width="0.1%" x="1959"/>
<rect fill="#50505070" height="100%" width="0.1%" x="2324"/>
<rect fill="#50505070" height="100%" width="0.1%" x="2689"/>
<rect fill="#50505070" height="100%" width="0.1%" x="3054"/>
<rect fill="#50505070" height="100%" width="0.1%" x="3419"/>
<rect fill="#50505070" height="100%" width="0.1%" x="3784"/>
<rect fill="#50505070" height="100%" width="0.1%" x="4149"/>
<rect fill="#50505070" height="100%" width="0.1%" x="4514"/>
<rect fill="#50505070" height="100%" width="0.1%" x="4879"/>
<rect fill="#50505070" height="100%" width="0.1%" x="5244"/>
<rect fill="#50505070" height="100%" width="0.1%" x="5609"/>
<rect fill="#50505070" height="100%" width="0.1%" x="5974"/>
<rect fill="#50505070" height="100%" width="0.1%" x="6339"/>
<rect fill="#50505070" height="100%" width="0.1%" x="6704"/>
<rect fill="#50505070" height="100%" width="0.1%" x="7069"/>
<rect fill="#50505070" height="100%" width="0.1%" x="7434"/>
<rect fill="#50505070" height="100%" width="0.1%" x="7799"/>
<rect fill="#50505070" height="100%" width="0.1%" x="8164"/>
<rect fill="#50505070" height="100%" width="0.1%" x="8529"/>
<rect fill="#50505070" height="100%" width="0.1%" x="8894"/>
<rect fill="#50505070" height="100%" width="0.1%" x="9259"/>
<rect fill="#50505070" height="100%" width="0.1%" x="9624"/>
<rect fill="#50505070" height="100%" width="0.1%" x="9989"/>
<rect fill="#50505070" height="100%" width="0.1%" x="10354"/>
<rect fill="#50505070" height="100%" width="0.1%" x="10719"/>
<rect fill="#50505070" height="100%" width="0.1%" x="11084"/>
<rect fill="#50505070" height="100%" width="0.1%" x="11449"/>
<rect fill="#50505070" height="100%" width="0.1%" x="11814"/>
<rect fill="#50505070" height="100%" width="0.1%" x="12179"/>
<rect fill="#50505070" height="100%" width="0.1%" x="12544"/>
<rect fill="#50505070" height="100%" width="0.1%" x="12909"/>
<rect fill="#50505070" height="100%" width="0.1%" x="13274"/>
</g>
</svg>
<svg height="5%" preserveAspectRatio="none" width="100%" xmlns="http://www.w3.org/2000/svg" y="95%">
<text dominant-baseline="middle" fill="#707070" font-family="sans-serif" font-size="28px" font-weight="bold" text-anchor="start" x="0.75%" y="62.5%">
21/11/1989
</text>
<text dominant-baseline="middle" fill="#707070" font-family="sans-serif" font-size="28px" font-weight="bold" text-anchor="end" x="99.25%" y="62.5%">
22/06/2026
</text>
</svg>
</svg>
<g transform="scale(12.5, 1)">
<svg height="87.5%" preserveAspectRatio="none" viewBox="-8 -8 300 300" width="2%" x="-0.9%" xmlns="http://www.w3.org/2000/svg" y="5%">
<g>
<text dominant-baseline="middle" fill="#707070" font-family="sans-serif" font-size="12px" text-anchor="end" x="50%" y="263">
21
</text>
<text dominant-baseline="middle" fill="#707070" font-family="sans-serif" font-size="12px" text-anchor="end" x="50%" y="242">
42
</text>
<text dominant-baseline="middle" fill="#707070" font-family="sans-serif" font-size="12px" text-anchor="end" x="50%" y="221">
63
</text>
<text dominant-baseline="middle" fill="#707070" font-family="sans-serif" font-size="12px" text-anchor="end" x="50%" y="200">
84
</text>
<text dominant-baseline="middle" fill="#707070" font-family="sans-serif" font-size="12px" text-anchor="end" x="50%" y="179">
105
</text>
<text dominant-baseline="middle" fill="#707070" font-family="sans-serif" font-size="12px" text-anchor="end" x="50%" y="158">
126
</text>
<text dominant-baseline="middle" fill="#707070" font-family="sans-serif" font-size="12px" text-anchor="end" x="50%" y="137">
147
</text>
<text dominant-baseline="middle" fill="#707070" font-family="sans-serif" font-size="12px" text-anchor="end" x="50%" y="116">
168
</text>
<text dominant-baseline="middle" fill="#707070" font-family="sans-serif" font-size="12px" text-anchor="end" x="50%" y="95">
189
</text>
<text dominant-baseline="middle" fill="#707070" font-family="sans-serif" font-size="12px" text-anchor="end" x="50%" y="74">
210
</text>
<text dominant-baseline="middle" fill="#707070" font-family="sans-serif" font-size="12px" text-anchor="end" x="50%" y="53">
231
</text>
<text dominant-baseline="middle" fill="#707070" font-family="sans-serif" font-size="12px" text-anchor="end" x="50%" y="32">
252
</text>
<text dominant-baseline="middle" fill="#707070" font-family="sans-serif" font-size="12px" text-anchor="end" x="50%" y="0">
284
</text>
</g>
</svg>
</g>
</svg>
<svg height="10%" width="100%" xmlns="http://www.w3.org/2000/svg" y="90%">
<g>
<rect fill="#800000" height="60%" width="2%" x="6.590909090909092%" y="20%"/>
<text dominant-baseline="middle" fill="#800000" font-family="sans-serif" font-size="30px" font-weight="bold" x="9.590909090909092%" y="50%">
#1
</text>
<rect fill="#804000" height="60%" width="2%" x="15.681818181818183%" y="20%"/>
<text dominant-baseline="middle" fill="#804000" font-family="sans-serif" font-size="30px" font-weight="bold" x="18.681818181818183%" y="50%">
#2
</text>
<rect fill="#808000" height="60%" width="2%" x="24.772727272727273%" y="20%"/>
<text dominant-baseline="middle" fill="#808000" font-family="sans-serif" font-size="30px" font-weight="bold" x="27.772727272727273%" y="50%">
#3
</text>
<rect fill="#408000" height="60%" width="2%" x="33.86363636363637%" y="20%"/>
<text dominant-baseline="middle" fill="#408000" font-family="sans-serif" font-size="30px" font-weight="bold" x="36.86363636363637%" y="50%">
#4
</text>
<rect fill="#008040" height="60%" width="2%" x="42.95454545454545%" y="20%"/>
<text dominant-baseline="middle" fill="#008040" font-family="sans-serif" font-size="30px" font-weight="bold" x="45.95454545454545%" y="50%">
#5
</text>
<rect fill="#008080" height="60%" width="2%" x="52.04545454545455%" y="20%"/>
<text dominant-baseline="middle" fill="#008080" font-family="sans-serif" font-size="30px" font-weight="bold" x="55.04545454545455%" y="50%">
#6
</text>
<rect fill="#004080" height="60%" width="2%" x="61.13636363636363%" y="20%"/>
<text dominant-baseline="middle" fill="#004080" font-family="sans-serif" font-size="30px" font-weight="bold" x="64.13636363636363%" y="50%">
#7
</text>
<rect fill="#400080" height="60%" width="2%" x="70.22727272727273%" y="20%"/>
<text dominant-baseline="middle" fill="#400080" font-family="sans-serif" font-size="30px" font-weight="bold" x="73.22727272727273%" y="50%">
#8
</text>
<rect fill="#800080" height="60%" width="2%" x="79.31818181818181%" y="20%"/>
<text dominant-baseline="middle" fill="#800080" font-family="sans-serif" font-size="30px" font-weight="bold" x="82.31818181818181%" y="50%">
#9
</text>
<rect fill="#800040" height="60%" width="2%" x="88.4090909090909%" y="20%"/>
<text dominant-baseline="middle" fill="#800040" font-family="sans-serif" font-size="30px" font-weight="bold" x="91.4090909090909%" y="50%">
#10
</text>
</g>
</svg>
</svg>
</svg>