<svg height="1024" width="3072" xmlns="http://www.w3.org/2000/svg">
<svg xmlns="http://www.w3.org/2000/svg">
<svg height="90%" width="100%" xmlns="http://www.w3.org/2000/svg">
<svg height="100%" width="97.5%" x="2.5%" xmlns="http://www.w3.org/2000/svg">
<svg height="5%" width="100%" xmlns="http://www.w3.org/2000/svg">
<text dominant-baseline="middle" fill="#707070" font-family="sans-serif" font-size="30px" font-weight="bold" text-anchor="middle" x="50%" y="50%">
Fatal Prayer Motions (as supporting signatures) over date tabled as time in days
</text>
</svg>
<svg height="87.5%" width="100%" xmlns="http://www.w3.org/2000/svg" y="5%">
<g transform="scale(1 -1)" transform-origin="center">
<svg preserveAspectRatio="none" stroke-width="4" viewBox="-8 -8 7483 300" xmlns="http://www.w3.org/2000/svg">
<path d="M0,0 L0,11 L5,10 L19,36 L27,32 L54,42 L68,84 L76,37 L78,8 L97,17 L112,14 L117,14 L152,16 L159,18 L167,15 L271,26 L279,35 L321,28 L335,52 L336,13 L371,18 L383,15 L391,12 L405,10 L406,12 L414,16 L428,12 L434,92 L460,40 L469,11 L477,3 L483,49 L491,15 L510,9 L519,14 L523,57 L532,10 L636,7 L686,15 L727,9 L747,7 L756,3 L775,8 L782,11 L812,32 L813,20 L841,30 L848,7 L852,13 L873,21 L874,23 L882,8 L909,15 L911,34 L999,6 L1000,6 L1001,19 L1006,9 L1009,42 L1029,17 L1030,16 L1042,7 L1049,6 L1057,23 L1058,24 L1065,9 L1069,16 L1072,13 L1097,8 L1100,6 L1107,15 L1112,8 L1126,29 L1140,16 L1153,7 L1160,13 L1174,14 L1175,9 L1196,2 L1220,6 L1259,7 L1265,6 L1266,1 L1280,35 L1286,12 L1370,19 L1373,30 L1386,15 L1393,29 L1407,18 L1412,7 L1434,8 L1455,21 L1462,7 L1476,7 L1482,23 L1490,96 L1506,6 L1524,6 L1538,15 L1610,4 L1707,46 L1735,6 L1770,7 L1786,30 L1875,1 L1891,94 L1897,138 L1904,11 L2065,7 L2099,14 L2115,45 L2141,11 L2143,20 L2190,16 L2198,10 L2267,8 L2310,1 L2469,1 L2471,16 L2473,1 L2513,3 L2567,30 L2589,41 L2602,4 L2603,214 L2604,17 L2619,155 L2631,19 L2681,2 L2687,108 L2731,6 L2898,14 L2928,2 L2948,43 L2970,66 L2994,54 L2995,51 L3011,6 L3107,10 L3214,284 L3242,30 L3243,7 L3250,5 L3263,17 L3291,35 L3317,60 L3352,50 L3466,46 L3477,131 L3533,24 L3572,1 L3575,17 L3578,74 L3618,90 L3625,14 L3627,18 L3646,34 L3647,1 L3652,67 L3710,97 L3722,95 L3743,9 L3745,19 L3788,10 L3799,12 L3890,23 L3925,31 L3939,130 L3954,7 L3960,22 L3976,10 L4017,24 L4044,18 L4058,93 L4060,13 L4065,187 L4066,78 L4072,86 L4081,105 L4087,76 L4095,43 L4096,14 L4116,33 L4179,45 L4187,30 L4199,97 L4205,50 L4206,18 L4312,1 L4327,1 L4410,56 L4411,77 L4424,35 L4431,35 L4447,15 L4452,11 L4453,139 L4480,32 L4487,118 L4488,29 L4535,14 L4549,20 L4627,15 L4670,6 L4689,21 L4725,1 L4761,13 L4765,13 L4768,17 L4773,46 L4780,16 L4793,69 L4796,13 L4814,15 L4830,1 L4838,82 L4936,2 L4941,15 L5181,8 L5227,49 L5258,138 L5262,15 L5290,18 L5292,14 L5305,55 L5306,20 L5354,1 L5480,17 L5500,5 L5536,10 L5545,10 L5549,19 L5551,82 L5577,10 L5615,9 L5698,6 L5727,4 L5734,10 L5787,25 L5788,18 L5844,1 L5913,19 L5922,12 L6020,7 L6034,15 L6167,1 L6209,47 L6222,52 L6230,20 L6251,9 L6273,7 L6377,4 L6391,2 L6397,8 L6509,35 L6529,13 L6644,31 L6645,10 L6648,1 L6678,6 L6809,82 L6860,8 L6888,32 L6935,2 L6972,22 L6984,4 L7057,4 L7096,9 L7105,3 L7111,8 L7121,22 L7131,12 L7215,25 L7313,19 L7334,7 L7362,27 L7398,38 L7406,14 L7427,54 L7446,159 L7447,15 L7467,14 l0,-14 L0,0" fill="none" stroke="#808080"/>
<path d="M3107,10 L3214,284 L3242,30" fill="none" stroke="#800000" stroke-width="5"/>
<path d="M2602,4 L2603,214 L2604,17" fill="none" stroke="#804000" stroke-width="5"/>
<path d="M4060,13 L4065,187 L4066,78" fill="none" stroke="#808000" stroke-width="5"/>
<path d="M7427,54 L7446,159 L7447,15" fill="none" stroke="#408000" stroke-width="5"/>
<path d="M2604,17 L2619,155 L2631,19" fill="none" stroke="#008040" stroke-width="5"/>
<path d="M4452,11 L4453,139 L4480,32" fill="none" stroke="#008080" stroke-width="5"/>
<path d="M1891,94 L1897,138 L1904,11" fill="none" stroke="#004080" stroke-width="5"/>
<path d="M5227,49 L5258,138 L5262,15" fill="none" stroke="#400080" stroke-width="5"/>
<path d="M3466,46 L3477,131 L3533,24" fill="none" stroke="#800080" stroke-width="5"/>
<path d="M3925,31 L3939,130 L3954,7" fill="none" stroke="#800040" stroke-width="5"/>
</svg>
</g>
</svg>
<svg height="87.5%" preserveAspectRatio="none" viewBox="-8 -8 7483 300" width="100.1%" xmlns="http://www.w3.org/2000/svg" y="5%">
<g>
<path d="M0,263 L7467,263" stroke="#50505070"/>
<path d="M0,242 L7467,242" stroke="#50505070"/>
<path d="M0,221 L7467,221" stroke="#50505070"/>
<path d="M0,200 L7467,200" stroke="#50505070"/>
<path d="M0,179 L7467,179" stroke="#50505070"/>
<path d="M0,158 L7467,158" stroke="#50505070"/>
<path d="M0,137 L7467,137" stroke="#50505070"/>
<path d="M0,116 L7467,116" stroke="#50505070"/>
<path d="M0,95 L7467,95" stroke="#50505070"/>
<path d="M0,74 L7467,74" stroke="#50505070"/>
<path d="M0,53 L7467,53" stroke="#50505070"/>
<path d="M0,32 L7467,32" stroke="#50505070"/>
<path d="M0,0 L7467,0" stroke="#50505070"/>
</g>
</svg>
<svg height="2.5%" preserveAspectRatio="none" viewBox="-8 -8 7483 300" width="100%" xmlns="http://www.w3.org/2000/svg" y="92.5%">
<g>
<rect fill="#50505070" height="100%" width="0.1%" x="354"/>
<rect fill="#50505070" height="100%" width="0.1%" x="719"/>
<rect fill="#50505070" height="100%" width="0.1%" x="1084"/>
<rect fill="#50505070" height="100%" width="0.1%" x="1449"/>
<rect fill="#50505070" height="100%" width="0.1%" x="1814"/>
<rect fill="#50505070" height="100%" width="0.1%" x="2179"/>
<rect fill="#50505070" height="100%" width="0.1%" x="2544"/>
<rect fill="#50505070" height="100%" width="0.1%" x="2909"/>
<rect fill="#50505070" height="100%" width="0.1%" x="3274"/>
<rect fill="#50505070" height="100%" width="0.1%" x="3639"/>
<rect fill="#50505070" height="100%" width="0.1%" x="4004"/>
<rect fill="#50505070" height="100%" width="0.1%" x="4369"/>
<rect fill="#50505070" height="100%" width="0.1%" x="4734"/>
<rect fill="#50505070" height="100%" width="0.1%" x="5099"/>
<rect fill="#50505070" height="100%" width="0.1%" x="5464"/>
<rect fill="#50505070" height="100%" width="0.1%" x="5829"/>
<rect fill="#50505070" height="100%" width="0.1%" x="6194"/>
<rect fill="#50505070" height="100%" width="0.1%" x="6559"/>
<rect fill="#50505070" height="100%" width="0.1%" x="6924"/>
<rect fill="#50505070" height="100%" width="0.1%" x="7289"/>
</g>
</svg>
<svg height="5%" preserveAspectRatio="none" width="100%" xmlns="http://www.w3.org/2000/svg" y="95%">
<text dominant-baseline="middle" fill="#707070" font-family="sans-serif" font-size="28px" font-weight="bold" text-anchor="start" x="0.75%" y="62.5%">
11/01/2006
</text>
<text dominant-baseline="middle" fill="#707070" font-family="sans-serif" font-size="28px" font-weight="bold" text-anchor="end" x="99.25%" y="62.5%">
22/06/2026
</text>
</svg>
</svg>
<g transform="scale(12.5, 1)">
<svg height="87.5%" preserveAspectRatio="none" viewBox="-8 -8 300 300" width="2%" x="-0.9%" xmlns="http://www.w3.org/2000/svg" y="5%">
<g>
<text dominant-baseline="middle" fill="#707070" font-family="sans-serif" font-size="12px" text-anchor="end" x="50%" y="263">
21
</text>
<text dominant-baseline="middle" fill="#707070" font-family="sans-serif" font-size="12px" text-anchor="end" x="50%" y="242">
42
</text>
<text dominant-baseline="middle" fill="#707070" font-family="sans-serif" font-size="12px" text-anchor="end" x="50%" y="221">
63
</text>
<text dominant-baseline="middle" fill="#707070" font-family="sans-serif" font-size="12px" text-anchor="end" x="50%" y="200">
84
</text>
<text dominant-baseline="middle" fill="#707070" font-family="sans-serif" font-size="12px" text-anchor="end" x="50%" y="179">
105
</text>
<text dominant-baseline="middle" fill="#707070" font-family="sans-serif" font-size="12px" text-anchor="end" x="50%" y="158">
126
</text>
<text dominant-baseline="middle" fill="#707070" font-family="sans-serif" font-size="12px" text-anchor="end" x="50%" y="137">
147
</text>
<text dominant-baseline="middle" fill="#707070" font-family="sans-serif" font-size="12px" text-anchor="end" x="50%" y="116">
168
</text>
<text dominant-baseline="middle" fill="#707070" font-family="sans-serif" font-size="12px" text-anchor="end" x="50%" y="95">
189
</text>
<text dominant-baseline="middle" fill="#707070" font-family="sans-serif" font-size="12px" text-anchor="end" x="50%" y="74">
210
</text>
<text dominant-baseline="middle" fill="#707070" font-family="sans-serif" font-size="12px" text-anchor="end" x="50%" y="53">
231
</text>
<text dominant-baseline="middle" fill="#707070" font-family="sans-serif" font-size="12px" text-anchor="end" x="50%" y="32">
252
</text>
<text dominant-baseline="middle" fill="#707070" font-family="sans-serif" font-size="12px" text-anchor="end" x="50%" y="0">
284
</text>
</g>
</svg>
</g>
</svg>
<svg height="10%" width="100%" xmlns="http://www.w3.org/2000/svg" y="90%">
<g>
<rect fill="#800000" height="60%" width="2%" x="6.590909090909092%" y="20%"/>
<text dominant-baseline="middle" fill="#800000" font-family="sans-serif" font-size="30px" font-weight="bold" x="9.590909090909092%" y="50%">
#1
</text>
<rect fill="#804000" height="60%" width="2%" x="15.681818181818183%" y="20%"/>
<text dominant-baseline="middle" fill="#804000" font-family="sans-serif" font-size="30px" font-weight="bold" x="18.681818181818183%" y="50%">
#2
</text>
<rect fill="#808000" height="60%" width="2%" x="24.772727272727273%" y="20%"/>
<text dominant-baseline="middle" fill="#808000" font-family="sans-serif" font-size="30px" font-weight="bold" x="27.772727272727273%" y="50%">
#3
</text>
<rect fill="#408000" height="60%" width="2%" x="33.86363636363637%" y="20%"/>
<text dominant-baseline="middle" fill="#408000" font-family="sans-serif" font-size="30px" font-weight="bold" x="36.86363636363637%" y="50%">
#4
</text>
<rect fill="#008040" height="60%" width="2%" x="42.95454545454545%" y="20%"/>
<text dominant-baseline="middle" fill="#008040" font-family="sans-serif" font-size="30px" font-weight="bold" x="45.95454545454545%" y="50%">
#5
</text>
<rect fill="#008080" height="60%" width="2%" x="52.04545454545455%" y="20%"/>
<text dominant-baseline="middle" fill="#008080" font-family="sans-serif" font-size="30px" font-weight="bold" x="55.04545454545455%" y="50%">
#6
</text>
<rect fill="#004080" height="60%" width="2%" x="61.13636363636363%" y="20%"/>
<text dominant-baseline="middle" fill="#004080" font-family="sans-serif" font-size="30px" font-weight="bold" x="64.13636363636363%" y="50%">
#7
</text>
<rect fill="#400080" height="60%" width="2%" x="70.22727272727273%" y="20%"/>
<text dominant-baseline="middle" fill="#400080" font-family="sans-serif" font-size="30px" font-weight="bold" x="73.22727272727273%" y="50%">
#8
</text>
<rect fill="#800080" height="60%" width="2%" x="79.31818181818181%" y="20%"/>
<text dominant-baseline="middle" fill="#800080" font-family="sans-serif" font-size="30px" font-weight="bold" x="82.31818181818181%" y="50%">
#9
</text>
<rect fill="#800040" height="60%" width="2%" x="88.4090909090909%" y="20%"/>
<text dominant-baseline="middle" fill="#800040" font-family="sans-serif" font-size="30px" font-weight="bold" x="91.4090909090909%" y="50%">
#10
</text>
</g>
</svg>
</svg>
</svg>