<svg height="1024" width="3072" xmlns="http://www.w3.org/2000/svg">
<svg xmlns="http://www.w3.org/2000/svg">
<svg height="90%" width="100%" xmlns="http://www.w3.org/2000/svg">
<svg height="100%" width="97.5%" x="2.5%" xmlns="http://www.w3.org/2000/svg">
<svg height="5%" width="100%" xmlns="http://www.w3.org/2000/svg">
<text dominant-baseline="middle" fill="#707070" font-family="sans-serif" font-size="30px" font-weight="bold" text-anchor="middle" x="50%" y="50%">
Fatal Prayer Motions (as supporting signatures) over date tabled (as time in days)
</text>
</svg>
<svg height="87.5%" width="100%" xmlns="http://www.w3.org/2000/svg" y="5%">
<g transform="scale(1 -1)" transform-origin="center">
<svg preserveAspectRatio="none" stroke-width="4" viewBox="-8 -8 3837 203" xmlns="http://www.w3.org/2000/svg">
<path d="M0,0 L0,34 L1,1 L6,67 L64,97 L76,95 L97,9 L99,19 L142,10 L153,12 L244,23 L279,31 L293,130 L308,7 L314,22 L330,10 L371,24 L398,18 L412,93 L414,13 L419,187 L420,78 L426,86 L435,105 L441,76 L449,43 L450,14 L470,33 L533,45 L541,30 L553,97 L559,50 L560,18 L666,1 L681,1 L764,56 L765,77 L778,35 L785,35 L801,15 L806,11 L807,139 L834,32 L841,118 L842,29 L889,14 L903,20 L981,15 L1024,6 L1043,21 L1079,1 L1115,13 L1119,13 L1122,17 L1127,46 L1134,16 L1147,69 L1150,13 L1168,15 L1184,1 L1192,82 L1290,2 L1295,15 L1535,8 L1581,49 L1612,138 L1616,15 L1644,18 L1646,14 L1659,55 L1660,20 L1708,1 L1834,17 L1854,5 L1890,10 L1899,10 L1903,19 L1905,82 L1931,10 L1969,9 L2052,6 L2081,4 L2088,10 L2141,25 L2142,18 L2198,1 L2267,19 L2276,12 L2374,7 L2388,15 L2521,1 L2563,47 L2576,52 L2584,20 L2605,9 L2627,7 L2731,4 L2745,2 L2751,8 L2863,35 L2883,13 L2998,31 L2999,10 L3002,1 L3032,6 L3163,82 L3214,8 L3242,32 L3289,2 L3326,22 L3338,4 L3411,4 L3450,9 L3459,3 L3465,8 L3475,22 L3485,12 L3569,25 L3667,19 L3688,7 L3716,27 L3752,38 L3760,14 L3781,54 L3800,161 L3801,15 L3821,14 l0,-14 L0,0" fill="none" stroke="#808080"/>
<path d="M414,13 L419,187 L420,78" fill="none" stroke="#800000" stroke-width="5"/>
<path d="M3781,54 L3800,161 L3801,15" fill="none" stroke="#804000" stroke-width="5"/>
<path d="M806,11 L807,139 L834,32" fill="none" stroke="#808000" stroke-width="5"/>
<path d="M1581,49 L1612,138 L1616,15" fill="none" stroke="#408000" stroke-width="5"/>
<path d="M279,31 L293,130 L308,7" fill="none" stroke="#008040" stroke-width="5"/>
<path d="M834,32 L841,118 L842,29" fill="none" stroke="#008080" stroke-width="5"/>
<path d="M426,86 L435,105 L441,76" fill="none" stroke="#004080" stroke-width="5"/>
<path d="M6,67 L64,97 L76,95" fill="none" stroke="#400080" stroke-width="5"/>
<path d="M541,30 L553,97 L559,50" fill="none" stroke="#800080" stroke-width="5"/>
<path d="M64,97 L76,95 L97,9" fill="none" stroke="#800040" stroke-width="5"/>
</svg>
</g>
</svg>
<svg height="87.5%" preserveAspectRatio="none" viewBox="-8 -8 3837 203" width="100.1%" xmlns="http://www.w3.org/2000/svg" y="5%">
<g>
<path d="M0,173 L3821,173" stroke="#50505070"/>
<path d="M0,159 L3821,159" stroke="#50505070"/>
<path d="M0,145 L3821,145" stroke="#50505070"/>
<path d="M0,131 L3821,131" stroke="#50505070"/>
<path d="M0,117 L3821,117" stroke="#50505070"/>
<path d="M0,103 L3821,103" stroke="#50505070"/>
<path d="M0,89 L3821,89" stroke="#50505070"/>
<path d="M0,75 L3821,75" stroke="#50505070"/>
<path d="M0,61 L3821,61" stroke="#50505070"/>
<path d="M0,47 L3821,47" stroke="#50505070"/>
<path d="M0,33 L3821,33" stroke="#50505070"/>
<path d="M0,19 L3821,19" stroke="#50505070"/>
<path d="M0,0 L3821,0" stroke="#50505070"/>
</g>
</svg>
<svg height="2.5%" preserveAspectRatio="none" viewBox="-8 -8 3837 203" width="100%" xmlns="http://www.w3.org/2000/svg" y="92.5%">
<g>
<rect fill="#50505070" height="100%" width="0.1%" x="360"/>
<rect fill="#50505070" height="100%" width="0.1%" x="725"/>
<rect fill="#50505070" height="100%" width="0.1%" x="1090"/>
<rect fill="#50505070" height="100%" width="0.1%" x="1455"/>
<rect fill="#50505070" height="100%" width="0.1%" x="1820"/>
<rect fill="#50505070" height="100%" width="0.1%" x="2185"/>
<rect fill="#50505070" height="100%" width="0.1%" x="2550"/>
<rect fill="#50505070" height="100%" width="0.1%" x="2915"/>
<rect fill="#50505070" height="100%" width="0.1%" x="3280"/>
<rect fill="#50505070" height="100%" width="0.1%" x="3645"/>
</g>
</svg>
<svg height="5%" preserveAspectRatio="none" width="100%" xmlns="http://www.w3.org/2000/svg" y="95%">
<text dominant-baseline="middle" fill="#707070" font-family="sans-serif" font-size="28px" font-weight="bold" text-anchor="start" x="0.75%" y="62.5%">
05/01/2016
</text>
<text dominant-baseline="middle" fill="#707070" font-family="sans-serif" font-size="28px" font-weight="bold" text-anchor="end" x="99.25%" y="62.5%">
22/06/2026
</text>
</svg>
</svg>
<g transform="scale(12.5, 1)">
<svg height="87.5%" preserveAspectRatio="none" viewBox="-8 -8 203 203" width="2%" x="-0.9%" xmlns="http://www.w3.org/2000/svg" y="5%">
<g>
<text dominant-baseline="middle" fill="#707070" font-family="sans-serif" font-size="8px" text-anchor="end" x="50%" y="173">
14
</text>
<text dominant-baseline="middle" fill="#707070" font-family="sans-serif" font-size="8px" text-anchor="end" x="50%" y="159">
28
</text>
<text dominant-baseline="middle" fill="#707070" font-family="sans-serif" font-size="8px" text-anchor="end" x="50%" y="145">
42
</text>
<text dominant-baseline="middle" fill="#707070" font-family="sans-serif" font-size="8px" text-anchor="end" x="50%" y="131">
56
</text>
<text dominant-baseline="middle" fill="#707070" font-family="sans-serif" font-size="8px" text-anchor="end" x="50%" y="117">
70
</text>
<text dominant-baseline="middle" fill="#707070" font-family="sans-serif" font-size="8px" text-anchor="end" x="50%" y="103">
84
</text>
<text dominant-baseline="middle" fill="#707070" font-family="sans-serif" font-size="8px" text-anchor="end" x="50%" y="89">
98
</text>
<text dominant-baseline="middle" fill="#707070" font-family="sans-serif" font-size="8px" text-anchor="end" x="50%" y="75">
112
</text>
<text dominant-baseline="middle" fill="#707070" font-family="sans-serif" font-size="8px" text-anchor="end" x="50%" y="61">
126
</text>
<text dominant-baseline="middle" fill="#707070" font-family="sans-serif" font-size="8px" text-anchor="end" x="50%" y="47">
140
</text>
<text dominant-baseline="middle" fill="#707070" font-family="sans-serif" font-size="8px" text-anchor="end" x="50%" y="33">
154
</text>
<text dominant-baseline="middle" fill="#707070" font-family="sans-serif" font-size="8px" text-anchor="end" x="50%" y="19">
168
</text>
<text dominant-baseline="middle" fill="#707070" font-family="sans-serif" font-size="8px" text-anchor="end" x="50%" y="0">
187
</text>
</g>
</svg>
</g>
</svg>
<svg height="10%" width="100%" xmlns="http://www.w3.org/2000/svg" y="90%">
<g>
<rect fill="#800000" height="60%" width="2%" x="6.590909090909092%" y="20%"/>
<text dominant-baseline="middle" fill="#800000" font-family="sans-serif" font-size="30px" font-weight="bold" x="9.590909090909092%" y="50%">
#1
</text>
<rect fill="#804000" height="60%" width="2%" x="15.681818181818183%" y="20%"/>
<text dominant-baseline="middle" fill="#804000" font-family="sans-serif" font-size="30px" font-weight="bold" x="18.681818181818183%" y="50%">
#2
</text>
<rect fill="#808000" height="60%" width="2%" x="24.772727272727273%" y="20%"/>
<text dominant-baseline="middle" fill="#808000" font-family="sans-serif" font-size="30px" font-weight="bold" x="27.772727272727273%" y="50%">
#3
</text>
<rect fill="#408000" height="60%" width="2%" x="33.86363636363637%" y="20%"/>
<text dominant-baseline="middle" fill="#408000" font-family="sans-serif" font-size="30px" font-weight="bold" x="36.86363636363637%" y="50%">
#4
</text>
<rect fill="#008040" height="60%" width="2%" x="42.95454545454545%" y="20%"/>
<text dominant-baseline="middle" fill="#008040" font-family="sans-serif" font-size="30px" font-weight="bold" x="45.95454545454545%" y="50%">
#5
</text>
<rect fill="#008080" height="60%" width="2%" x="52.04545454545455%" y="20%"/>
<text dominant-baseline="middle" fill="#008080" font-family="sans-serif" font-size="30px" font-weight="bold" x="55.04545454545455%" y="50%">
#6
</text>
<rect fill="#004080" height="60%" width="2%" x="61.13636363636363%" y="20%"/>
<text dominant-baseline="middle" fill="#004080" font-family="sans-serif" font-size="30px" font-weight="bold" x="64.13636363636363%" y="50%">
#7
</text>
<rect fill="#400080" height="60%" width="2%" x="70.22727272727273%" y="20%"/>
<text dominant-baseline="middle" fill="#400080" font-family="sans-serif" font-size="30px" font-weight="bold" x="73.22727272727273%" y="50%">
#8
</text>
<rect fill="#800080" height="60%" width="2%" x="79.31818181818181%" y="20%"/>
<text dominant-baseline="middle" fill="#800080" font-family="sans-serif" font-size="30px" font-weight="bold" x="82.31818181818181%" y="50%">
#9
</text>
<rect fill="#800040" height="60%" width="2%" x="88.4090909090909%" y="20%"/>
<text dominant-baseline="middle" fill="#800040" font-family="sans-serif" font-size="30px" font-weight="bold" x="91.4090909090909%" y="50%">
#10
</text>
</g>
</svg>
</svg>
</svg>